<svg id="Layer_1" data-name="Layer 1" xmlns="http://www.w3.org/2000/svg" viewBox="0 0 124 124"><defs><style>.cls-1{fill:#020202;}</style></defs><title>building-and-improving-websites</title><path class="cls-1" d="M49.37,73.45l-.08,0-8.06-6,1.71-1.36,2.13-1.65c.78-.58,1.55-1.16,2.3-1.75s1.36-1.07,1.83-1.46a1.93,1.93,0,0,0,.51-1.38,1.61,1.61,0,0,0-.55-1.21,2,2,0,0,0-1.42-.5,3.23,3.23,0,0,0-1.12.25,10.22,10.22,0,0,0-.94.69c-.49.38-1.07.83-1.73,1.36L41.8,62.12c-.77.6-1.49,1.16-2.15,1.69l-1.76,1.38-.92.7H37a1.75,1.75,0,0,0-.25,3l2.69,2,3,2.21,2.28,1.74c.73.57,1.42,1.07,2.06,1.52a3.14,3.14,0,0,0,1.13.21A2.05,2.05,0,0,0,49.33,76a1.53,1.53,0,0,0,.54-1.19,1.79,1.79,0,0,0-.14-.67C49.63,73.94,49.51,73.7,49.37,73.45Z"/><path class="cls-1" d="M66.65,56.26a2.28,2.28,0,0,0-1.92,1.16q-1.1,2.51-2.26,5.16L56.08,77.09a2.7,2.7,0,0,0,0,.54A1.73,1.73,0,0,0,56.6,79a2,2,0,0,0,1.36.48,2.53,2.53,0,0,0,1-.23,2.37,2.37,0,0,0,.94-.81l2.21-5.1q1.13-2.58,2.21-5.09l4.18-9.52a1.57,1.57,0,0,0,.13-.67A1.67,1.67,0,0,0,68,56.76,2,2,0,0,0,66.65,56.26Z"/><path class="cls-1" d="M86,65.89h0L84.6,64.77c-.64-.5-1.4-1.11-2.27-1.82s-1.74-1.38-2.57-2l-2.21-1.71a11.71,11.71,0,0,0-1.21-.88,3.51,3.51,0,0,0-1.09-.21,2.05,2.05,0,0,0-1.4.5,1.59,1.59,0,0,0-.56,1.21,1.93,1.93,0,0,0,.54,1.34c.45.39,1,.88,1.82,1.48l2.27,1.77,3.8,3-8.1,6a2.4,2.4,0,0,0-.5,1.34A1.5,1.5,0,0,0,73.69,76a2.06,2.06,0,0,0,1.39.48,3.08,3.08,0,0,0,1.17-.25l5.14-3.76,4.92-3.67a2,2,0,0,0,.63-1.34A2.12,2.12,0,0,0,86,65.89Z"/><path class="cls-1" d="M114.4,22.67H9.53a9,9,0,0,0-9,9V96.53a9,9,0,0,0,9,9H114.4a9,9,0,0,0,9-9V31.67A9,9,0,0,0,114.4,22.67Zm-104.87,4H114.4a5,5,0,0,1,5,5v7.79H4.53V31.67A5,5,0,0,1,9.53,26.67ZM114.4,101.52H9.53a5,5,0,0,1-5-5V41.46H119.39V96.53A5,5,0,0,1,114.4,101.52Z"/><path class="cls-1" d="M101.79,37a3.9,3.9,0,1,0-3.9-3.9A3.91,3.91,0,0,0,101.79,37Zm0-5.8a1.9,1.9,0,1,1-1.9,1.9A1.9,1.9,0,0,1,101.79,31.2Z"/><path class="cls-1" d="M90.86,37A3.9,3.9,0,1,0,87,33.1,3.91,3.91,0,0,0,90.86,37Zm0-5.8A1.9,1.9,0,1,1,89,33.1,1.91,1.91,0,0,1,90.86,31.2Z"/><path class="cls-1" d="M112.53,37a3.9,3.9,0,1,0-3.9-3.9A3.9,3.9,0,0,0,112.53,37Zm0-5.8a1.9,1.9,0,1,1-1.9,1.9A1.9,1.9,0,0,1,112.53,31.2Z"/></svg>