<svg id="Layer_1" data-name="Layer 1" xmlns="http://www.w3.org/2000/svg" viewBox="0 0 124 124"><defs><style>.cls-1{fill:#1d1d1b;}</style></defs><title>paid-social</title><path class="cls-1" d="M24.23,26.52V26h4.35V23.76H24.17c0-.79-.05-1.54-.05-2.53,0-2.37.59-3.81,2.66-3.81a2.64,2.64,0,0,1,2.72,2.52h2.81a5.08,5.08,0,0,0-5.47-5c-3.91,0-5.65,2.71-5.65,6.49,0,.9,0,1.62.06,2.28H18.73V26h2.62c0,.23,0,.46,0,.71,0,2.92-.51,4.92-2.25,5.82v2.33H32.6L33,32.29H22.72C23.81,31,24.23,29.11,24.23,26.52Z"/><path class="cls-1" d="M115.52,23.66H48.41A23,23,0,1,0,23.77,48.55V115.4a5.9,5.9,0,0,0,5.9,5.9H77.52V82.19H65.82V71.55h11.7V57.85c0-10.2,6-16.05,16.45-16.05,3.57,0,6.86.19,8.9.37V51H97.39c-6.22,0-9.24,2.91-9.24,8.88V71.55h14.2l-2.13,10.64H88.14l.26,39.11h27.12a5.9,5.9,0,0,0,5.9-5.9V29.56A5.91,5.91,0,0,0,115.52,23.66Zm-89.75,21h-.23a19.73,19.73,0,1,1,.23,0Zm91.65,70.79a1.9,1.9,0,0,1-1.9,1.9H92.38l-.22-31.11H103.5l3.73-18.64H92.15V59.88c0-3.3.78-4.88,5.24-4.88h9.48V38.61l-1.74-.23A100.8,100.8,0,0,0,94,37.8c-12.61,0-20.45,7.68-20.45,20.05v9.7H61.82V86.19h11.7V117.3H29.67a1.9,1.9,0,0,1-1.9-1.9V48.51A23,23,0,0,0,48.41,27.66h67.11a1.9,1.9,0,0,1,1.9,1.9Z"/></svg>