<svg id="Layer_1" data-name="Layer 1" xmlns="http://www.w3.org/2000/svg" viewBox="0 0 124 124"><title>programmatic-display</title><path d="M113.51,22.06H35.77A15.65,15.65,0,0,0,4.59,23.94,10.67,10.67,0,0,0-.09,32.78V96.46a10.73,10.73,0,0,0,10.71,10.72H113.51a10.72,10.72,0,0,0,10.71-10.72V32.78A10.72,10.72,0,0,0,113.51,22.06ZM20.24,12.29A11.74,11.74,0,1,1,8.51,24,11.74,11.74,0,0,1,20.24,12.29ZM120.3,96.46a6.8,6.8,0,0,1-6.79,6.8H10.62a6.8,6.8,0,0,1-6.79-6.8v-54H119.6a1,1,0,0,0,.7-.3Zm0-55.68a1,1,0,0,0-.7-.31H3.83V32.78A6.8,6.8,0,0,1,5.27,28.6,15.65,15.65,0,0,0,35.77,26h77.74a6.8,6.8,0,0,1,6.79,6.8Z"/><path d="M101.1,30.42a3.82,3.82,0,1,0,3.82,3.82A3.83,3.83,0,0,0,101.1,30.42Zm0,5.68A1.86,1.86,0,1,1,103,34.24,1.86,1.86,0,0,1,101.1,36.1Z"/><path d="M90.39,30.42a3.82,3.82,0,1,0,3.82,3.82A3.83,3.83,0,0,0,90.39,30.42Zm0,5.68a1.86,1.86,0,1,1,1.86-1.86A1.86,1.86,0,0,1,90.39,36.1Z"/><path d="M111.62,30.42a3.82,3.82,0,1,0,3.82,3.82A3.83,3.83,0,0,0,111.62,30.42Zm0,5.68a1.86,1.86,0,1,1,1.86-1.86A1.86,1.86,0,0,1,111.62,36.1Z"/><path d="M15.83,53.72H52.06a1,1,0,1,0,0-2H15.83a1,1,0,0,0,0,2Z"/><path d="M72.3,61H15.83a1,1,0,0,0,0,2H72.3a1,1,0,1,0,0-2Z"/><path d="M72.3,69.73H15.83a1,1,0,1,0,0,2H72.3a1,1,0,0,0,0-2Z"/><path d="M72.3,78.42H15.83a1,1,0,1,0,0,2H72.3a1,1,0,1,0,0-2Z"/><path d="M72.3,87.11H15.83a1,1,0,1,0,0,2H72.3a1,1,0,1,0,0-2Z"/><path d="M105.75,47.54h-15a4.9,4.9,0,0,0-4.9,4.89V70a4.91,4.91,0,0,0,4.9,4.9h15a4.9,4.9,0,0,0,4.89-4.9V52.43A4.89,4.89,0,0,0,105.75,47.54ZM108.68,70a2.94,2.94,0,0,1-2.93,2.94h-15A2.94,2.94,0,0,1,87.83,70V52.43a2.94,2.94,0,0,1,2.94-2.93h15a2.93,2.93,0,0,1,2.93,2.93Z"/><path d="M105.8,78.5H90.72a4.85,4.85,0,0,0-4.85,4.84v5.82A4.85,4.85,0,0,0,90.72,94H105.8a4.84,4.84,0,0,0,4.84-4.84V83.34A4.84,4.84,0,0,0,105.8,78.5Zm2.88,10.66A2.88,2.88,0,0,1,105.8,92H90.72a2.89,2.89,0,0,1-2.89-2.88V83.34a2.89,2.89,0,0,1,2.89-2.88H105.8a2.88,2.88,0,0,1,2.88,2.88Z"/><path d="M17.35,24.92c0,2-.36,3.36-1.54,4v1.59H25l.26-1.75h-7a5.94,5.94,0,0,0,1-3.93v-.36h3V22.92h-3c0-.54,0-1.05,0-1.73,0-1.61.41-2.59,1.82-2.59a1.8,1.8,0,0,1,1.86,1.71h1.91a3.46,3.46,0,0,0-3.73-3.38c-2.66,0-3.85,1.85-3.85,4.43,0,.62,0,1.11,0,1.56H15.55v1.52h1.79C17.34,24.59,17.35,24.75,17.35,24.92Z"/></svg>