<?xml version="1.0" encoding="UTF-8"?>
<svg width="179px" height="77px" viewBox="0 0 179 77" version="1.1" xmlns="http://www.w3.org/2000/svg" xmlns:xlink="http://www.w3.org/1999/xlink">
    <!-- Generator: Sketch 64 (93537) - https://sketch.com -->
    <title>23es</title>
    <desc>Created with Sketch.</desc>
    <g id="Desktop" stroke="none" stroke-width="1" fill="none" fill-rule="evenodd">
        <g id="OurWork-Index--Single-23es" transform="translate(-190.000000, -875.000000)" fill-rule="nonzero">
            <g id="23es" transform="translate(190.000000, 875.000000)">
                <polygon id="Rectangle-path" fill="#86D0F4" points="0 0 179 0 179 77 0 77"></polygon>
                <path d="M47,59.4998164 L47,62 L18,62 C18.5064027,53.5534337 24.9377183,48.8909292 31.3015134,44.4818216 C37.6653085,40.0727139 43.9109429,35.9001103 43.9109429,28.2982005 C43.8818398,25.5152441 42.7236561,22.8636661 40.7023026,20.9522505 C38.6809491,19.0408347 35.970077,18.033788 33.1920838,18.162321 C25.25844,18.162321 21.4772992,24.2607419 21.4772992,32.048476 L19.0128056,32.048476 C19.5192083,21.2368711 24.2456345,16 32.7532014,16 C40.1298021,16 46.2572758,20.0543518 46.2572758,28.3826662 C46.2572758,36.3224385 40.2648428,41.2890196 34.0360884,45.6305546 C27.807334,49.9720897 21.4266588,53.958869 20.9877765,59.5167096 L47,59.4998164 Z" id="Shape" fill="#1D1D1B"></path>
                <path d="M53.3547696,47.2145179 C53.0337065,55.7013362 58.018635,60.7934272 66.0452147,60.7934272 C72.4833765,60.7934272 78.5328829,56.8555435 78.5328829,49.6078007 C78.5328829,40.900325 71.0808373,38.5919104 63.8991607,39.1350668 L63.8991607,36.9963886 C70.2697303,37.2679667 77.5189991,35.299025 77.5189991,27.4572048 C77.5189991,21.0581438 71.3343083,18.1726255 66.0452147,18.1726255 C58.4072904,18.1726255 54.7404108,23.6381366 54.4193477,31.140484 L52.0367209,31.140484 C52.0367209,22.1784037 57.3934066,16 66.0452147,16 C73.0410126,16 79.918524,19.3947273 79.918524,27.4572048 C80.176814,32.589187 76.5262838,37.0847535 71.4694927,37.8620441 L71.4694927,37.9808595 C77.4007127,38.6937523 81,43.5142651 81,49.6417479 C81,58.5868545 74.240775,63 66.112807,63 C56.5147073,63 50.5834874,57.3308053 51.0228371,47.1975442 L53.3547696,47.2145179 Z" id="Shape" fill="#1D1D1B"></path>
                <path d="M90.0573834,40.9608336 C90.0573834,48.8814229 94.1302201,58.4401724 104.151764,58.4401724 C111.790446,58.4401724 115.98158,53.7959036 117.671554,47.0743802 L122.893573,47.0743802 C120.662808,57.2073302 115.018295,63 104.303862,63 C90.7840722,63 85.0043621,52.1577434 85.0043621,39.5084441 C84.8184649,27.7879985 90.5643756,16 104.151764,16 C117.739153,16 123.400565,28.4804167 122.978072,40.9608336 L90.0573834,40.9608336 Z M117.756053,36.401006 C117.502557,28.2270931 112.686132,20.5598274 104.236263,20.5598274 C95.7863944,20.5598274 90.9699694,28.3115343 90.1418821,36.401006 L117.756053,36.401006 Z" id="Shape" fill="#FFFFFF"></path>
                <path d="M154.255475,30.2720746 C154.017032,23.5240488 148.992701,20.5549174 142.980535,20.5549174 C138.296837,20.5549174 132.761557,22.4443647 132.761557,28.2139268 C132.761557,33.0218951 138.10949,34.7426418 141.703162,35.6873653 L148.720194,37.3743719 C154.749392,38.3190954 161,41.9292893 161,49.6726489 C161,59.3054558 151.734793,63 143.712896,63 C133.681265,63 126.83455,58.1920316 126,47.3445801 L131.262773,47.3445801 C131.688564,54.6661881 136.951338,58.4450825 143.96837,58.4450825 C148.890511,58.4450825 155.754258,56.218234 155.754258,50.0100502 C155.754258,44.8478104 151.070559,43.1270639 146.301703,41.9124192 L139.489051,40.3603733 C132.676399,38.4877961 127.447689,36.0753768 127.447689,28.551328 C127.549878,19.4414932 136.065693,16 143.729927,16 C152.245742,16 159.194647,20.6392677 159.518248,30.2720746 L154.255475,30.2720746 Z" id="Shape" fill="#FFFFFF"></path>
            </g>
        </g>
    </g>
</svg>