<?xml version="1.0" encoding="UTF-8"?>
<svg width="86px" height="64px" viewBox="0 0 86 64" version="1.1" xmlns="http://www.w3.org/2000/svg" xmlns:xlink="http://www.w3.org/1999/xlink">
    <!-- Generator: Sketch 59.1 (86144) - https://sketch.com -->
    <title>at800</title>
    <desc>Created with Sketch.</desc>
    <g id="Pages" stroke="none" stroke-width="1" fill="none" fill-rule="evenodd">
        <g id="01-Home--Clients-Tech" transform="translate(-806.000000, -1994.000000)">
            <g id="Client-Block" transform="translate(401.000000, 1970.000000)">
                <g id="at800" transform="translate(305.000000, 0.000000)">
                    <rect id="Mask" x="0" y="0" width="289" height="112"></rect>
                    <path d="M185.271252,24 L184.164454,26.7866601 L183.023465,24 L182.294717,24 L182.294717,27.5000219 L182.724542,27.5000219 L182.724542,24.3745875 L182.741148,24.3745875 L184.0189,27.5000219 L184.274841,27.5000219 L185.553569,24.3745875 L185.570175,24.3745875 L185.570175,27.5000219 L186,27.5000219 L186,24 L185.271252,24 Z M165.818981,27.3886212 C173.074069,27.3886212 179.111054,33.1595956 179.279671,40.275908 L179.283291,40.5817036 L179.283291,45.756736 C176.748594,45.756736 175.247039,43.20072 173.811387,40.6737042 C172.345139,38.0890116 170.749951,35.6173647 167.753018,35.4742095 L167.476673,35.4676717 L167.403673,35.4676717 C164.328579,35.4676717 162.878732,37.914687 161.482621,40.483703 C160.053052,43.1087194 158.700538,45.7767361 155.75522,45.7767361 C152.837277,45.7767361 151.512138,43.3217208 150.111971,40.7317046 C148.696596,38.1086882 147.222417,35.3916712 143.96888,35.3916712 C140.652482,35.3916712 139.092123,38.1866887 137.588541,40.8937056 C136.202569,43.3937212 134.87236,45.756736 132.300149,45.756736 C129.703606,45.756736 128.31155,43.367721 126.875898,40.8397052 C125.395874,38.2365713 123.627404,35.5486531 120.743584,35.3927922 L120.478323,35.3856712 L120.478323,36.5326783 C122.928868,36.5326783 124.436506,38.8956931 125.857964,41.3997087 C127.395004,44.1047257 129.057765,46.8997431 132.335635,46.8997431 C135.414727,46.8997431 136.959776,44.4345873 138.376375,41.9014876 L138.632836,41.440709 C140.033002,38.9176932 141.3551,36.5326783 143.981046,36.5326783 C146.536021,36.5326783 147.779036,38.8296927 149.096065,41.2597079 C150.523606,43.9037244 152.151895,46.8997431 155.767387,46.8997431 C159.413295,46.8997431 161.075042,43.8677242 162.529958,41.1927075 C163.828737,38.8076925 165.078849,36.5536785 167.484784,36.5326783 C170.001231,36.5556785 171.382133,38.9096932 172.79548,41.3997087 C174.287314,44.0251663 176.129674,46.7354082 179.017831,46.892563 L179.283291,46.8997431 L179.283291,88 L113.452143,88 C106.199055,88 100.171953,82.2270816 100.003614,75.1107143 L100,74.8049175 L100,27.3886212 L165.818981,27.3886212 Z M115.062183,51.4187714 C109.505113,51.4187714 105.102852,54.1377884 105.102852,60.0138251 C105.102852,62.7758423 106.436102,65.6268602 108.970799,66.8988681 C105.546931,68.2128763 104.302901,70.9768936 104.302901,74.5279158 C104.302901,80.798955 108.970799,83.9549747 115.062183,83.9549747 C121.153566,83.9549747 125.82045,80.798955 125.82045,74.5279158 C125.82045,70.9768936 124.577435,68.2128763 121.153566,66.8988681 C123.688263,65.6268602 125.0205,62.7758423 125.0205,60.0138251 C125.0205,54.1377884 120.618238,51.4187714 115.062183,51.4187714 Z M139.783588,51.4187714 C132.960511,51.4187714 129.148482,55.4931176 129.027289,62.0560722 L129.024307,62.3808399 L129.024307,72.9939062 C129.024307,79.7459484 132.848658,83.9549747 139.783588,83.9549747 C146.607663,83.9549747 150.417745,79.8806285 150.538876,73.3186263 L150.541856,72.9939062 L150.541856,62.3808399 C150.541856,55.6277977 146.719533,51.4187714 139.783588,51.4187714 Z M164.506008,51.4187714 C157.681933,51.4187714 153.869888,55.4931176 153.748694,62.0560722 L153.745713,62.3808399 L153.745713,72.9939062 C153.745713,79.7459484 157.570063,83.9549747 164.506008,83.9549747 C171.329085,83.9549747 175.141114,79.8806285 175.262307,73.3186263 L175.265289,72.9939062 L175.265289,62.3808399 C175.265289,55.6277977 171.440938,51.4187714 164.506008,51.4187714 Z M115.061879,69.4865843 C118.040654,69.4865843 119.95283,71.4145963 119.95283,74.3516147 C119.95283,77.0706317 118.662162,78.9576435 115.061879,78.9576435 C111.461595,78.9576435 110.170927,77.0706317 110.170927,74.3516147 C110.170927,71.4145963 112.083103,69.4865843 115.061879,69.4865843 Z M139.783081,56.4162026 C143.006967,56.4162026 144.608026,57.8469754 144.672033,62.7295691 L144.674032,63.039244 L144.674032,72.3363021 C144.674032,77.4673342 143.074132,78.9573435 139.783081,78.9573435 C136.561182,78.9573435 134.960164,77.5275303 134.896158,72.6459158 L134.894158,72.3363021 L134.894158,63.039244 C134.894158,57.9072119 136.494059,56.4162026 139.783081,56.4162026 Z M164.506312,56.4162026 C167.728212,56.4162026 169.32923,57.8469754 169.393235,62.7295691 L169.395235,63.039244 L169.395235,72.3363021 C169.395235,77.4673342 167.795335,78.9573435 164.506312,78.9573435 C161.282426,78.9573435 159.681367,77.5275303 159.617361,72.6459158 L159.615361,72.3363021 L159.615361,63.039244 C159.615361,57.9072119 161.215262,56.4162026 164.506312,56.4162026 Z M115.061676,56.4163026 C117.461527,56.4163026 119.152677,58.2593141 119.152677,60.4963281 C119.152677,62.7323421 117.329723,64.486353 115.061676,64.486353 C112.794643,64.486353 110.972703,62.7323421 110.972703,60.4963281 C110.972703,58.2593141 112.661825,56.4163026 115.061676,56.4163026 Z M109.483822,35.1086694 C107.58205,35.1086694 106.311067,36.0236033 105.617637,37.1542349 L105.526653,37.3096832 L106.806168,37.9706873 C107.08904,37.2686829 107.881893,36.3486772 109.503086,36.3486772 C110.707573,36.3486772 111.595739,36.8253607 111.670694,38.076282 L111.675828,38.2516891 L111.675828,38.8096926 C106.988666,39.6296977 105.222489,40.7727048 105.222489,43.0537191 C105.222489,44.953731 106.602378,45.915737 108.226612,45.915737 C109.715225,45.915737 110.844594,45.1716493 111.581756,44.4163065 L111.715369,44.2747267 L111.87759,45.7147357 L113.379144,45.7147357 C113.247184,45.2171941 113.150643,44.7009069 113.136572,43.7269891 L113.134799,43.4737217 L113.134799,38.2296889 C113.134799,35.9486747 111.269262,35.1086694 109.483822,35.1086694 Z M116.847623,31.8866493 L115.386624,31.8866493 L115.386624,35.3076707 L113.662016,35.3076707 L113.662016,36.5496784 L115.386624,36.5496784 L115.386624,44.1947262 C115.386624,45.5147345 116.055784,45.915737 117.638449,45.915737 C118.414527,45.915737 118.971071,45.8487944 119.263138,45.7772688 L119.342779,45.755736 L119.342779,44.5737286 C118.957505,44.633729 118.531676,44.6747292 118.044,44.6747292 C117.249119,44.6747292 116.895839,44.463919 116.852268,44.0463638 L116.847623,43.9537247 L116.847623,36.5496784 L119.281946,36.5496784 L119.281946,35.3076707 L116.847623,35.3076707 L116.847623,31.8866493 Z M111.675828,40.0913006 L111.675828,42.9523185 C110.822142,43.9133245 109.483822,44.6753292 108.428374,44.6753292 C107.618285,44.6753292 106.683489,44.0323252 106.683489,43.0733192 C106.683489,41.6323102 108.326986,40.6713042 111.675828,40.0913006 Z M181.661703,24 L181.661703,24.3745875 L180.521691,24.3745875 L180.521691,27.5000219 L180.092843,27.5000219 L180.092843,24.3745875 L178.917664,24.3745875 L178.917664,24 L181.661703,24 Z" id="Brand129/at800__tsp" fill="#474747"></path>
                </g>
            </g>
        </g>
    </g>
</svg>