<?xml version="1.0" encoding="UTF-8"?>
<svg width="94px" height="74px" viewBox="0 0 94 74" version="1.1" xmlns="http://www.w3.org/2000/svg" xmlns:xlink="http://www.w3.org/1999/xlink">
    <!-- Generator: Sketch 59.1 (86144) - https://sketch.com -->
    <title>BES</title>
    <desc>Created with Sketch.</desc>
    <defs>
        <rect id="path-1" x="0" y="0" width="289" height="112"></rect>
    </defs>
    <g id="Pages" stroke="none" stroke-width="1" fill="none" fill-rule="evenodd">
        <g id="01-Home--Clients-Tech" transform="translate(-498.000000, -2113.000000)">
            <g id="Client-Block" transform="translate(401.000000, 1970.000000)">
                <g id="BES" transform="translate(0.000000, 140.000000)">
                    <g id="Group-4" transform="translate(0.000000, 0.371179)">
                        <mask id="mask-2" fill="white">
                            <use xlink:href="#path-1"></use>
                        </mask>
                        <g id="Mask"></g>
                        <polygon id="Rectangle" fill="#474747" mask="url(#mask-2)" transform="translate(144.903571, 21.232558) rotate(45.000000) translate(-144.903571, -21.232558) " points="132.407447 8.73643411 157.414286 8.72184385 157.399695 33.7286822 132.392857 33.7432724"></polygon>
                        <polygon id="Rectangle-Copy" fill="#474747" mask="url(#mask-2)" transform="translate(165.082143, 42.193798) rotate(45.000000) translate(-165.082143, -42.193798) " points="152.586019 29.6976744 177.592857 29.6830842 177.578267 54.6899225 152.571429 54.7045127"></polygon>
                        <polygon id="Rectangle-Copy-2" fill="#474747" mask="url(#mask-2)" transform="translate(123.917857, 42.193798) rotate(45.000000) translate(-123.917857, -42.193798) " points="111.421733 29.6976744 136.428571 29.6830842 136.413981 54.6899225 111.407143 54.7045127"></polygon>
                        <path d="M97.6857143,57.9147287 L106.544567,57.9147287 C108.298206,57.9147287 109.605856,57.9732043 110.467558,58.0901573 C111.329259,58.2071102 112.100244,58.4510947 112.780535,58.8221179 C113.460825,59.1931411 114.027726,59.6871592 114.481253,60.3041869 C114.93478,60.9212146 115.16154,61.6128399 115.16154,62.3790835 C115.16154,63.2098529 114.881869,63.9720522 114.322519,64.6657043 C113.763169,65.3593564 113.004782,65.8795876 112.047336,66.2264137 C113.397839,66.5409769 114.435897,67.0773393 115.16154,67.8355172 C115.887184,68.5936951 116.25,69.484944 116.25,70.5092907 C116.25,71.3158629 116.015681,72.1002426 115.547036,72.8624533 C115.078392,73.6246641 114.438424,74.2336169 113.627114,74.6893302 C112.815805,75.1450435 111.81554,75.4253232 110.626291,75.5301776 C109.880491,75.5947033 108.081527,75.6350313 105.229345,75.6511628 L97.6857143,75.6511628 L97.6857143,57.9147287 Z M102.528571,61.1395349 L102.528571,64.3643411 L104.992333,64.3643411 C106.45705,64.3643411 107.367194,64.3484867 107.72279,64.3167776 C108.366249,64.2597011 108.87212,64.0932304 109.240416,63.8173607 C109.608712,63.5414909 109.792857,63.1784264 109.792857,62.7281562 C109.792857,62.2969116 109.634111,61.9465305 109.316615,61.6770026 C108.999118,61.4074747 108.527114,61.2441749 107.900587,61.1870984 C107.528058,61.1553892 106.457052,61.1395349 104.687537,61.1395349 L102.528571,61.1395349 Z M102.528571,68.3953488 L102.528571,72.4263566 L106.061433,72.4263566 C107.436763,72.4263566 108.309225,72.3955073 108.678845,72.3338079 C109.246169,72.2515421 109.708187,72.051022 110.064913,71.7322417 C110.42164,71.4134615 110.6,70.9867136 110.6,70.4519854 C110.6,69.9995231 110.462469,69.6156215 110.187403,69.3002689 C109.912337,68.9849164 109.514787,68.755261 108.99474,68.6112957 C108.474693,68.4673304 107.34651,68.3953488 105.610155,68.3953488 L102.528571,68.3953488 Z M136.428571,75.6511628 L136.428571,57.9147287 L152.952921,57.9147287 L152.952921,60.9151623 L140.928302,60.9151623 L140.928302,64.8471821 L152.116823,64.8471821 L152.116823,67.8355172 L140.928302,67.8355172 L140.928302,72.6628277 L153.378571,72.6628277 L153.378571,75.6511628 L136.428571,75.6511628 Z M171.942857,69.5028795 L176.428188,69.1606291 C176.69814,70.3422137 177.245822,71.2100541 178.071252,71.7641765 C178.896681,72.3182989 180.010216,72.595356 181.411889,72.595356 C182.896624,72.595356 184.01535,72.3488567 184.7681,71.8558507 C185.52085,71.3628448 185.89722,70.7863217 185.89722,70.1262641 C185.89722,69.7025234 185.738885,69.3419418 185.422211,69.0445085 C185.105536,68.7470751 184.552663,68.4883528 183.763573,68.2683336 C183.223669,68.1216541 181.99333,67.8608945 180.072519,67.486047 C177.601422,67.0052643 175.867527,66.4144809 174.870781,65.7136791 C173.469109,64.7276672 172.768283,63.5257285 172.768283,62.1078271 C172.768283,61.1951549 173.09793,60.3415747 173.757236,59.547061 C174.416541,58.7525472 175.36655,58.1475035 176.60729,57.7319117 C177.84803,57.3163199 179.345721,57.1085271 181.100407,57.1085271 C183.96605,57.1085271 186.123036,57.6015257 187.571432,58.5875376 C189.019827,59.5735495 189.780353,60.8895705 189.853032,62.53564 L185.243109,62.694542 C185.045836,61.7737209 184.622745,61.1116361 183.973823,60.7082675 C183.3249,60.304899 182.351531,60.1032178 181.053685,60.1032178 C179.714309,60.1032178 178.665666,60.3191593 177.907724,60.7510488 C177.419734,61.02811 177.175743,61.3988776 177.175743,61.8633625 C177.175743,62.2871032 177.40416,62.649722 177.861002,62.9512297 C178.442437,63.3342261 179.854471,63.7335142 182.097148,64.149106 C184.339824,64.5646978 185.998446,64.9945437 187.073061,65.4386565 C188.147677,65.8827693 188.988668,66.4898502 189.59606,67.2599173 C190.203452,68.0299845 190.507143,68.9813495 190.507143,70.1140409 C190.507143,71.1407971 190.143752,72.102348 189.416958,72.9987225 C188.690165,73.895097 187.662287,74.5612562 186.333293,74.9972201 C185.0043,75.4331841 183.348274,75.6511628 181.365167,75.6511628 C178.478759,75.6511628 176.262072,75.1276065 174.715041,74.0804781 C173.168009,73.0333497 172.243957,71.5074988 171.942857,69.5028795 Z" id="BES" fill="#474747" fill-rule="nonzero" mask="url(#mask-2)"></path>
                    </g>
                </g>
            </g>
        </g>
    </g>
</svg>