<?xml version="1.0" encoding="UTF-8"?>
<svg width="216px" height="47px" viewBox="0 0 216 47" version="1.1" xmlns="http://www.w3.org/2000/svg" xmlns:xlink="http://www.w3.org/1999/xlink">
    <!-- Generator: Sketch 59.1 (86144) - https://sketch.com -->
    <title>BurnleyComms</title>
    <desc>Created with Sketch.</desc>
    <g id="Pages" stroke="none" stroke-width="1" fill="none" fill-rule="evenodd">
        <g id="01-Home--Clients-Tech" transform="translate(-1044.000000, -2003.000000)">
            <g id="Client-Block" transform="translate(401.000000, 1970.000000)">
                <g id="BurnleyComms" transform="translate(609.000000, 0.000000)">
                    <rect id="Mask" x="0" y="0" width="289" height="112"></rect>
                    <g transform="translate(34.000000, 33.000000)" fill="#474747">
                        <path d="M59.819601,11.9873898 C59.819601,11.409048 59.7580016,10.8570026 59.634801,10.3312373 C59.5116003,9.80547195 59.3180023,9.34105286 59.054001,8.9379661 C58.7899996,8.53487934 58.4600029,8.21504356 58.064001,7.97844915 C57.667999,7.74185475 57.1884038,7.62355932 56.625201,7.62355932 C56.0795982,7.62355932 55.604403,7.74185475 55.199601,7.97844915 C54.7947989,8.21504356 54.4604023,8.53487934 54.196401,8.9379661 C53.9323996,9.34105286 53.7388016,9.80547195 53.615601,10.3312373 C53.4924003,10.8570026 53.430801,11.409048 53.430801,11.9873898 C53.430801,12.5482062 53.4924003,13.0914889 53.615601,13.6172542 C53.7388016,14.1430196 53.9323996,14.6074387 54.196401,15.0105254 C54.4604023,15.4136122 54.7947989,15.733448 55.199601,15.9700424 C55.604403,16.2066368 56.0795982,16.3249322 56.625201,16.3249322 C57.1884038,16.3249322 57.667999,16.2066368 58.064001,15.9700424 C58.4600029,15.733448 58.7899996,15.4136122 59.054001,15.0105254 C59.3180023,14.6074387 59.5116003,14.1430196 59.634801,13.6172542 C59.7580016,13.0914889 59.819601,12.5482062 59.819601,11.9873898 Z M49.814001,-7.10542736e-14 L53.562801,-7.10542736e-14 L53.562801,6.83491525 L53.615601,6.83491525 C54.0732033,6.1338948 54.693597,5.62128128 55.476801,5.29705932 C56.2600049,4.97283736 57.0739967,4.81072881 57.918801,4.81072881 C58.6052044,4.81072881 59.2827976,4.9509308 59.951601,5.23133898 C60.6204043,5.51174716 61.2231983,5.94111575 61.760001,6.51945763 C62.2968036,7.0977995 62.7323993,7.83824125 63.066801,8.74080508 C63.4012026,9.64336892 63.568401,10.7167904 63.568401,11.9611017 C63.568401,13.205413 63.4012026,14.2788345 63.066801,15.1813983 C62.7323993,16.0839621 62.2968036,16.8244039 61.760001,17.4027458 C61.2231983,17.9810876 60.6204043,18.4104562 59.951601,18.6908644 C59.2827976,18.9712726 58.6052044,19.1114746 57.918801,19.1114746 C56.9155959,19.1114746 56.0180049,18.9537473 55.226001,18.6382881 C54.433997,18.3228289 53.835603,17.7883089 53.430801,17.0347119 L53.378001,17.0347119 L53.378001,18.7697288 L49.814001,18.7697288 L49.814001,-7.10542736e-14 Z M78.3964008,18.7697288 L74.8324008,18.7697288 L74.8324008,16.8769831 L74.7532008,16.8769831 C74.2779984,17.6656311 73.6620045,18.2352016 72.9052008,18.5857119 C72.148397,18.9362221 71.3740047,19.1114746 70.5820008,19.1114746 C69.5787957,19.1114746 68.756004,18.9800352 68.1136008,18.7171525 C67.4711975,18.4542699 66.9652026,18.0818583 66.5956008,17.5999068 C66.2259989,17.1179552 65.9664015,16.5308594 65.8168008,15.8386017 C65.6672,15.146344 65.5924008,14.3796144 65.5924008,13.5383898 L65.5924008,5.17876271 L69.3412008,5.17876271 L69.3412008,12.8548983 C69.3412008,13.976531 69.517199,14.8133616 69.8692008,15.3654153 C70.2212025,15.9174689 70.8459963,16.1934915 71.7436008,16.1934915 C72.7644059,16.1934915 73.5035985,15.891181 73.9612008,15.2865508 C74.418803,14.6819207 74.6476008,13.6873629 74.6476008,12.3028475 L74.6476008,5.17876271 L78.3964008,5.17876271 L78.3964008,18.7697288 Z M80.8956005,5.17876271 L84.4596005,5.17876271 L84.4596005,7.70242373 L84.5124005,7.70242373 C84.6884014,7.28181146 84.925999,6.89187468 85.2252005,6.53260169 C85.524402,6.17332871 85.8675986,5.86663686 86.2548005,5.61251695 C86.6420025,5.35839703 87.0555983,5.16123799 87.4956005,5.0210339 C87.9356027,4.88082981 88.3931982,4.81072881 88.8684005,4.81072881 C89.1148018,4.81072881 89.387599,4.85454193 89.6868005,4.94216949 L89.6868005,8.41220339 C89.5107997,8.37715237 89.2996018,8.34648318 89.0532005,8.32019492 C88.8067993,8.29390665 88.5692017,8.28076271 88.3404005,8.28076271 C87.6539971,8.28076271 87.0732029,8.39467683 86.5980005,8.62250847 C86.1227982,8.85034012 85.740002,9.16141328 85.4496005,9.55573729 C85.1591991,9.95006129 84.9524012,10.4100991 84.8292005,10.9358644 C84.7059999,11.4616297 84.6444005,12.0312003 84.6444005,12.6445932 L84.6444005,18.7697288 L80.8956005,18.7697288 L80.8956005,5.17876271 Z M91.2884003,5.17876271 L94.8524003,5.17876271 L94.8524003,7.07150847 L94.9316003,7.07150847 C95.4068027,6.28286046 96.0227965,5.70890858 96.7796003,5.34963559 C97.5364041,4.99036261 98.3107964,4.81072881 99.1028003,4.81072881 C100.106005,4.81072881 100.928797,4.94654949 101.5712,5.21819492 C102.213604,5.48984034 102.719598,5.86663318 103.0892,6.34858475 C103.458802,6.83053631 103.7184,7.41763213 103.868,8.10988983 C104.017601,8.80214753 104.0924,9.56887715 104.0924,10.4101017 L104.0924,18.7697288 L100.3436,18.7697288 L100.3436,11.0935932 C100.3436,9.97196049 100.167602,9.13512988 99.8156003,8.58307627 C99.4635986,8.03102266 98.8388048,7.755 97.9412003,7.755 C96.9203952,7.755 96.1812026,8.05731054 95.7236003,8.66194068 C95.265998,9.26657082 95.0372003,10.2611287 95.0372003,11.6456441 L95.0372003,18.7697288 L91.2884003,18.7697288 L91.2884003,5.17876271 Z M106.6972,-7.10542736e-14 L110.446,-7.10542736e-14 L110.446,18.7697288 L106.6972,18.7697288 L106.6972,-7.10542736e-14 Z M122.238,10.5152542 C122.061999,9.56887662 121.749602,8.85034144 121.3008,8.35962712 C120.851998,7.8689128 120.170004,7.62355932 119.2548,7.62355932 C118.656397,7.62355932 118.159202,7.7243295 117.7632,7.92587288 C117.367198,8.12741626 117.050401,8.37715105 116.8128,8.67508475 C116.575199,8.97301844 116.408,9.28847291 116.3112,9.62145763 C116.214399,9.95444234 116.1572,10.2523716 116.1396,10.5152542 L122.238,10.5152542 Z M116.1396,12.8811864 C116.1924,14.0904467 116.500397,14.9667091 117.0636,15.51 C117.626803,16.0532909 118.436395,16.3249322 119.4924,16.3249322 C120.249204,16.3249322 120.900397,16.1365358 121.446,15.7597373 C121.991603,15.3829388 122.325999,14.9842394 122.4492,14.5636271 L125.7492,14.5636271 C125.221197,16.1934997 124.411605,17.3589287 123.3204,18.0599492 C122.229194,18.7609696 120.909208,19.1114746 119.3604,19.1114746 C118.286795,19.1114746 117.318804,18.9406034 116.4564,18.5988559 C115.593996,18.2571085 114.863603,17.7707828 114.2652,17.1398644 C113.666797,16.508946 113.204802,15.7553603 112.8792,14.8790847 C112.553598,14.0028092 112.3908,13.0389205 112.3908,11.9873898 C112.3908,10.9709102 112.557998,10.0245468 112.8924,9.14827119 C113.226802,8.27199562 113.701997,7.51402862 114.318,6.87434746 C114.934003,6.23466629 115.668796,5.7308154 116.5224,5.36277966 C117.376004,4.99474392 118.321995,4.81072881 119.3604,4.81072881 C120.522006,4.81072881 121.533996,5.03417573 122.3964,5.48107627 C123.258804,5.92797681 123.967197,6.52821657 124.5216,7.28181356 C125.076003,8.03541055 125.476399,8.89414772 125.7228,9.85805085 C125.969201,10.821954 126.0572,11.8296558 125.9868,12.8811864 L116.1396,12.8811864 Z M134.5844,20.4521695 C134.179598,21.5562767 133.616403,22.3449129 132.8948,22.8181017 C132.173196,23.2912905 131.170006,23.5278814 129.8852,23.5278814 C129.497998,23.5278814 129.115202,23.5147374 128.7368,23.4884492 C128.358398,23.4621609 127.975602,23.4314917 127.5884,23.3964407 L127.5884,20.3207288 C127.940401,20.3557798 128.301198,20.3908303 128.6708,20.4258814 C129.040402,20.4609324 129.409998,20.469695 129.7796,20.4521695 C130.272402,20.399593 130.637598,20.2068152 130.8752,19.8738305 C131.112801,19.5408458 131.2316,19.1728156 131.2316,18.7697288 C131.2316,18.4717951 131.1788,18.1913911 131.0732,17.9285085 L126.2948,5.17876271 L130.2812,5.17876271 L133.37,14.4847627 L133.4228,14.4847627 L136.406,5.17876271 L140.2868,5.17876271 L134.5844,20.4521695 Z M146.613999,6.59832203 L143.921199,6.59832203 L143.921199,18.7697288 L142.257999,18.7697288 L142.257999,6.59832203 L139.934799,6.59832203 L139.934799,5.20505085 L142.257999,5.20505085 L142.257999,3.96950847 C142.257999,3.3911666 142.301999,2.85664652 142.389999,2.3659322 C142.478,1.87521789 142.645198,1.45461192 142.891599,1.10410169 C143.138001,0.753591468 143.476797,0.481950116 143.907999,0.289169492 C144.339202,0.0963888666 144.889196,-7.10542736e-14 145.557999,-7.10542736e-14 C145.804401,-7.10542736e-14 146.033198,0.00876262424 146.244399,0.0262881356 C146.455601,0.0438136469 146.693198,0.0701015197 146.957199,0.105152542 L146.957199,1.52471186 C146.728398,1.48966084 146.5172,1.45899166 146.323599,1.43270339 C146.129998,1.40641512 145.9364,1.39327119 145.742799,1.39327119 C145.285197,1.39327119 144.933201,1.46337218 144.686799,1.60357627 C144.440398,1.74378036 144.26,1.93217678 144.145599,2.16877119 C144.031199,2.40536559 143.9652,2.68138825 143.947599,2.99684746 C143.929999,3.31230666 143.921199,3.65404901 143.921199,4.02208475 L143.921199,5.20505085 L146.613999,5.20505085 L146.613999,6.59832203 Z M157.455599,9.46372881 C157.226798,8.44724915 156.804402,7.64985035 156.188399,7.07150847 C155.572396,6.4931666 154.710005,6.204 153.601199,6.204 C152.809195,6.204 152.114002,6.37048986 151.515599,6.70347458 C150.917196,7.03645929 150.420001,7.4745905 150.023999,8.01788136 C149.627997,8.56117221 149.3288,9.17893722 149.126399,9.87119492 C148.923998,10.5634526 148.822799,11.2688439 148.822799,11.9873898 C148.822799,12.7059358 148.923998,13.411327 149.126399,14.1035847 C149.3288,14.7958424 149.627997,15.4136075 150.023999,15.9568983 C150.420001,16.5001892 150.917196,16.9383204 151.515599,17.2713051 C152.114002,17.6042898 152.809195,17.7707797 153.601199,17.7707797 C154.111602,17.7707797 154.595597,17.6743908 155.053199,17.4816102 C155.510802,17.2888295 155.915597,17.0215695 156.267599,16.679822 C156.619601,16.3380746 156.909998,15.9306125 157.138799,15.4574237 C157.3676,14.9842349 157.508399,14.4672401 157.561199,13.9064237 L159.224399,13.9064237 C158.995598,15.5538218 158.388404,16.8375462 157.402799,17.7576356 C156.417194,18.6777249 155.150007,19.1377627 153.601199,19.1377627 C152.562794,19.1377627 151.643203,18.9493663 150.842399,18.5725678 C150.041595,18.1957693 149.368402,17.6831558 148.822799,17.0347119 C148.277197,16.3862679 147.863601,15.6283009 147.581999,14.7607881 C147.300398,13.8932753 147.159599,12.9688185 147.159599,11.9873898 C147.159599,11.0059612 147.300398,10.0815043 147.581999,9.21399153 C147.863601,8.34647871 148.277197,7.58851172 148.822799,6.9400678 C149.368402,6.29162388 150.041595,5.77462905 150.842399,5.3890678 C151.643203,5.00350655 152.562794,4.81072881 153.601199,4.81072881 C155.062007,4.81072881 156.298394,5.19628428 157.310399,5.96740678 C158.322404,6.73852928 158.925198,7.9039583 159.118799,9.46372881 L157.455599,9.46372881 Z" id="burnleyfc" fill-rule="nonzero"></path>
                        <path d="M166.3264,12.5872373 L164.8496,12.5872373 L164.8496,11.3755932 L166.3264,11.3755932 L166.3264,12.5872373 Z M164.8496,13.4157119 L166.3264,13.4157119 L166.3264,18.7697288 L164.8496,18.7697288 L164.8496,13.4157119 Z M167.352534,13.4157119 L168.756534,13.4157119 L168.756534,14.161339 L168.787734,14.161339 C168.974934,13.8506595 169.217599,13.6245572 169.515734,13.4830254 C169.813868,13.3414936 170.118932,13.2707288 170.430934,13.2707288 C170.826135,13.2707288 171.150266,13.3242339 171.403334,13.4312458 C171.656401,13.5382576 171.855733,13.6866911 172.001334,13.8765508 C172.146934,14.0664106 172.2492,14.2976907 172.308134,14.5703983 C172.367067,14.8431059 172.396534,15.1451509 172.396534,15.4765424 L172.396534,18.7697288 L170.919734,18.7697288 L170.919734,15.7457966 C170.919734,15.3039413 170.850401,14.9742807 170.711734,14.7568051 C170.573066,14.5393294 170.326935,14.4305932 169.973334,14.4305932 C169.571198,14.4305932 169.280001,14.5496852 169.099734,14.7878729 C168.919466,15.0260605 168.829334,15.417856 168.829334,15.9632712 L168.829334,18.7697288 L167.352534,18.7697288 L167.352534,13.4157119 Z M178.0056,13.4157119 L179.0872,13.4157119 L179.0872,14.3995254 L178.0056,14.3995254 L178.0056,17.0506441 C178.0056,17.2991877 178.0472,17.4648809 178.1304,17.5477288 C178.2136,17.6305767 178.379999,17.672 178.6296,17.672 C178.7128,17.672 178.792533,17.6685481 178.8688,17.6616441 C178.945067,17.6547401 179.017866,17.6443842 179.0872,17.6305763 L179.0872,18.7697288 C178.962399,18.7904408 178.823734,18.8042486 178.6712,18.8111525 C178.518666,18.8180565 178.369601,18.8215085 178.224,18.8215085 C177.995199,18.8215085 177.778534,18.8059747 177.574,18.7749068 C177.369466,18.7438388 177.189201,18.6834298 177.0332,18.593678 C176.877199,18.5039261 176.754134,18.3762042 176.664,18.2105085 C176.573866,18.0448127 176.5288,17.8273403 176.5288,17.5580847 L176.5288,14.3995254 L175.6344,14.3995254 L175.6344,13.4157119 L176.5288,13.4157119 L176.5288,11.8105424 L178.0056,11.8105424 L178.0056,13.4157119 Z M179.655733,11.3755932 L181.132533,11.3755932 L181.132533,14.161339 L181.163733,14.161339 C181.350934,13.8506595 181.590132,13.6245572 181.881333,13.4830254 C182.172535,13.3414936 182.456799,13.2707288 182.734133,13.2707288 C183.129335,13.2707288 183.453465,13.3242339 183.706533,13.4312458 C183.959601,13.5382576 184.158933,13.6866911 184.304533,13.8765508 C184.450134,14.0664106 184.5524,14.2976907 184.611333,14.5703983 C184.670267,14.8431059 184.699733,15.1451509 184.699733,15.4765424 L184.699733,18.7697288 L183.222933,18.7697288 L183.222933,15.7457966 C183.222933,15.3039413 183.153601,14.9742807 183.014933,14.7568051 C182.876266,14.5393294 182.630135,14.4305932 182.276533,14.4305932 C181.874398,14.4305932 181.583201,14.5496852 181.402933,14.7878729 C181.222666,15.0260605 181.132533,15.417856 181.132533,15.9632712 L181.132533,18.7697288 L179.655733,18.7697288 L179.655733,11.3755932 Z M189.303466,15.5179661 C189.234133,15.1451507 189.111067,14.8620914 188.934266,14.6687797 C188.757466,14.475468 188.488802,14.3788136 188.128266,14.3788136 C187.892532,14.3788136 187.696667,14.4185109 187.540666,14.4979068 C187.384666,14.5773027 187.259867,14.675683 187.166266,14.7930508 C187.072666,14.9104187 187.0068,15.0346886 186.968666,15.1658644 C186.930533,15.2970402 186.908,15.4144063 186.901066,15.5179661 L189.303466,15.5179661 Z M186.901066,16.45 C186.921867,16.9263753 187.043199,17.2715696 187.265066,17.4855932 C187.486934,17.6996169 187.805864,17.8066271 188.221866,17.8066271 C188.520001,17.8066271 188.776532,17.7324103 188.991466,17.5839746 C189.206401,17.4355388 189.338133,17.2784754 189.386666,17.1127797 L190.686666,17.1127797 C190.478665,17.7548507 190.159735,18.2139591 189.729866,18.4901186 C189.299998,18.7662782 188.780003,18.9043559 188.169866,18.9043559 C187.746931,18.9043559 187.365602,18.837043 187.025866,18.7024153 C186.686131,18.5677875 186.398401,18.3762046 186.162666,18.127661 C185.926932,17.8791174 185.744934,17.5822503 185.616666,17.2370508 C185.488399,16.8918514 185.424266,16.5121377 185.424266,16.0978983 C185.424266,15.6974669 185.490133,15.3246571 185.621866,14.9794576 C185.7536,14.6342582 185.940799,14.3356651 186.183466,14.0836695 C186.426134,13.8316739 186.715598,13.6331872 187.051866,13.4882034 C187.388135,13.3432196 187.760798,13.2707288 188.169866,13.2707288 C188.627469,13.2707288 189.026131,13.3587534 189.365866,13.5348051 C189.705602,13.7108568 189.984665,13.9473149 190.203066,14.2441864 C190.421468,14.541058 190.579199,14.8793484 190.676266,15.2590678 C190.773334,15.6387872 190.808,16.0357606 190.780266,16.45 L186.901066,16.45 Z" id="inthe" fill-rule="nonzero"></path>
                        <path d="M77.3280011,31.4676949 C77.0591997,29.7661271 76.0512098,28.9153559 74.3040011,28.9153559 C73.6511978,28.9153559 73.1040033,29.0635239 72.6624011,29.3598644 C72.2207988,29.6562049 71.8608024,30.0385739 71.5824011,30.5069831 C71.3039997,30.9753922 71.1072016,31.4915904 70.9920011,32.0555932 C70.8768005,32.619596 70.8192011,33.1788108 70.8192011,33.7332542 C70.8192011,34.2685789 70.8768005,34.8134549 70.9920011,35.3678983 C71.1072016,35.9223418 71.2943998,36.4242011 71.5536011,36.8734915 C71.8128023,37.3227819 72.1631988,37.6908121 72.6048011,37.9775932 C73.0464033,38.2643743 73.5839979,38.4077627 74.2176011,38.4077627 C75.1968059,38.4077627 75.9503984,38.1353248 76.4784011,37.5904407 C77.0064037,37.0455566 77.3376004,36.3142758 77.4720011,35.3965763 L81.4176011,35.3965763 C81.1487997,37.3658065 80.3808074,38.866605 79.1136011,39.8990169 C77.8463947,40.9314289 76.2240109,41.4476271 74.2464011,41.4476271 C73.1327955,41.4476271 72.1104057,41.2612222 71.1792011,40.8884068 C70.2479964,40.5155914 69.4560043,39.9946135 68.8032011,39.3254576 C68.1503978,38.6563017 67.6416029,37.8581063 67.2768011,36.9308475 C66.9119992,36.0035886 66.7296011,34.985531 66.7296011,33.8766441 C66.7296011,32.7295197 66.8975994,31.6636659 67.2336011,30.6790508 C67.5696027,29.6944358 68.0639978,28.8436646 68.7168011,28.1267119 C69.3696043,27.4097591 70.1663963,26.8505444 71.1072011,26.4490508 C72.0480058,26.0475573 73.123195,25.8468136 74.3328011,25.8468136 C75.2160055,25.8468136 76.065597,25.9615243 76.8816011,26.1909492 C77.6976051,26.420374 78.4271978,26.7692858 79.0704011,27.2376949 C79.7136043,27.706104 80.236799,28.2892168 80.6400011,28.9870508 C81.0432031,29.6848848 81.2736008,30.5117579 81.3312011,31.4676949 L77.3280011,31.4676949 Z M86.9664008,33.6758983 C86.9664008,34.2685792 87.0240002,34.8469124 87.1392008,35.4109153 C87.2544014,35.9749181 87.4511994,36.4815571 87.7296008,36.9308475 C88.0080022,37.3801378 88.3775985,37.7386088 88.8384008,38.0062712 C89.2992031,38.2739335 89.8751974,38.4077627 90.5664008,38.4077627 C91.2576043,38.4077627 91.8383985,38.2739335 92.3088008,38.0062712 C92.7792032,37.7386088 93.1535994,37.3801378 93.4320008,36.9308475 C93.7104022,36.4815571 93.9072002,35.9749181 94.0224008,35.4109153 C94.1376014,34.8469124 94.1952008,34.2685792 94.1952008,33.6758983 C94.1952008,33.0832174 94.1376014,32.5001017 94.0224008,31.9265424 C93.9072002,31.3529802 93.7104022,30.8463412 93.4320008,30.4066102 C93.1535994,29.9668792 92.7792032,29.6084082 92.3088008,29.3311864 C91.8383985,29.0539647 91.2576043,28.9153559 90.5664008,28.9153559 C89.8751974,28.9153559 89.2992031,29.0539647 88.8384008,29.3311864 C88.3775985,29.6084082 88.0080022,29.9668792 87.7296008,30.4066102 C87.4511994,30.8463412 87.2544014,31.3529802 87.1392008,31.9265424 C87.0240002,32.5001017 86.9664008,33.0832174 86.9664008,33.6758983 Z M82.8768008,33.6758983 C82.8768008,32.4905364 83.059199,31.4151235 83.4240008,30.4496271 C83.7888026,29.4841308 84.3071975,28.6620373 84.9792008,27.983322 C85.6512042,27.3046068 86.4575961,26.7788493 87.3984008,26.4060339 C88.3392055,26.0332185 89.395195,25.8468136 90.5664008,25.8468136 C91.7376067,25.8468136 92.7983961,26.0332185 93.7488008,26.4060339 C94.6992056,26.7788493 95.5103975,27.3046068 96.1824008,27.983322 C96.8544042,28.6620373 97.372799,29.4841308 97.7376008,30.4496271 C98.1024026,31.4151235 98.2848008,32.4905364 98.2848008,33.6758983 C98.2848008,34.8612602 98.1024026,35.9318935 97.7376008,36.8878305 C97.372799,37.8437675 96.8544042,38.6610814 96.1824008,39.3397966 C95.5103975,40.0185119 94.6992056,40.5394897 93.7488008,40.9027458 C92.7983961,41.2660018 91.7376067,41.4476271 90.5664008,41.4476271 C89.395195,41.4476271 88.3392055,41.2660018 87.3984008,40.9027458 C86.4575961,40.5394897 85.6512042,40.0185119 84.9792008,39.3397966 C84.3071975,38.6610814 83.7888026,37.8437675 83.4240008,36.8878305 C83.059199,35.9318935 82.8768008,34.8612602 82.8768008,33.6758983 Z M100.665601,26.2483051 L104.524801,26.2483051 L104.524801,28.2557627 L104.582401,28.2557627 C105.120003,27.4910131 105.767997,26.8983411 106.526401,26.4777288 C107.284804,26.0571165 108.153596,25.8468136 109.132801,25.8468136 C110.073605,25.8468136 110.932797,26.0284389 111.710401,26.3916949 C112.488004,26.754951 113.078399,27.3954191 113.481601,28.3131186 C113.923203,27.6630815 114.523197,27.0895279 115.281601,26.5924407 C116.040004,26.0953534 116.937595,25.8468136 117.974401,25.8468136 C118.761605,25.8468136 119.491197,25.9424058 120.163201,26.1335932 C120.835204,26.3247806 121.411198,26.6306759 121.891201,27.0512881 C122.371203,27.4719004 122.745599,28.0215559 123.014401,28.7002712 C123.283202,29.3789864 123.417601,30.1963003 123.417601,31.1522373 L123.417601,41.0748136 L119.328001,41.0748136 L119.328001,32.6721695 C119.328001,32.1750823 119.308801,31.7066802 119.270401,31.2669492 C119.232,30.8272181 119.126401,30.4448491 118.953601,30.1198305 C118.7808,29.7948119 118.526402,29.5367128 118.190401,29.3455254 C117.854399,29.154338 117.398403,29.0587458 116.822401,29.0587458 C116.246398,29.0587458 115.780802,29.1686769 115.425601,29.3885424 C115.070399,29.6084079 114.792002,29.8951847 114.590401,30.2488814 C114.3888,30.602578 114.254401,31.0040656 114.187201,31.4533559 C114.12,31.9026463 114.086401,32.3567096 114.086401,32.8155593 L114.086401,41.0748136 L109.996801,41.0748136 L109.996801,32.7582034 C109.996801,32.3184724 109.987201,31.8835276 109.968001,31.4533559 C109.9488,31.0231843 109.867201,30.6264746 109.723201,30.2632203 C109.5792,29.8999643 109.339202,29.6084079 109.003201,29.3885424 C108.667199,29.1686769 108.172804,29.0587458 107.520001,29.0587458 C107.328,29.0587458 107.073602,29.1017623 106.756801,29.1877966 C106.439999,29.2738309 106.132802,29.4363378 105.835201,29.675322 C105.537599,29.9143063 105.283202,30.2584384 105.072001,30.7077288 C104.8608,31.1570192 104.755201,31.7449116 104.755201,32.4714237 L104.755201,41.0748136 L100.665601,41.0748136 L100.665601,26.2483051 Z M126.3744,26.2483051 L130.2336,26.2483051 L130.2336,28.2557627 L130.2912,28.2557627 C130.828803,27.4910131 131.476797,26.8983411 132.2352,26.4777288 C132.993604,26.0571165 133.862395,25.8468136 134.8416,25.8468136 C135.782405,25.8468136 136.641596,26.0284389 137.4192,26.3916949 C138.196804,26.754951 138.787198,27.3954191 139.1904,28.3131186 C139.632003,27.6630815 140.231997,27.0895279 140.9904,26.5924407 C141.748804,26.0953534 142.646395,25.8468136 143.6832,25.8468136 C144.470404,25.8468136 145.199997,25.9424058 145.872,26.1335932 C146.544004,26.3247806 147.119998,26.6306759 147.6,27.0512881 C148.080003,27.4719004 148.454399,28.0215559 148.7232,28.7002712 C148.992002,29.3789864 149.1264,30.1963003 149.1264,31.1522373 L149.1264,41.0748136 L145.0368,41.0748136 L145.0368,32.6721695 C145.0368,32.1750823 145.017601,31.7066802 144.9792,31.2669492 C144.9408,30.8272181 144.835201,30.4448491 144.6624,30.1198305 C144.489599,29.7948119 144.235202,29.5367128 143.8992,29.3455254 C143.563199,29.154338 143.107203,29.0587458 142.5312,29.0587458 C141.955197,29.0587458 141.489602,29.1686769 141.1344,29.3885424 C140.779199,29.6084079 140.500801,29.8951847 140.2992,30.2488814 C140.097599,30.602578 139.963201,31.0040656 139.896,31.4533559 C139.8288,31.9026463 139.7952,32.3567096 139.7952,32.8155593 L139.7952,41.0748136 L135.7056,41.0748136 L135.7056,32.7582034 C135.7056,32.3184724 135.696,31.8835276 135.6768,31.4533559 C135.6576,31.0231843 135.576001,30.6264746 135.432,30.2632203 C135.288,29.8999643 135.048002,29.6084079 134.712,29.3885424 C134.375999,29.1686769 133.881604,29.0587458 133.2288,29.0587458 C133.036799,29.0587458 132.782402,29.1017623 132.4656,29.1877966 C132.148799,29.2738309 131.841602,29.4363378 131.544,29.675322 C131.246399,29.9143063 130.992001,30.2584384 130.7808,30.7077288 C130.569599,31.1570192 130.464,31.7449116 130.464,32.4714237 L130.464,41.0748136 L126.3744,41.0748136 L126.3744,26.2483051 Z M165.936,41.0748136 L162.048,41.0748136 L162.048,39.01 L161.9616,39.01 C161.443198,39.8703433 160.771204,40.491693 159.9456,40.8740678 C159.119996,41.2564426 158.275204,41.4476271 157.4112,41.4476271 C156.316795,41.4476271 155.419204,41.3042387 154.7184,41.0174576 C154.017597,40.7306765 153.465602,40.3244094 153.0624,39.7986441 C152.659198,39.2728787 152.376001,38.6324106 152.2128,37.8772203 C152.049599,37.1220301 151.968,36.2855978 151.968,35.3678983 L151.968,26.2483051 L156.0576,26.2483051 L156.0576,34.6222712 C156.0576,35.8458705 156.249598,36.7587766 156.6336,37.3610169 C157.017602,37.9632572 157.699195,38.2643729 158.6784,38.2643729 C159.792006,38.2643729 160.598398,37.9345796 161.0976,37.2749831 C161.596803,36.6153865 161.8464,35.5304143 161.8464,34.0200339 L161.8464,26.2483051 L165.936,26.2483051 L165.936,41.0748136 Z M168.6624,26.2483051 L172.5504,26.2483051 L172.5504,28.3131186 L172.6368,28.3131186 C173.155202,27.4527754 173.827196,26.826646 174.6528,26.4347119 C175.478404,26.0427777 176.323196,25.8468136 177.1872,25.8468136 C178.281605,25.8468136 179.179196,25.9949816 179.88,26.291322 C180.580803,26.5876625 181.132798,26.9987092 181.536,27.5244746 C181.939202,28.0502399 182.222399,28.6907081 182.3856,29.4458983 C182.548801,30.2010885 182.6304,31.0375208 182.6304,31.9552203 L182.6304,41.0748136 L178.5408,41.0748136 L178.5408,32.7008475 C178.5408,31.4772481 178.348802,30.564342 177.9648,29.9621017 C177.580798,29.3598614 176.899205,29.0587458 175.92,29.0587458 C174.806394,29.0587458 174.000002,29.3885391 173.5008,30.0481356 C173.001597,30.7077321 172.752,31.7927043 172.752,33.3030847 L172.752,41.0748136 L168.6624,41.0748136 L168.6624,26.2483051 Z M189.5616,23.9540678 L185.472,23.9540678 L185.472,20.5987458 L189.5616,20.5987458 L189.5616,23.9540678 Z M185.472,26.2483051 L189.5616,26.2483051 L189.5616,41.0748136 L185.472,41.0748136 L185.472,26.2483051 Z M197.587199,26.2483051 L200.582399,26.2483051 L200.582399,28.9727119 L197.587199,28.9727119 L197.587199,36.3142712 C197.587199,37.0025458 197.702398,37.4613887 197.932799,37.6908136 C198.163201,37.9202384 198.623996,38.0349492 199.315199,38.0349492 C199.545601,38.0349492 199.766398,38.0253899 199.977599,38.0062712 C200.1888,37.9871524 200.390398,37.9584748 200.582399,37.9202373 L200.582399,41.0748136 C200.236798,41.1321698 199.852802,41.1704067 199.430399,41.1895254 C199.007997,41.2086442 198.595201,41.2182034 198.191999,41.2182034 C197.558396,41.2182034 196.958402,41.1751869 196.391999,41.0891525 C195.825597,41.0031182 195.326402,40.8358318 194.894399,40.5872881 C194.462397,40.3387445 194.121601,39.9850531 193.871999,39.5262034 C193.622398,39.0673536 193.497599,38.4651224 193.497599,37.7194915 L193.497599,28.9727119 L191.020799,28.9727119 L191.020799,26.2483051 L193.497599,26.2483051 L193.497599,21.8032203 L197.587199,21.8032203 L197.587199,26.2483051 Z M209.500799,42.9102034 C209.059197,44.114684 208.444803,44.9750144 207.657599,45.4912203 C206.870395,46.0074263 205.776006,46.2655254 204.374399,46.2655254 C203.951997,46.2655254 203.534401,46.2511866 203.121599,46.2225085 C202.708797,46.1938304 202.291201,46.1603731 201.868799,46.1221356 L201.868799,42.7668136 C202.252801,42.805051 202.646397,42.8432879 203.049599,42.8815254 C203.452801,42.9197629 203.855997,42.9293221 204.259199,42.9102034 C204.796802,42.8528472 205.195198,42.6425442 205.454399,42.2792881 C205.7136,41.9160321 205.843199,41.5145446 205.843199,41.0748136 C205.843199,40.749795 205.7856,40.4438997 205.670399,40.1571186 L200.457599,26.2483051 L204.806399,26.2483051 L208.175999,36.4003051 L208.233599,36.4003051 L211.487999,26.2483051 L215.721599,26.2483051 L209.500799,42.9102034 Z" id="community" fill-rule="nonzero"></path>
                        <path d="M0,2.04091525 L41.6,2.04091525 C41.6,9.4759435 41.6,16.9109718 41.6,24.346 C41.6,31.7810282 34.6666667,38.4194463 20.8,44.2612542 C6.93333333,37.763005 0,31.124587 0,24.346 C0,17.9731186 0,10.5380904 0,2.04091525 Z" id="Rectangle"></path>
                    </g>
                </g>
            </g>
        </g>
    </g>
</svg>