<?xml version="1.0" encoding="UTF-8"?>
<svg width="149px" height="40px" viewBox="0 0 149 40" version="1.1" xmlns="http://www.w3.org/2000/svg" xmlns:xlink="http://www.w3.org/1999/xlink">
    <!-- Generator: Sketch 59.1 (86144) - https://sketch.com -->
    <title>drupal 8 logo inline</title>
    <desc>Created with Sketch.</desc>
    <g id="Pages" stroke="none" stroke-width="1" fill="none" fill-rule="evenodd">
        <g id="01-Home--Clients-Tech" transform="translate(-1237.000000, -2562.000000)" fill="#474747" fill-rule="nonzero">
            <g id="Assurance-Block" transform="translate(427.000000, 2558.000000)">
                <g id="drupal-8-logo-inline" transform="translate(810.000000, 4.000000)">
                    <g id="Group" transform="translate(0.500000, 12.500000)">
                        <path d="M46.6892564,13.7136502 C46.6892564,16.145857 45.6128906,18.1145851 43.1064033,18.1145851 C40.5977591,18.1145851 39.5142031,16.145857 39.5142031,13.7136502 L39.5142031,5.39920782 L34.9383899,5.39920782 L34.9383899,13.7136502 C34.9383899,18.5203051 38.1236275,22.4147944 43.0805188,22.4147944 C48.0323769,22.4147944 51.2657886,18.5210095 51.2657886,13.7136502 L51.2657886,5.38934657 L46.6791902,5.38934657 L46.6892564,13.7136502 Z" id="Path"></path>
                        <rect id="Rectangle" x="92.6149186" y="0.319255411" width="4.56143286" height="21.6665746"></rect>
                        <polygon id="Path" points="100.544938 1.11872102 101.846356 1.11872102 101.846356 4.55043596 102.801927 4.55043596 102.801927 1.11872102 104.101907 1.11872102 104.101907 0.340386661 100.544938 0.340386661"></polygon>
                        <polygon id="Path" points="107.929944 0.340386661 106.970058 3.23607224 106.957835 3.23607224 105.943305 0.340386661 104.600903 0.340386661 104.600903 4.55043596 105.493201 4.55043596 105.493201 1.59628726 105.504705 1.59628726 106.566691 4.55043596 107.30512 4.55043596 108.368543 1.56459039 108.378609 1.56459039 108.378609 4.55043596 109.273064 4.55043596 109.273064 0.340386661"></polygon>
                        <path d="M24.6924223,8.32377277 C24.6428103,8.42308965 24.6413722,8.47943965 24.4659325,8.4780309 C24.3228485,8.4723959 24.3055921,8.32377277 24.3055921,8.32377277 L23.8180998,5.42386095 L19.730498,5.42386095 L19.730498,21.9731513 L24.3113442,21.9731513 L24.3113442,13.0149102 C24.3113442,12.2816558 26.3440004,8.77386839 30.281328,9.67335525 C32.2708433,10.1326077 33.1149672,10.9525002 33.1149672,10.9525002 C33.1149672,10.9525002 33.1149672,7.75675091 33.1149672,5.91199282 C32.3779765,5.53867407 31.8725088,5.3576497 31.2088577,5.20902658 C27.2780012,4.32855784 24.7966795,8.11809528 24.6924223,8.32377277 Z" id="Path"></path>
                        <path d="M61.9208759,5.07660408 C56.934505,5.07660408 52.8914821,8.99856401 52.8914821,13.8376202 C52.8914821,13.8376202 52.8914821,25.8141081 52.8914821,27.4229006 L57.4845517,27.4229006 L57.4845517,21.4681144 L57.4874277,19.2373588 C57.4874277,19.2373588 57.4938989,19.0605607 57.6599914,19.0563345 C57.8073895,19.0563345 57.8397452,19.1521295 57.877134,19.2373588 C58.2236993,20.0769738 60.13628,23.2727231 64.376313,22.2703975 C68.1712756,21.2321488 70.9531457,17.8525576 70.9531457,13.8376202 C70.9524266,8.99856401 66.9101228,5.07660408 61.9208759,5.07660408 Z M61.925909,18.2716607 C59.3992893,18.2716607 57.3558479,16.2881408 57.3558479,13.8376202 C57.3558479,11.3899171 59.3992893,9.40217088 61.925909,9.40217088 C64.4510906,9.40217088 66.4974082,11.3899171 66.4974082,13.8376202 C66.4981271,16.2881408 64.4518096,18.2716607 61.925909,18.2716607 Z" id="Shape"></path>
                        <path d="M81.7304655,5.07660408 C76.7419376,5.07660408 72.6981957,8.99856401 72.6981957,13.8376202 C72.6981957,17.8518532 75.4815038,21.2321488 79.2786234,22.2703975 C83.5186565,23.2734275 85.4297991,20.0776782 85.7749264,19.2373588 C85.8130342,19.1521295 85.8453899,19.0563345 85.993507,19.0563345 C86.1595996,19.0605607 86.1653517,19.2373588 86.1653517,19.2373588 L86.1689467,21.9787863 L90.7627353,21.9787863 L90.7627353,13.8376202 C90.7620163,8.99856401 86.7197124,5.07660408 81.7304655,5.07660408 Z M81.7283085,18.2716607 C79.2024078,18.2716607 77.1553714,16.2881408 77.1553714,13.8376202 C77.1553714,11.3899171 79.2031268,9.40217088 81.7283085,9.40217088 C84.251333,9.40217088 86.2983695,11.3899171 86.2983695,13.8376202 C86.2983695,16.2881408 84.251333,18.2716607 81.7283085,18.2716607 Z" id="Shape"></path>
                        <path d="M5.75859328,0.308689786 L0.166811542,0.308689786 L0.166811542,21.9449763 L5.37895322,21.9449763 C12.2246976,21.9449763 17.6662051,20.6475176 17.6662051,11.1271852 C17.6654861,1.51528414 12.5295601,0.308689786 5.75859328,0.308689786 Z M6.67174267,18.2378507 L4.7800135,18.1906576 L4.7800135,4.06089535 L6.62284963,4.06089535 C10.8441883,4.06089535 13.0501271,4.63425659 13.0501271,11.1264809 C13.0501271,17.8948201 10.5529871,18.2378507 6.67174267,18.2378507 Z" id="Shape"></path>
                    </g>
                    <g id="Group" transform="translate(118.500000, 0.500000)">
                        <ellipse id="Oval" cx="13.9455439" cy="26.2402303" rx="5.2559705" ry="5.32973851"></ellipse>
                        <path d="M20.4798379,19.8933549 C22.0377496,21.5425488 22.9975731,23.776304 22.9975731,26.2402303 C22.9975731,29.3603267 21.4605585,32.1143416 19.1143232,33.7730345 C23.4508231,32.4175828 27.0364701,29.1133495 28.6426613,25.1112961 C30.8635142,19.5754997 28.7961466,15.4083076 25.3250731,11.6305796 C25.430279,12.1194191 25.4900878,12.6257954 25.4900878,13.1475164 C25.4900878,16.3501822 23.372279,19.0515865 20.4798379,19.8933549 Z" id="Path"></path>
                        <ellipse id="Oval" cx="18.5659556" cy="13.146055" rx="4.02088228" ry="4.07731572"></ellipse>
                        <path d="M7.01997047,32.1508766 C5.69192637,30.5535626 4.89135286,28.492253 4.89135286,26.2394996 C4.89135286,21.5403567 8.37467633,17.6690988 12.863941,17.1276488 C12.0943527,15.9957918 11.6411027,14.6242647 11.6411027,13.146055 C11.6411027,9.26822089 14.7417939,6.1254727 18.5659556,6.1254727 C18.8815732,6.1254727 19.1914261,6.14812446 19.4955144,6.19050516 C17.2307056,4.20811133 14.9702203,2.19795084 13.1860439,-2.44426701e-12 C14.097588,9.62480334 4.54042639,6.12766481 1.00810292,14.9976533 C-1.36263233,20.9492189 0.77463234,28.3073855 7.01997047,32.1508766 Z" id="Path"></path>
                    </g>
                </g>
            </g>
        </g>
    </g>
</svg>