<?xml version="1.0" encoding="UTF-8"?>
<svg width="205px" height="31px" viewBox="0 0 205 31" version="1.1" xmlns="http://www.w3.org/2000/svg" xmlns:xlink="http://www.w3.org/1999/xlink">
    <!-- Generator: Sketch 59.1 (86144) - https://sketch.com -->
    <title>brands/google-partners</title>
    <desc>Created with Sketch.</desc>
    <g id="Pages" stroke="none" stroke-width="1" fill="none" fill-rule="evenodd">
        <g id="01-Home--Clients-Tech" transform="translate(-792.000000, -2567.000000)">
            <g id="Assurance-Block" transform="translate(427.000000, 2558.000000)">
                <g id="brands/google-partners" transform="translate(365.000000, 9.000000)">
                    <g id="google-partners">
                        <g id="XMLID_20_" opacity="0.54" transform="translate(101.723485, 2.325000)" fill="#474747" fill-rule="nonzero">
                            <path d="M0.543560606,21.0025 L0.543560606,0.2325 L7.6875,0.2325 C11.1818182,0.2325 14.2102273,2.79 14.2102273,6.4325 C14.2102273,10.075 11.1818182,12.6325 7.6875,12.6325 L3.26136364,12.6325 L3.26136364,20.925 L0.543560606,21.0025 L0.543560606,21.0025 Z M7.76515152,9.9975 C10.1723485,9.9975 11.4924242,7.9825 11.4924242,6.355 C11.4924242,4.7275 10.1723485,2.7125 7.76515152,2.7125 L3.26136364,2.7125 L3.26136364,9.9975 C3.26136364,9.9975 7.76515152,9.9975 7.76515152,9.9975 Z" id="Shape"></path>
                            <path d="M14.9867424,16.6625 C14.9867424,13.4075 17.9375,11.7025 21.2765152,11.7025 C23.217803,11.7025 24.6155303,12.245 25.1590909,12.555 L25.1590909,12.1675 C25.1590909,9.9975 23.4507576,8.68 21.4318182,8.68 C19.9564394,8.68 18.4810606,9.3775 18.0151515,10.695 L15.6079545,9.6875 C16.0738636,8.37 17.782197,6.2 21.4318182,6.2 C24.9261364,6.2 27.7992424,8.2925 27.7992424,12.3225 L27.7992424,20.925 L25.2367424,20.925 L25.2367424,18.91 L25.1590909,18.91 C24.3825758,20.15 22.907197,21.3125 20.5,21.3125 C17.3939394,21.4675 14.9867424,19.6075 14.9867424,16.6625 Z M25.0814394,14.8025 C25.0814394,14.8025 23.9166667,13.8725 21.6647727,13.8725 C18.8693182,13.8725 17.782197,15.345 17.782197,16.6625 C17.782197,18.135 19.4128788,18.91 20.7329545,18.91 C22.8295455,18.9875 25.0814394,17.1275 25.0814394,14.8025 Z" id="Shape"></path>
                            <path d="M33.0018939,9.0675 L33.0795455,9.0675 C33.7784091,7.3625 35.6420455,6.355 37.5833333,6.355 C38.1268939,6.355 38.282197,6.4325 38.5151515,6.4325 L38.5151515,9.0675 C37.9715909,8.99 37.9715909,8.99 37.4280303,8.99 C34.9431818,8.99 33.0018939,10.54 33.0018939,13.175 L33.0018939,21.0025 L30.2840909,21.0025 L30.2840909,6.7425 L32.8465909,6.7425 L32.8465909,9.0675 L33.0018939,9.0675 Z M43.0189394,16.6625 L43.0189394,9.145 L40.5340909,9.145 L40.5340909,6.7425 L43.0189394,6.7425 L43.0189394,2.4025 L45.7367424,2.4025 L45.7367424,6.7425 L49.2310606,6.7425 L49.2310606,9.145 L45.7367424,9.145 L45.7367424,16.43 C45.7367424,18.0575 46.4356061,18.755 47.6780303,18.755 C48.1439394,18.755 48.532197,18.6775 48.9204545,18.5225 L49.8522727,20.8475 C49.2310606,21.1575 48.6098485,21.235 47.6780303,21.235 C44.6496212,21.235 43.0189394,19.53 43.0189394,16.6625 Z" id="Shape"></path>
                            <path d="M54.0454545,8.7575 L54.1231061,8.7575 C54.8996212,7.44 56.6856061,6.355 58.6268939,6.355 C62.2765152,6.355 64.0625,8.835 64.0625,12.3225 L64.0625,21.0025 L61.344697,21.0025 L61.344697,12.71 C61.344697,9.765 59.8693182,8.7575 57.8503788,8.7575 C55.5208333,8.7575 54.1231061,10.9275 54.1231061,13.175 L54.1231061,21.08 L51.405303,21.08 L51.405303,6.82 L53.967803,6.82 L54.0454545,8.7575 L54.0454545,8.7575 Z" id="Path"></path>
                            <path d="M66.1590909,13.8725 C66.1590909,9.8425 68.9545455,6.2775 73.1477273,6.2775 C77.4185606,6.2775 80.1363636,9.2225 80.1363636,13.8725 C80.1363636,14.105 80.0587121,14.3375 80.0587121,14.3375 L68.7992424,14.3375 C68.9545455,17.36 71.1287879,18.9875 73.3030303,18.9875 C74.9337121,18.9875 76.4090909,18.29 77.1856061,16.585 L79.592803,17.5925 C78.7386364,19.6075 76.6420455,21.4675 73.3806818,21.4675 C69.032197,21.4675 66.1590909,18.135 66.1590909,13.8725 Z M73.0700758,8.7575 C71.0511364,8.7575 69.5757576,10.075 68.9545455,12.1675 L77.2632576,12.1675 C77.1856061,10.85 76.1761364,8.7575 73.0700758,8.7575 Z" id="Shape"></path>
                            <path d="M82.3106061,21.0025 L82.3106061,6.7425 L84.8731061,6.7425 L84.8731061,9.0675 L84.9507576,9.0675 C85.5719697,7.44 87.5909091,6.355 89.0662879,6.355 C89.9204545,6.355 90.4640152,6.4325 91.0852273,6.665 L90.0757576,9.145 C89.6875,8.99 89.2215909,8.9125 88.6780303,8.9125 C86.8920455,8.9125 84.9507576,10.4625 84.9507576,13.0975 L84.9507576,20.925 L82.3106061,21.0025 L82.3106061,21.0025 Z" id="Path"></path>
                            <path d="M91.4734848,17.36 L93.8806818,16.3525 C94.657197,18.135 96.0549242,19.065 97.7632576,19.065 C99.3939394,19.065 100.636364,18.2125 100.636364,17.05 C100.636364,16.3525 100.170455,15.5775 98.6950758,15.19 L95.8219697,14.4925 C94.5018939,14.1825 92.0170455,13.0975 92.0170455,10.54 C92.0170455,7.9825 94.7348485,6.2775 97.6079545,6.2775 C100.092803,6.2775 102.267045,7.44 103.121212,9.61 L100.791667,10.54 C100.248106,9.2225 98.9280303,8.68 97.530303,8.68 C96.0549242,8.68 94.7348485,9.3775 94.7348485,10.4625 C94.7348485,11.315 95.5113636,11.8575 96.5984848,12.09 L99.3939394,12.7875 C102.189394,13.485 103.276515,15.19 103.276515,16.9725 C103.276515,19.53 101.024621,21.4675 97.6856061,21.4675 C94.2689394,21.4675 92.3276515,19.375 91.4734848,17.36 Z" id="Path"></path>
                        </g>
                        <g id="Group">
                            <g fill="#474747" fill-rule="nonzero">
                                <path d="M12.1912879,23.405 C5.82386364,23.405 0.388257576,18.2125 0.388257576,11.78 C0.388257576,5.425 5.82386364,0.155 12.1912879,0.155 C15.6856061,0.155 18.2481061,1.55 20.1893939,3.3325 L17.9375,5.58 C16.5397727,4.34 14.7537879,3.3325 12.1912879,3.3325 C7.53219697,3.3325 3.88257576,7.0525 3.88257576,11.78 C3.88257576,16.5075 7.53219697,20.2275 12.1912879,20.2275 C15.219697,20.2275 16.9280303,18.9875 18.092803,17.9025 C18.9469697,17.05 19.5681818,15.7325 19.8011364,13.8725 L12.1912879,13.8725 L12.1912879,10.7725 L22.907197,10.7725 C22.9848485,11.315 23.0625,12.0125 23.0625,12.7875 C23.0625,15.19 22.3636364,18.135 20.2670455,20.2275 C18.2481061,22.2425 15.6079545,23.405 12.1912879,23.405 Z" id="Path"></path>
                                <path d="M39.1363636,15.8875 C39.1363636,20.15 35.7973485,23.405 31.6041667,23.405 C27.4109848,23.405 24.0719697,20.2275 24.0719697,15.8875 C24.0719697,11.5475 27.4109848,8.37 31.6041667,8.37 C35.7973485,8.37 39.1363636,11.5475 39.1363636,15.8875 Z M35.875,15.8875 C35.875,13.175 33.9337121,11.3925 31.6818182,11.3925 C29.4299242,11.3925 27.4886364,13.175 27.4886364,15.8875 C27.4886364,18.5225 29.4299242,20.3825 31.6818182,20.3825 C33.9337121,20.3825 35.875,18.5225 35.875,15.8875 Z" id="Shape"></path>
                                <path d="M55.2878788,15.8875 C55.2878788,20.15 51.9488636,23.405 47.7556818,23.405 C43.5625,23.405 40.2234848,20.2275 40.2234848,15.8875 C40.2234848,11.5475 43.5625,8.37 47.7556818,8.37 C51.9488636,8.37 55.2878788,11.5475 55.2878788,15.8875 Z M52.0265152,15.8875 C52.0265152,13.175 50.0852273,11.3925 47.8333333,11.3925 C45.5814394,11.3925 43.6401515,13.175 43.6401515,15.8875 C43.6401515,18.5225 45.5814394,20.3825 47.8333333,20.3825 C50.0852273,20.3825 52.0265152,18.5225 52.0265152,15.8875 Z" id="Shape"></path>
                                <path d="M70.8958333,8.835 L70.8958333,22.2425 C70.8958333,27.745 67.6344697,30.07 63.7518939,30.07 C60.1022727,30.07 57.9280303,27.6675 57.1515152,25.6525 L60.0246212,24.4125 C60.4905303,25.6525 61.8106061,27.0475 63.7518939,27.0475 C66.2367424,27.0475 67.7897727,25.4975 67.7897727,22.63 L67.7897727,21.545 L67.7121212,21.545 C67.0132576,22.3975 65.5378788,23.25 63.7518939,23.25 C60.0246212,23.25 56.6079545,19.995 56.6079545,15.81 C56.6079545,11.5475 60.0246212,8.2925 63.7518939,8.2925 C65.5378788,8.2925 66.9356061,9.0675 67.7121212,9.92 L67.7897727,9.92 L67.7897727,8.68 C67.7897727,8.835 70.8958333,8.835 70.8958333,8.835 Z M68.0227273,15.965 C68.0227273,13.33 66.2367424,11.3925 63.9848485,11.3925 C61.7329545,11.3925 59.7916667,13.33 59.7916667,15.965 C59.7916667,18.5225 61.655303,20.46 63.9848485,20.46 C66.2367424,20.3825 68.0227273,18.5225 68.0227273,15.965 Z" id="Shape"></path>
                                <polygon id="Path" points="76.4090909 0.93 76.4090909 22.8625 73.0700758 22.8625 73.0700758 0.93"></polygon>
                                <path d="M88.9886364,18.3675 L91.5511364,20.0725 C90.6969697,21.3125 88.7556818,23.405 85.3390152,23.405 C81.0681818,23.405 77.8844697,20.0725 77.8844697,15.8875 C77.8844697,11.3925 81.0681818,8.37 84.9507576,8.37 C88.8333333,8.37 90.7746212,11.47 91.3181818,13.0975 L91.6287879,13.95 L81.6117424,18.0575 C82.3882576,19.53 83.6306818,20.305 85.2613636,20.305 C86.8920455,20.3825 88.0568182,19.6075 88.9886364,18.3675 Z M81.0681818,15.655 L87.7462121,12.865 C87.3579545,11.935 86.2708333,11.2375 84.9507576,11.2375 C83.3200758,11.315 80.9905303,12.7875 81.0681818,15.655 Z" id="Shape"></path>
                            </g>
                            <rect id="Rectangle" x="0.15530303" y="0.0775" width="94.5795455" height="30.69"></rect>
                        </g>
                    </g>
                </g>
            </g>
        </g>
    </g>
</svg>