<?xml version="1.0" encoding="UTF-8"?>
<svg width="123px" height="77px" viewBox="0 0 123 77" version="1.1" xmlns="http://www.w3.org/2000/svg" xmlns:xlink="http://www.w3.org/1999/xlink">
    <!-- Generator: Sketch 64 (93537) - https://sketch.com -->
    <title>icon-WordPress</title>
    <desc>Created with Sketch.</desc>
    <g id="Desktop" stroke="none" stroke-width="1" fill="none" fill-rule="evenodd">
        <g id="OurWork-Index--Single-23es" transform="translate(-417.000000, -875.000000)">
            <g id="icon-WordPress" transform="translate(417.000000, 875.000000)">
                <g id="WordPress">
                    <path d="M43.6388671,68.7904895 C44.9146511,67.3078901 44.0148638,65.3473796 41.9322453,65.0719926 L40.7686952,64.9181373 L40.7686952,67.3094493 L40.7686952,69.7007614 L41.9241617,69.5705753 C42.7707833,69.4751871 43.2291094,69.2666747 43.6388671,68.7904895 L43.6388671,68.7904895 Z M57.6681438,73.9235124 C59.0104407,73.2296531 59.6304546,71.8801526 59.6304546,69.6524178 C59.6304546,67.9633629 58.8529641,66.2823433 57.7932703,65.6802307 C57.3890897,65.450578 56.3694534,65.1859022 55.5274096,65.0920615 L53.9964226,64.9214478 L53.9964226,69.4708462 C53.9964226,73.5413325 54.0415497,74.0476082 54.425099,74.2802071 C54.9298534,74.5863036 56.7795227,74.3828531 57.6681438,73.9235124 L57.6681438,73.9235124 Z M35.869537,75.2688797 C35.869537,74.8900887 36.0328436,74.7791566 36.5905226,74.7791566 C37.9003008,74.7791566 38.0741582,74.1845544 38.0741582,69.705018 C38.0741582,66.0457678 38.0340282,65.6791709 37.5842424,65.229564 C37.3147887,64.9602163 36.8187489,64.7398409 36.4819318,64.7398409 C36.0245894,64.7398409 35.869537,64.6106245 35.869537,64.2294789 C35.869537,63.7292052 35.9506357,63.7207781 39.972582,63.8031828 C43.664429,63.8788195 44.1794559,63.9424777 45.1116501,64.4383771 C47.4130023,65.6626222 47.5365532,68.7453331 45.338683,70.103157 C44.8816523,70.3855059 44.3032224,70.6165181 44.053285,70.6165181 C43.4606553,70.6165181 46.6673445,73.8819055 47.776755,74.408162 C48.8285396,74.9070527 50.4154103,74.8895206 50.8432166,74.3742339 C51.099809,74.0651795 51.1794066,72.958993 51.1794066,69.7021287 C51.1794066,65.7606942 51.1431097,65.4084187 50.7039119,65.0873954 C50.4423909,64.8962389 49.9187924,64.7398409 49.5403618,64.7398409 C49.015613,64.7398409 48.8523064,64.6236081 48.8523064,64.2501178 C48.8523064,63.7810708 49.015613,63.7603947 52.7201684,63.7603947 C57.0747244,63.7603947 58.9153343,64.096572 60.4744228,65.176668 C63.5001861,67.2728396 63.4033434,72.3587491 60.297814,74.4519432 C58.6228545,75.5809117 57.3390438,75.758642 50.8611534,75.7583873 L45.0554587,75.7583873 L43.1195054,73.3100069 C42.0547321,71.9633859 41.0902113,70.8616147 40.9761237,70.8616147 C40.8620399,70.8616147 40.7686952,71.4982273 40.7686952,72.2762994 C40.7686952,74.0071963 41.2264001,74.7793917 42.2523328,74.7793917 C42.8100119,74.7793917 42.9733165,74.8903237 42.9733165,75.2691148 C42.9733165,75.7363302 42.8100119,75.7588379 39.4214267,75.7588379 C36.0328436,75.7588379 35.869537,75.7363498 35.869537,75.2691148 L35.869537,75.2688797 Z M30.6674735,74.1368162 C33.0632697,72.3920111 33.0582628,67.1349022 30.6591646,65.427275 C29.593533,64.6687762 27.4672042,64.5484434 26.3161666,65.1814908 C25.0379527,65.8844805 24.1115453,67.8015172 24.1115453,69.7435573 C24.1115453,71.7108455 25.0489914,73.6691894 26.3161666,74.3490622 C27.4376153,74.950736 29.7014869,74.8403132 30.6674618,74.1368162 L30.6674735,74.1368162 Z M26.4386573,76.0339447 C24.2508323,75.4534269 22.0097437,73.4769633 21.4601385,71.6432637 C20.5231177,68.5169988 22.092469,65.3803478 25.3239008,63.920779 C26.9239659,63.1980652 29.6714453,63.2277562 31.3934347,63.9863725 C32.8051174,64.6082836 34.487263,66.2621569 35.0308657,67.5626714 C35.5181752,68.7285102 35.4641277,71.0201949 34.9213029,72.2081103 C34.3799734,73.3927701 32.5728875,75.1033141 31.2931117,75.6424601 C30.2088574,76.0992346 27.5061995,76.3172005 26.4386573,76.0339447 L26.4386573,76.0339447 Z M5.51428995,69.9431488 C2.88161849,61.7838096 2.63360213,61.3117792 0.979138349,61.3117792 C0.513944849,61.3117792 0.350639639,61.1845315 0.350639639,60.8220561 C0.350639639,60.3527368 0.513944849,60.332333 4.26996626,60.332333 C8.02598748,60.332333 8.18929289,60.352729 8.18929289,60.8220561 C8.18929289,61.2002986 8.02598748,61.3117792 7.47191619,61.3117792 C6.81905397,61.3117792 5.98510925,61.8363627 5.98437477,62.247501 C5.98421173,62.3388852 6.55585904,64.2090006 7.25470261,66.4033088 C8.21035907,69.4039892 8.58185793,70.2919864 8.75338079,69.9856137 C8.87881022,69.7615712 9.66648729,67.525476 10.5037746,65.0165149 C12.55924,58.857238 12.49851,58.8551029 14.5531053,65.1588284 C15.4217339,67.8238721 16.1957774,70.0856778 16.2732037,70.1850622 C16.3506396,70.2844447 17.0134116,68.545675 17.7460494,66.3211274 C19.2279958,61.8214164 19.2220462,61.4913195 17.6566045,61.3582128 C16.9615295,61.299113 16.7628197,61.1766274 16.7628197,60.8072743 C16.7628197,60.359877 16.961702,60.332333 20.1922305,60.332333 C23.4583366,60.332333 23.6216413,60.3556438 23.6216413,60.8220561 C23.6216413,61.2205046 23.4583366,61.3117792 22.7454464,61.3117792 C21.1186789,61.3117792 20.7691475,61.9459197 18.250941,69.4659332 C16.4911378,74.7211538 15.8855039,76.2565337 15.5948172,76.1996278 C15.3391576,76.1495781 14.7121182,74.5537077 13.641658,71.2286641 C12.7745207,68.5351949 11.9885919,66.2507268 11.8951473,66.152075 C11.8017047,66.0534232 10.9601645,68.2847231 10.0250602,71.1105214 C8.76425693,74.9205494 8.22457741,76.2483259 7.93678752,76.2483259 C7.64536658,76.2483259 7.04197939,74.6778623 5.51428995,69.9431488 L5.51428995,69.9431488 Z" id="path4187" fill="#21759A" fill-rule="nonzero"></path>
                    <path d="M83.9848152,69.2934743 C85.8012232,68.5348306 85.6186629,65.7756503 83.7171369,65.2478405 C81.6848857,64.683746 81.6766669,64.6920557 81.6766669,67.3108872 L81.6766669,69.6370719 L82.4194087,69.6370719 C82.8279162,69.6370719 83.5323485,69.4824545 83.9848152,69.2934743 L83.9848152,69.2934743 Z M76.7775086,75.2688797 C76.7775086,74.8906372 76.9408152,74.7791566 77.4948865,74.7791566 C77.8894451,74.7791566 78.3766017,74.6148839 78.5774594,74.414117 C79.0734678,73.9183017 79.320499,71.3128573 79.1633399,68.2347909 C79.0185561,65.3990826 78.6999814,64.7398409 77.4744178,64.7398409 C76.9298626,64.7398409 76.7775086,64.6274847 76.7775086,64.2258882 C76.7775086,63.7202296 76.8457029,63.713393 81.0030326,63.8022876 C85.451094,63.8973996 85.8417823,63.984919 87.1150794,65.1714652 C88.8111622,66.7519936 87.8885546,69.9907558 85.5990467,70.4934174 L84.8656368,70.6544383 L86.0269293,71.9994295 C88.2184698,74.5376643 90.4642263,75.4828299 91.3386164,74.2349567 C91.6458308,73.7965174 91.7199414,72.9161128 91.7199414,69.705018 C91.7199414,66.0457678 91.6798114,65.6791709 91.2300255,65.229564 C90.9605718,64.9602163 90.464532,64.7398409 90.1277149,64.7398409 C89.6786267,64.7398409 89.5153201,64.6092494 89.5153201,64.2501178 C89.5153201,63.7756525 89.6786267,63.7603947 94.757055,63.7603947 L99.9987899,63.7603947 L100.172447,65.4889292 C100.267959,66.4396208 100.283901,67.2796409 100.207874,67.35564 C99.9035992,67.6597933 99.374886,67.1885054 99.2347779,66.4882327 C99.0417883,65.5236721 98.6064687,65.3174262 96.3129022,65.103901 L94.4144784,64.9271659 L94.4144784,66.9177198 L94.4144784,68.9082758 L95.4555495,68.7538641 C96.6016351,68.5838793 97.1090155,68.1267267 97.1090155,67.2640873 C97.1090155,66.8619756 97.2504738,66.6987333 97.5989313,66.6987333 C98.0604477,66.6987333 98.0888471,66.8619756 98.0888471,69.5146411 C98.0888471,72.1673066 98.0604477,72.3305411 97.5989313,72.3305411 C97.2199853,72.3305411 97.1090155,72.1673066 97.1090155,71.609845 C97.1090155,70.7263003 96.3443294,70.126795 95.217327,70.126795 L94.4144784,70.126795 L94.4144784,71.6912762 C94.4144784,73.9025131 94.8637881,74.4163893 96.7816517,74.3986222 C98.9606171,74.3784456 99.4807333,74.1721546 99.8371803,73.1868121 C100.044997,72.6123278 100.302032,72.3305411 100.618257,72.3305411 C101.015496,72.3305411 101.065517,72.4508171 100.936483,73.0957432 C100.85228,73.5165917 100.783384,74.2879056 100.783384,74.8097741 L100.783384,75.7586028 L93.3734073,75.7468494 L85.9634304,75.7350961 L84.0438481,73.2981556 C82.9880775,71.9578422 82.0235547,70.8612229 81.9004663,70.8612229 C81.4030724,70.8612229 81.8967625,74.212782 82.4453429,74.5602112 C82.6288438,74.6764323 83.0821139,74.7732016 83.4526118,74.7752584 C83.9616911,74.7780008 84.126246,74.8986294 84.126246,75.268723 C84.126246,75.7366828 83.9629414,75.7584461 80.4518773,75.7584461 C76.9408152,75.7584461 76.7775086,75.7366828 76.7775086,75.268723 L76.7775086,75.2688797 Z M71.8379381,67.3317768 C73.6801569,66.3795043 73.6801569,63.1001774 71.8379381,62.147905 C71.4693666,61.9573831 70.6111772,61.8015023 69.9308526,61.8015023 L68.6938974,61.8015023 L68.6938974,64.7398409 L68.6938974,67.6781795 L69.9308526,67.6781795 C70.6111772,67.6781795 71.4693666,67.5222987 71.8379381,67.3317768 Z M63.0598654,75.2688797 C63.0598654,74.8863668 63.223172,74.7791566 63.805874,74.7791566 C64.262305,74.7791566 64.7753312,74.5558037 65.1275258,74.2037515 C65.621406,73.7100715 65.7290405,73.2839928 65.8852943,71.2041976 C65.9854625,69.8709166 66.0027565,67.4091609 65.9237233,65.7336223 C65.7554411,62.1658955 65.4490517,61.4852567 63.9541245,61.3582128 C63.2463705,61.2980669 63.0598654,61.1793992 63.0598654,60.789227 C63.0598654,60.3087675 63.185956,60.2982502 68.0202632,60.3754991 C72.9671197,60.4545483 72.9839003,60.4566659 74.1667158,61.1516378 C76.1817592,62.3355904 76.8137212,64.5725828 75.7364375,66.7080655 C74.9176745,68.3310881 73.1941721,69.1473488 70.5859916,69.1473488 L68.6466068,69.1473488 L68.7314916,71.4954457 C68.808087,73.6142425 68.872848,73.8892122 69.3946691,74.3113535 C69.7127323,74.568654 70.2914444,74.7791566 70.6806982,74.7791566 C71.2251299,74.7791566 71.3884345,74.8921651 71.3884345,75.2688797 C71.3884345,75.7394056 71.2251299,75.7586028 67.22415,75.7586028 C63.223172,75.7586028 63.0598654,75.7394056 63.0598654,75.2688797 L63.0598654,75.2688797 Z M113.766154,73.6772796 C113.766154,71.3049434 113.802511,71.1062412 114.236606,71.1062412 C114.560987,71.1062412 114.757575,71.3361485 114.869754,71.8466947 C115.068869,72.7529175 116.035393,73.9387918 116.967622,74.4206597 C118.507063,75.2164401 120.380017,74.6226215 120.380017,73.3388026 C120.380017,72.4563999 119.706771,71.8609554 117.440522,70.7389489 C115.418604,69.7379137 114.630173,69.117603 114.110318,68.118848 C113.359921,66.6771757 113.989163,64.646006 115.408788,63.9274392 C116.79887,63.2238247 117.842104,63.2165376 120.07382,63.8948531 C120.487211,64.0205023 120.624975,63.96343 120.624975,63.6665226 C120.624975,63.4339139 120.827007,63.2706716 121.114891,63.2706716 C121.568518,63.2706716 121.604807,63.4339139 121.604807,65.4744255 C121.604807,67.4329144 121.55576,67.6781795 121.164102,67.6781795 C120.883998,67.6781795 120.612012,67.3702808 120.417755,66.8332818 C119.756302,65.004783 117.571404,64.1192892 116.460691,65.229564 C115.432302,66.2575496 115.993787,66.960978 118.949336,68.3473254 C121.65711,69.6174516 122.584639,70.6441678 122.584639,72.371384 C122.584639,74.5965095 121.273718,75.9213867 118.821701,76.1743581 C117.820883,76.2776113 117.25639,76.1898334 116.353395,75.7905523 C115.147236,75.2572243 114.745985,75.2834147 114.745985,75.8954902 C114.745985,76.0895577 114.525523,76.2483259 114.256069,76.2483259 C113.797259,76.2483259 113.766154,76.0850914 113.766154,73.6772796 Z M102.988005,73.6772796 C102.988005,71.2694874 103.019111,71.1062412 103.477921,71.1062412 C103.779668,71.1062412 103.969385,71.2708195 103.971868,71.5347411 C103.979276,72.3208446 105.059814,73.8656663 105.923679,74.3251637 C107.643487,75.2399469 109.601869,74.6569805 109.601869,73.2302408 C109.601869,72.4473107 108.870156,71.8495547 106.294937,70.5287107 C103.701015,69.1982741 102.988005,68.3631454 102.988005,66.6553889 C102.988005,65.3796054 103.567688,64.4695392 104.779224,63.8432754 C105.778962,63.3264941 107.800249,63.3091677 108.796649,63.8088381 C109.541997,64.1826085 109.591497,64.1788121 109.73175,63.7370858 C109.813199,63.4805571 110.092876,63.2706716 110.353251,63.2706716 C110.78609,63.2706716 110.826659,63.4595264 110.826659,65.4744255 C110.826659,67.485305 110.785445,67.6781795 110.35574,67.6781795 C110.035595,67.6781795 109.795076,67.4063557 109.604515,66.8291779 C109.232173,65.7014122 108.063657,64.7398409 107.065522,64.7398409 C105.319866,64.7398409 104.57585,66.2296706 105.866261,67.1412667 C106.236761,67.4029982 107.421744,68.0603947 108.499558,68.6021401 C111.056821,69.8875104 111.614341,70.4957974 111.74676,72.1450144 C111.876848,73.7651947 111.196524,74.8958282 109.609228,75.6973874 C108.26971,76.3738321 106.882233,76.392853 105.474023,75.7540973 C104.369582,75.2531302 103.967837,75.2908585 103.967837,75.8954902 C103.967837,76.0895577 103.747375,76.2483259 103.477921,76.2483259 C103.019111,76.2483259 102.988005,76.0850914 102.988005,73.6772796 Z" id="path4179" fill="#464646" fill-rule="nonzero"></path>
                    <path d="M51.4841774,28.8032801 C49.2267177,22.1049768 47.3803484,16.5004564 47.3811323,16.3487911 C47.3819162,16.1912746 47.9655842,16.0247061 48.7422654,15.9603212 C50.339587,15.8279118 51.089023,15.2943899 50.5647327,14.6629076 C50.2767171,14.3160073 49.753485,14.2891588 46.2377707,14.4408711 C44.0381426,14.5357912 42.2384427,14.5348626 42.2384427,14.4388142 C42.2384427,14.0178894 43.8102475,12.0775555 45.4639937,10.4569932 C49.6975072,6.30842154 55.346807,4.01787886 61.34516,4.01787886 C64.0592016,4.01787886 66.0879607,4.36006602 68.902825,5.29261242 C71.1843512,6.04846868 74.7463764,8.05298368 76.1099571,9.34839531 L76.7896742,9.99413048 L75.7118006,10.3083016 C74.3409671,10.7078588 73.223816,11.8464376 72.885729,13.1885766 C72.5334618,14.5870084 72.9646074,15.9956146 74.5744551,18.7058735 C77.4434767,23.5360046 77.4613214,25.4504046 74.7214397,34.4728515 C73.7034573,37.8250707 72.8152556,40.6230801 72.7476609,40.6906502 C72.6800643,40.7582222 72.5691356,40.6600013 72.501149,40.4723825 C72.1262673,39.4378033 64.284655,16.1818896 64.284655,16.1046818 C64.284655,16.0539249 64.753138,16.0014129 65.3257261,15.9879886 C67.0186793,15.9482975 67.5915868,15.7044801 67.5915868,15.0236866 L67.5915868,14.4243459 L60.9231504,14.4122595 C55.6896971,14.4027784 54.228578,14.4682583 54.1332561,14.7165617 C53.8841221,15.3655368 54.302522,15.7463592 55.426628,15.8937757 C56.0546472,15.9761334 56.7234705,16.0640622 56.9129013,16.0891713 C57.1234025,16.1170737 57.9579486,18.0339518 59.0591971,21.0190061 L60.8610683,25.9031889 L58.3502987,33.4457297 C56.9693769,37.5941291 55.7830829,40.9868641 55.714091,40.9851448 C55.6450971,40.9833812 53.741637,35.5015853 51.4841774,28.8032821 L51.4841774,28.8032801 Z M72.6132241,46.5564927 C72.6132241,46.5215167 74.2838606,41.7008059 76.3257474,35.8437999 C80.9126177,22.6867052 81.2207688,21.5814276 81.236211,18.2310105 C81.2464992,15.9984726 81.2907053,15.733219 81.5853368,16.1359966 C82.1613602,16.923444 83.3295253,20.2071294 83.737198,22.1848233 C84.1824472,24.3448234 84.2486348,28.6991199 83.8688011,30.8427613 C83.0248427,35.6057318 80.4638254,40.3351837 76.985472,43.554259 C75.1181539,45.2823821 72.6132241,47.002413 72.6132241,46.5564927 Z M49.0972643,46.1762795 C43.6723539,42.6968733 39.9333535,37.1175168 38.8215209,30.8427613 C38.4173697,28.5618897 38.5138733,24.4895816 39.031487,21.9825089 C39.4741358,19.8385285 40.4019384,17.2781876 40.6473235,17.5234782 C40.7521498,17.6282613 51.5468435,47.0995095 51.5468435,47.2809146 C51.5468435,47.579397 50.6647167,47.1816047 49.0972643,46.1762795 Z M58.2921692,49.5228219 C55.7579208,49.1981669 54.6652263,48.8594078 54.8233848,48.4474253 C54.896545,48.2568368 56.4054935,43.8836017 58.1765981,38.729125 C59.9477006,33.5746464 61.4876511,29.1920654 61.5987071,28.9900546 C61.756511,28.7030083 61.8620839,28.7832544 62.0819209,29.357347 C63.1738688,32.2089184 68.9388554,48.140982 68.9388554,48.3071098 C68.9388554,48.8136813 63.333746,49.8461038 60.9841489,49.7723104 C60.4417102,49.755268 59.2303169,49.6430059 58.2921692,49.5228219 Z M65.6299639,51.6332425 C78.3984892,49.4074745 87.7775652,37.1100025 86.3536914,24.461113 C85.6395862,18.1174261 83.3482185,13.4319063 78.7493865,8.91140755 C73.9333121,4.17736405 68.070897,1.77280796 61.34516,1.77280796 C56.6991608,1.77280796 52.3605643,2.97647877 48.3167167,5.38733074 C45.7997781,6.8878717 41.9787932,10.5795749 40.4013838,13.0348506 C34.4741038,22.2608028 34.8594579,33.3365685 41.4109004,42.0500255 C46.9881414,49.4677927 56.4881051,53.226823 65.6299639,51.6332425 L65.6299639,51.6332425 Z M56.6065158,53.101068 C51.1862439,52.0774409 46.4635121,49.6012227 42.6030244,45.758773 C32.3142903,35.5181086 32.0842023,19.0081168 42.083547,8.48324069 C45.9044084,4.46156603 50.8604028,1.73581427 56.188939,0.725405822 C58.8250957,0.225533701 63.8652263,0.225533701 66.501383,0.725405822 C76.1800543,2.56069799 84.1749966,9.90580793 86.9207906,19.4851169 C90.5557485,32.1664731 84.4863048,45.4361591 72.4781837,51.0611401 C69.1442869,52.6228436 66.2621062,53.2633231 62.0800338,53.3718202 C59.6160217,53.4357467 57.9395846,53.352819 56.6065158,53.101068 L56.6065158,53.101068 Z" id="path4165" fill="#464646" fill-rule="nonzero"></path>
                </g>
            </g>
        </g>
    </g>
</svg>