<?xml version="1.0" encoding="UTF-8"?>
<svg width="168px" height="82px" viewBox="0 0 168 82" version="1.1" xmlns="http://www.w3.org/2000/svg" xmlns:xlink="http://www.w3.org/1999/xlink">
    <!-- Generator: Sketch 59.1 (86144) - https://sketch.com -->
    <title>Napthens</title>
    <desc>Created with Sketch.</desc>
    <g id="Pages" stroke="none" stroke-width="1" fill="none" fill-rule="evenodd">
        <g id="01-Home--Clients-Tech" transform="translate(-1070.000000, -2269.000000)">
            <g id="Client-Block" transform="translate(401.000000, 1970.000000)">
                <g id="Napthens" transform="translate(609.000000, 287.000000)">
                    <rect id="Mask" x="0" y="0" width="289" height="112"></rect>
                    <g id="brand/Napthens" transform="translate(60.000000, 12.000000)" fill="#474747">
                        <g id="Napthens">
                            <polygon id="Fill-1" points="4.15874391 34.7943328 21.3988915 40.7988989 22.486862 40.0779177 5.24857417 34.0736611"></polygon>
                            <polygon id="Fill-2" points="6.34271292 33.3560838 23.5847203 39.3603404 24.6726908 38.6396687 7.43409299 32.6369592"></polygon>
                            <polygon id="Fill-3" points="19.0195528 23.4780853 19.0195528 24.5762664 36.2612502 30.5993985 36.2612502 29.5012174"></polygon>
                            <polygon id="Fill-4" points="19.0171351 20.1841298 36.2591424 26.2054053 36.2591424 25.1090808 19.0171351 19.0859487"></polygon>
                            <polygon id="Fill-5" points="36.2582435 22.9098098 19.0162362 16.8866777 19.0162362 17.986406 36.2582435 24.0079909"></polygon>
                            <polygon id="Fill-6" points="36.2582435 13.0251585 36.2582435 11.928834 27.7965609 8.97404906 26.7082804 9.69162642"></polygon>
                            <polygon id="Fill-7" points="36.2582435 15.2259457 36.2582435 14.1277645 25.6134908 10.4099155 24.5236605 11.1271834"></polygon>
                            <polygon id="Fill-8" points="19.0163911 15.7883109 36.2583985 21.8095864 36.2583985 20.7114053 19.0811734 14.7120996 19.0163911 14.7566581"></polygon>
                            <polygon id="Fill-9" points="36.2582435 19.6169374 36.2582435 18.5187562 21.2572694 13.2794204 20.1674391 13.9966883"></polygon>
                            <polygon id="Fill-10" points="36.2582435 17.4190279 36.2582435 16.3208468 23.4372399 11.8430279 22.3474096 12.5602958"></polygon>
                            <polygon id="Fill-11" points="19.0180649 22.3770883 36.2582125 28.4002204 36.2582125 27.3020392 19.0180649 21.2789072"></polygon>
                            <polygon id="Fill-12" points="8.52048266 31.9186083 25.7606303 37.9247215 26.8470509 37.2021932 9.61031292 31.1994838"></polygon>
                            <polygon id="Fill-13" points="27.9360133 36.4885147 29.0224339 35.7675336 16.9149653 31.5514958 16.9149653 32.6515336"></polygon>
                            <polygon id="Fill-14" points="30.1154258 35.0548143 31.2033963 34.3341426 16.9144074 29.3562785 16.9144074 30.4563162"></polygon>
                            <polygon id="Fill-15" points="16.9149033 28.2661426 32.2903129 33.6193502 33.3785934 32.9002257 16.9149033 27.1645577"></polygon>
                            <polygon id="Fill-16" points="17.228493 26.1812385 34.4686406 32.1839479 35.5566111 31.4648234 18.320183 25.4602574"></polygon>
                            <polygon id="Fill-17" points="15.4522494 0.000185660377 -3.09963097e-05 10.2644196 -3.09963097e-05 27.5023668 16.9149653 33.4388574 16.9149653 32.6501102 16.9149653 31.5516196 16.9149653 30.4571517 16.9149653 29.357114 16.9149653 28.2654309 16.9149653 27.1657026 16.9149653 16.1399517 19.0162052 14.7558536 19.0806775 14.7116045 20.1674081 13.9958838 21.2572384 13.2786158 22.3470686 12.5613479 23.4372089 11.8437706 24.5233196 11.1280498 25.6134598 10.4107819 26.7082494 9.69011019 27.7962199 8.97438943 32.3037033 6.00444226"></polygon>
                            <g id="Group-48" transform="translate(35.645756, 36.458128)">
                                <path d="M0.127270849,24.445283 L0.127270849,6.68222642 L2.75482804,6.68222642 L2.75482804,9.55006038 C3.99468044,7.32306415 5.86437786,6.20786415 8.36237048,6.20786415 C8.73866568,6.20786415 9.05885756,6.2301434 9.32449594,6.27593962 C12.6212635,6.81652075 14.2696472,8.98565283 14.2696472,12.7817887 L14.2696472,24.445283 L11.5553004,24.445283 L11.5553004,12.810566 C11.5553004,11.5288906 11.2282893,10.5006415 10.5745771,9.72365283 C9.91900517,8.95006792 8.9720679,8.5608 7.73066568,8.5608 C6.24563247,8.5608 5.05878376,9.03299623 4.17166937,9.97676981 C3.28455498,10.9220906 2.84316753,12.1356906 2.84316753,13.6200453 L2.84316753,24.445283 L0.127270849,24.445283 Z" id="Fill-18"></path>
                                <path d="M29.5964546,15.0090634 C29.1095026,15.3658408 28.3925579,15.6211238 27.4422111,15.7773879 L23.8252517,16.3962558 C21.8517166,16.73292 20.7532074,17.5061955 20.5318937,18.7182483 C20.4435542,19.211486 20.3992295,19.5261804 20.3992295,19.6601653 C20.3992295,20.6701577 20.7516576,21.4316747 21.461783,21.9484294 C22.1037166,22.4193879 22.9328679,22.6539389 23.9529565,22.6539389 L24.4485875,22.6539389 C24.6717609,22.611237 24.8369712,22.58772 24.947628,22.58772 C26.0545063,22.4534257 27.0166317,22.0384747 27.8355542,21.3416294 C29.0090745,20.3523691 29.5964546,19.1740445 29.5964546,17.8054181 L29.5964546,15.0090634 Z M29.492617,12.1427766 L29.492617,11.2333502 C29.492617,9.54724453 28.4043365,8.59171245 26.2265358,8.3670634 C26.1397461,8.3670634 25.9965432,8.3534483 25.7990967,8.33147849 L25.3697978,8.33147849 C24.2477314,8.33147849 23.3144325,8.56943321 22.5668015,9.0403917 C21.6421815,9.60294264 21.2131926,10.4241804 21.2795247,11.5037955 L21.2795247,12.04252 L18.6876133,12.04252 L18.6876133,11.2008596 C18.8630524,9.46710113 19.6258716,8.16500302 20.974831,7.28590113 C22.1480413,6.52098038 23.6296649,6.13852 25.4209417,6.13852 C29.88751,6.13852 32.121724,7.83174264 32.121724,11.2144747 L32.121724,21.5028445 C32.121724,21.6847917 32.1542701,21.8651917 32.2206022,22.0471389 C32.4199085,22.4515691 32.7757461,22.6539389 33.2850155,22.6539389 C33.4176797,22.6217577 33.5181077,22.6047389 33.58289,22.6047389 L33.9489565,22.45652 L33.9489565,24.4183313 L33.4127203,24.5204445 C32.9443661,24.6104898 32.4760118,24.6565955 32.0076576,24.6565955 C31.0917166,24.6565955 30.4445137,24.3963615 30.0648089,23.8777502 C29.752986,23.4275238 29.5964546,22.7186106 29.5964546,21.7494634 L29.5964546,21.3790709 C29.1773845,22.4345502 28.2834509,23.344286 26.9162037,24.1073502 C25.989724,24.6241049 24.8317018,24.8843389 23.4405875,24.8843389 C21.8089417,24.8843389 20.4640118,24.4576294 19.4045579,23.602354 C18.2570745,22.6830257 17.6845727,21.4146558 17.6845727,19.7963162 C17.6845727,18.3803464 18.093414,17.2224445 18.9126465,16.3232294 C19.7297092,15.4255615 20.848676,14.8407313 22.2636576,14.5705955 L23.1613107,14.4022634 L25.3852959,14.0655992 L27.1117904,13.8397125 L27.610831,13.7270785 C28.4232443,13.5711238 28.8863292,13.4485879 28.996986,13.3582332 C29.3274066,13.1781426 29.492617,12.773403 29.492617,12.1427766 L29.492617,12.1427766 Z" id="Fill-20"></path>
                                <path d="M39.3215469,16.0210672 C39.3215469,17.6155804 39.6212812,18.9876106 40.2173402,20.1334445 C40.9240561,21.5036181 41.9847498,22.3465162 43.4000413,22.659354 C43.7967941,22.7497087 44.1848679,22.7955049 44.5596133,22.7955049 C45.9969122,22.7955049 47.1788015,22.2227426 48.106831,21.0769087 C48.9260635,20.0876483 49.4229343,18.8174219 49.5986834,17.2687049 L49.7635838,15.8852257 C49.7635838,13.8859728 49.4111557,12.2354521 48.7044399,10.9314974 C47.8191852,9.27045585 46.4720856,8.43745962 44.6600413,8.43745962 C43.8426686,8.43745962 43.0476133,8.63982943 42.2727055,9.04425962 C40.3056797,10.0780785 39.3215469,12.4034747 39.3215469,16.0210672 L39.3215469,16.0210672 Z M36.6072,30.6764785 L36.6072,6.68296906 L39.2347572,6.68296906 L39.2347572,9.98772377 C39.7012517,8.79454642 40.4742996,7.8541766 41.5591705,7.16754264 C42.6440413,6.48245585 43.8274804,6.13898415 45.1097978,6.13898415 L45.6426244,6.13898415 C45.8419306,6.1612634 46.1500339,6.21696151 46.5706539,6.30731623 C48.2531336,6.66749736 49.6138716,7.56547472 50.6544177,9.00527094 C51.6060044,10.3073691 52.1701373,11.8833162 52.3452664,13.7259955 C52.4354657,14.6474898 52.4797904,15.3223653 52.4797904,15.7490747 C52.4797904,18.02032 52.0030672,19.9530445 51.0508605,21.5509615 C49.9867572,23.348154 48.4149343,24.4494294 46.3322923,24.8541691 C45.8676576,24.9442143 45.4027129,24.9884634 44.9377683,24.9884634 C42.5656207,24.9884634 40.7842627,24.0109615 39.5887351,22.052554 L39.3215469,21.614086 L39.3215469,30.6764785 L36.6072,30.6764785 Z" id="Fill-22"></path>
                                <path d="M53.4468133,8.7360634 L53.4468133,6.68235019 L56.0064886,6.68235019 L56.0064886,1.87312755 L58.7208354,1.87312755 L58.7208354,6.68235019 L61.9543705,6.68235019 L61.9543705,8.7360634 L58.7208354,8.7360634 L58.7208354,20.4100785 C58.7208354,21.8718445 59.1922893,22.6027275 60.1339572,22.6027275 C60.3589904,22.6027275 60.7182376,22.5451728 61.2123188,22.4294445 L61.9543705,22.0862823 L61.9543705,24.2161162 L61.0502081,24.4850143 C60.5613963,24.5750596 60.0149314,24.6208558 59.4139129,24.6208558 C58.1452339,24.6208558 57.2426214,24.2724332 56.7079351,23.5786823 C56.2395808,22.9718823 56.0064886,22.0079955 56.0064886,20.6836181 L56.0064886,8.7360634 L53.4468133,8.7360634 Z" id="Fill-24"></path>
                                <path d="M64.226214,24.445283 L64.226214,0.188135849 L66.9405609,0.188135849 L66.9405609,9.48229434 C67.6711439,7.97442264 68.9450923,6.96257358 70.7602362,6.44581887 C71.3153801,6.28769811 71.8894317,6.20786415 72.4885904,6.20786415 C72.5995572,6.20786415 72.7474096,6.21993208 72.936797,6.24190189 C73.1237048,6.2638717 73.273417,6.27593962 73.3843838,6.27593962 C76.7068782,6.79269434 78.3689004,8.90581887 78.3689004,12.6134566 L78.3689004,24.445283 L75.6542435,24.445283 L75.6542435,12.6849358 C75.6542435,10.3032226 74.5458155,8.95501887 72.3286494,8.64063396 C72.0171365,8.5945283 71.7837343,8.57255849 71.6306125,8.57255849 C70.2562362,8.57255849 69.1285904,9.09457358 68.2535646,10.1401509 C67.376369,11.1838717 66.9405609,12.4144906 66.9405609,13.8304604 L66.9405609,24.445283 L64.226214,24.445283 Z" id="Fill-26"></path>
                                <path d="M84.3934672,14.1064445 L94.7555336,14.1064445 L94.7214376,13.4331162 C94.6547956,11.9066785 94.1852015,10.6723464 93.3098657,9.7291917 C92.4360797,8.78727472 91.2563601,8.31445962 89.7728768,8.31445962 C88.3132605,8.31445962 87.0960354,8.79222566 86.1199616,9.74590113 C85.1463675,10.7011238 84.5927734,11.918437 84.4597993,13.4009351 L84.3934672,14.1064445 Z M97.4103675,16.1957426 L84.3934672,16.1957426 L84.3934672,16.6004823 C84.3934672,16.8464823 84.4052458,17.0711313 84.4257033,17.2716445 C84.7579838,20.2570634 86.1373196,22.0180521 88.5674303,22.557086 C89.0748399,22.6691011 89.527386,22.7254181 89.9244487,22.7254181 C92.3083749,22.7254181 93.8767882,21.4892294 94.6278288,19.0193275 L97.2451572,19.0193275 C97.0901756,19.694203 96.8908694,20.2790332 96.6475483,20.7738181 C95.2527144,23.5856445 92.996493,24.9879992 89.8751646,24.9879992 C89.3011129,24.9879992 88.6591793,24.9217804 87.9509137,24.787486 C84.4086554,24.1141577 82.3396517,21.6646785 81.7420428,17.4415238 C81.6552531,16.812754 81.6093786,16.1957426 81.6093786,15.587086 C81.6093786,13.3192445 82.118338,11.3642408 83.1365668,9.72393132 C84.2657624,7.88465585 85.8698214,6.73851245 87.9509137,6.2879766 C88.5708399,6.1539917 89.1907661,6.0874634 89.8088325,6.0874634 C92.1552531,6.0874634 94.0351793,6.92726717 95.4520207,8.61368226 C96.7820723,10.1862257 97.4429137,12.1854785 97.4429137,14.6114408 L97.4376443,15.4203011 C97.4376443,15.7368521 97.4410539,15.9710936 97.4429137,16.1276672 C97.4221461,16.3077577 97.4103675,16.330037 97.4103675,16.1957426 L97.4103675,16.1957426 Z" id="Fill-28"></path>
                                <path d="M100.672605,24.445283 L100.672605,6.68222642 L103.300162,6.68222642 L103.300162,9.55006038 C104.540015,7.32306415 106.409712,6.20786415 108.909255,6.20786415 C109.28586,6.20786415 109.605742,6.2301434 109.87169,6.27593962 C113.166908,6.81652075 114.815292,8.98565283 114.815292,12.7817887 L114.815292,24.445283 L112.100635,24.445283 L112.100635,12.810566 C112.100635,11.5288906 111.775173,10.5006415 111.119601,9.72365283 C110.465889,8.95006792 109.518952,8.5608 108.276,8.5608 C106.790967,8.5608 105.605978,9.03299623 104.718863,9.97676981 C103.829889,10.9220906 103.386952,12.1356906 103.386952,13.6200453 L103.386952,24.445283 L100.672605,24.445283 Z" id="Fill-30"></path>
                                <path d="M117.816819,18.8177623 L120.507609,18.8177623 L120.541395,19.4910906 C120.785026,21.0654906 121.67059,22.0528943 123.199638,22.457634 C123.952539,22.6600038 124.628568,22.7599509 125.226177,22.7599509 C126.157616,22.7599509 126.976849,22.5798604 127.685114,22.2193698 C128.550221,21.7911132 129.06972,21.1722453 129.248258,20.3630755 C129.313041,20.0691132 129.347137,19.7766981 129.347137,19.484283 C129.347137,18.245 128.381601,17.4002453 126.452081,16.9497094 L123.262561,16.213566 C119.966103,15.4501925 118.31741,13.8674377 118.31741,11.4687057 C118.31741,9.7179283 118.971432,8.34930189 120.274207,7.36313585 C121.42541,6.48774717 122.896804,6.05082642 124.688081,6.05082642 L125.253454,6.05082642 C125.519092,6.09538491 125.716539,6.11735472 125.849513,6.11735472 C127.487668,6.29744528 128.81586,6.84638113 129.834089,7.76787547 C130.961424,8.77786792 131.525247,10.079966 131.525247,11.6729321 L128.936745,11.6729321 C128.936745,10.6205472 128.555491,9.79095472 127.792672,9.18570189 C127.029542,8.58230566 126.116701,8.27967925 125.055697,8.27967925 L124.258782,8.27967925 C124.083653,8.3239283 123.948819,8.34589811 123.862339,8.34589811 C122.225734,8.57209434 121.284066,9.18755849 121.041985,10.1972415 C120.931638,10.6462302 120.877085,10.9590679 120.877085,11.1391585 C120.877085,12.3270755 121.702827,13.1350075 123.359889,13.5598604 L124.02383,13.7281925 L125.185262,14.032366 L125.648657,14.1326226 L127.276583,14.5373623 C127.80755,14.6716566 128.694974,14.9758302 129.934827,15.4467887 C131.375225,16.2797849 132.097439,17.5837396 132.097439,19.3602 C132.097439,20.8662151 131.542295,22.1364415 130.436967,23.1714981 C129.416878,24.1369321 128.14479,24.7220717 126.617601,24.9241321 C125.951491,25.0141774 125.376199,25.060283 124.888937,25.060283 C123.162133,25.060283 121.645173,24.631717 120.340849,23.7767509 C118.877823,22.8332868 118.068819,21.5293321 117.917247,19.8633396 L117.816819,18.8177623 Z" id="Fill-32"></path>
                                <path d="M57.7124325,42.0715389 C57.7703956,43.554037 59.0390745,44.0231389 60.3843144,44.0231389 C61.4025432,44.0231389 62.7871483,43.7885879 62.7871483,42.5202181 C62.7871483,41.2317351 61.1728605,41.0176068 59.5381151,40.6469049 C57.9238273,40.276203 56.2906317,39.7306709 56.2906317,37.797637 C56.2906317,35.7680596 58.2694362,34.929803 59.9996502,34.929803 C62.1910893,34.929803 63.9399011,35.6319087 64.0744251,38.0900521 L62.4415395,38.0900521 C62.3256133,36.8034257 61.2100561,36.3934257 60.1338642,36.3934257 C59.152831,36.3934257 58.018986,36.6654181 58.018986,37.6806709 C58.018986,38.8704445 59.7492,39.0660068 61.2683292,39.4363992 C62.9012148,39.8074106 64.5170524,40.3544898 64.5170524,42.3060898 C64.5170524,44.7048219 62.3067055,45.4867615 60.2872959,45.4867615 C58.0580413,45.4867615 56.1747055,44.5686709 56.0776871,42.0715389 L57.7124325,42.0715389 Z" id="Fill-35"></path>
                                <path d="M70.6098111,34.9294936 C73.7618258,34.9294936 75.4337668,37.251486 75.4337668,40.2180294 C75.4337668,43.1641502 73.7618258,45.4861426 70.6098111,45.4861426 C67.4574863,45.4861426 65.7855454,43.1641502 65.7855454,40.2180294 C65.7855454,37.251486 67.4574863,34.9294936 70.6098111,34.9294936 M70.6098111,44.0228294 C72.3211173,44.0228294 73.7038627,42.6560596 73.7038627,40.2180294 C73.7038627,37.7583389 72.3211173,36.3928068 70.6098111,36.3928068 C68.8985048,36.3928068 67.5157594,37.7583389 67.5157594,40.2180294 C67.5157594,42.6560596 68.8985048,44.0228294 70.6098111,44.0228294" id="Fill-37"></path>
                                <polygon id="Fill-39" points="77.4523395 45.2510038 79.0855351 45.2510038 79.0855351 31.3196679 77.4523395 31.3196679"></polygon>
                                <path d="M81.7196015,33.3480075 L83.352797,33.3480075 L83.352797,31.3199774 L81.7196015,31.3199774 L81.7196015,33.3480075 Z M81.7196015,45.2510038 L83.352797,45.2510038 L83.352797,35.1619094 L81.7196015,35.1619094 L81.7196015,45.2510038 Z" id="Fill-41"></path>
                                <path d="M92.6365638,38.402766 C92.3861137,37.1343962 91.5210066,36.3933019 90.1760768,36.3933019 C87.8122982,36.3933019 87.0817151,38.2851811 87.0817151,40.3354906 C87.0817151,42.1883811 87.9074568,44.0227057 89.9832797,44.0227057 C91.560062,44.0227057 92.5017299,43.0860491 92.7131247,41.5645623 L94.3853756,41.5645623 C94.0193092,44.0227057 92.5017299,45.4866377 90.0037373,45.4866377 C86.9657889,45.4866377 85.3515011,43.3394755 85.3515011,40.3354906 C85.3515011,37.3095358 86.889228,34.9293698 90.0412428,34.9293698 C92.290955,34.9293698 94.0974199,36.0021774 94.3274125,38.402766 L92.6365638,38.402766 Z" id="Fill-42"></path>
                                <path d="M96.3067749,33.3480075 L97.9399705,33.3480075 L97.9399705,31.3199774 L96.3067749,31.3199774 L96.3067749,33.3480075 Z M96.3067749,45.2510038 L97.9399705,45.2510038 L97.9399705,35.1619094 L96.3067749,35.1619094 L96.3067749,45.2510038 Z" id="Fill-43"></path>
                                <path d="M102.746072,35.1636732 L104.726737,35.1636732 L104.726737,36.6272958 L102.746072,36.6272958 L102.746072,42.8902392 C102.746072,43.6517562 102.957467,43.7894543 103.975696,43.7894543 L104.726737,43.7894543 L104.726737,45.2515298 L103.476345,45.2515298 C101.785497,45.2515298 101.111327,44.9012506 101.111327,43.0465034 L101.111327,36.6272958 L99.4204782,36.6272958 L99.4204782,35.1636732 L101.111327,35.1636732 L101.111327,32.1395751 L102.746072,32.1395751 L102.746072,35.1636732 Z" id="Fill-44"></path>
                                <path d="M110.818441,34.9294936 C113.970456,34.9294936 115.642397,37.251486 115.642397,40.2180294 C115.642397,43.1641502 113.970456,45.4861426 110.818441,45.4861426 C107.666117,45.4861426 105.994176,43.1641502 105.994176,40.2180294 C105.994176,37.251486 107.666117,34.9294936 110.818441,34.9294936 M110.818441,44.0228294 C112.529748,44.0228294 113.912183,42.6560596 113.912183,40.2180294 C113.912183,37.7583389 112.529748,36.3928068 110.818441,36.3928068 C109.107135,36.3928068 107.72439,37.7583389 107.72439,40.2180294 C107.72439,42.6560596 109.107135,44.0228294 110.818441,44.0228294" id="Fill-45"></path>
                                <path d="M117.507166,35.1636732 L119.044893,35.1636732 L119.044893,37.2904128 L119.083948,37.2904128 C119.870635,35.6702166 120.967284,34.8712581 122.734694,34.9291223 L122.734694,36.68516 C120.102177,36.68516 119.140362,38.208194 119.140362,40.7634996 L119.140362,45.2515298 L117.507166,45.2515298 L117.507166,35.1636732 Z" id="Fill-46"></path>
                                <path d="M124.964723,42.0715389 C125.022686,43.554037 126.291055,44.0231389 127.636605,44.0231389 C128.654834,44.0231389 130.039439,43.7885879 130.039439,42.5202181 C130.039439,41.2317351 128.423292,41.0176068 126.790406,40.6469049 C125.175808,40.276203 123.542613,39.7306709 123.542613,37.797637 C123.542613,35.7680596 125.521417,34.929803 127.251631,34.929803 C129.44307,34.929803 131.192192,35.6319087 131.326406,38.0900521 L129.69197,38.0900521 C129.577904,36.8034257 128.462347,36.3934257 127.386155,36.3934257 C126.405122,36.3934257 125.271277,36.6654181 125.271277,37.6806709 C125.271277,38.8704445 127.001181,39.0660068 128.52031,39.4363992 C130.153506,39.8074106 131.769343,40.3544898 131.769343,42.3060898 C131.769343,44.7048219 129.558996,45.4867615 127.539587,45.4867615 C125.310332,45.4867615 123.426996,44.5686709 123.329978,42.0715389 L124.964723,42.0715389 Z" id="Fill-47"></path>
                            </g>
                        </g>
                    </g>
                </g>
            </g>
        </g>
    </g>
</svg>