<?xml version="1.0" encoding="UTF-8"?>
<svg width="140px" height="40px" viewBox="0 0 140 40" version="1.1" xmlns="http://www.w3.org/2000/svg" xmlns:xlink="http://www.w3.org/1999/xlink">
    <!-- Generator: Sketch 59.1 (86144) - https://sketch.com -->
    <title>Shopify_logo_2018</title>
    <desc>Created with Sketch.</desc>
    <g id="Pages" stroke="none" stroke-width="1" fill="none" fill-rule="evenodd">
        <g id="01-Home--Clients-Tech" transform="translate(-1429.000000, -2563.000000)">
            <g id="Assurance-Block" transform="translate(427.000000, 2558.000000)">
                <g id="brands/Shopify_logo_2018" transform="translate(1002.000000, 5.000000)">
                    <g id="Shopify_logo_2018">
                        <path d="M30.2610114,7.70454545 C30.2381729,7.5 30.0554649,7.40909091 29.9184339,7.40909091 C29.7814029,7.40909091 26.7895595,7.18181818 26.7895595,7.18181818 C26.7895595,7.18181818 24.7112561,5.11363636 24.4600326,4.90909091 C24.2316476,4.68181818 23.7977162,4.75 23.6150082,4.79545455 C23.5921697,4.79545455 23.1582382,4.93181818 22.4502447,5.15909091 C21.7422512,3.13636364 20.5318108,1.29545455 18.3621533,1.29545455 L18.1566069,1.29545455 C17.5628059,0.522727273 16.7862969,0.159090909 16.1468189,0.159090909 C11.1223491,0.159090909 8.70146819,6.40909091 7.94779772,9.59090909 C5.98368679,10.2045455 4.59053834,10.6136364 4.43066884,10.6818182 C3.33442088,11.0227273 3.31158238,11.0454545 3.17455139,12.0681818 C3.06035889,12.8409091 0.205546493,34.8181818 0.205546493,34.8181818 L22.4274062,38.9545455 L34.486226,36.3636364 C34.5089723,36.3181818 30.2838499,7.90909091 30.2610114,7.70454545 Z M21.2169657,5.47727273 C20.6688418,5.63636364 20.0065253,5.84090909 19.3442088,6.06818182 L19.3442088,5.65909091 C19.3442088,4.43181818 19.1843393,3.43181818 18.8874388,2.63636364 C20.0293638,2.77272727 20.7373573,4.02272727 21.2169657,5.47727273 Z M17.4942904,2.88636364 C17.7911909,3.65909091 17.9967374,4.75 17.9967374,6.25 L17.9967374,6.47727273 C16.7634584,6.86363636 15.4616639,7.25 14.1141925,7.68181818 C14.867863,4.81818182 16.3066884,3.40909091 17.4942904,2.88636364 Z M16.0326264,1.47727273 C16.2610114,1.47727273 16.4893964,1.56818182 16.6721044,1.70454545 C15.050571,2.45454545 13.3376835,4.34090909 12.62969,8.15909091 C11.5562806,8.5 10.5285481,8.79545455 9.54649266,9.11363636 C10.3686786,6.20454545 12.4241436,1.47727273 16.0326264,1.47727273 L16.0326264,1.47727273 Z" id="Shape" fill="#474747" fill-rule="nonzero"></path>
                        <path d="M29.9184339,7.36363636 C29.7814029,7.36363636 26.7895595,7.13636364 26.7895595,7.13636364 C26.7895595,7.13636364 24.7112561,5.06818182 24.4600326,4.86363636 C24.3686786,4.77272727 24.2544861,4.72727273 24.1631321,4.72727273 L22.4959217,38.9545455 L34.5546493,36.3636364 C34.5546493,36.3636364 30.3295269,7.90909091 30.3066884,7.70454545 C30.2153344,7.5 30.0554649,7.40909091 29.9184339,7.36363636 L29.9184339,7.36363636 Z" id="Path" fill="#2E2E2E" fill-rule="nonzero"></path>
                        <path d="M18.3621533,14 L16.9004894,18.3863636 C16.9004894,18.3863636 15.5758564,17.6818182 14,17.6818182 C11.6476346,17.6818182 11.5334421,19.1590909 11.5334421,19.5227273 C11.5334421,21.5227273 16.7862969,22.2954545 16.7862969,27 C16.7862969,30.7045455 14.4339315,33.0909091 11.2593801,33.0909091 C7.42251223,33.0909091 5.5040783,30.7272727 5.5040783,30.7272727 L6.53181077,27.3636364 C6.53181077,27.3636364 8.54159869,29.0909091 10.2316476,29.0909091 C11.3507341,29.0909091 11.8075041,28.2272727 11.8075041,27.5909091 C11.8075041,24.9772727 7.51386623,24.8636364 7.51386623,20.5454545 C7.51386623,16.9318182 10.1174551,13.4318182 15.3931485,13.4318182 C17.3572594,13.4090909 18.3621533,14 18.3621533,14 L18.3621533,14 Z" id="Path" fill="#FFFFFF" fill-rule="nonzero"></path>
                        <path d="M48.5546493,22.25 C47.3442088,21.6136364 46.7275693,21.0454545 46.7275693,20.2954545 C46.7275693,19.3409091 47.5954323,18.7272727 48.9429038,18.7272727 C50.5187602,18.7272727 51.9119086,19.3636364 51.9119086,19.3636364 L53.0081566,16.0227273 C53.0081566,16.0227273 52.0032626,15.25 49.0342577,15.25 C44.9004894,15.25 42.0228385,17.6136364 42.0228385,20.9318182 C42.0228385,22.8181818 43.37031,24.25 45.1517129,25.2727273 C46.6133768,26.0681818 47.1158238,26.6590909 47.1158238,27.5227273 C47.1158238,28.4090909 46.3849918,29.1363636 45.0375204,29.1363636 C43.050571,29.1363636 41.1549755,28.1136364 41.1549755,28.1136364 L39.9902121,31.4545455 C39.9902121,31.4545455 41.725938,32.6136364 44.6492659,32.6136364 C48.8972268,32.6136364 51.9804241,30.5227273 51.9804241,26.7727273 C51.9347471,24.7272727 50.4045677,23.3181818 48.5546493,22.25 L48.5546493,22.25 Z M65.5008157,15.2045455 C63.3996737,15.2045455 61.7553018,16.2045455 60.4991843,17.7045455 L60.4535073,17.6818182 L62.2805873,8.22727273 L57.5530179,8.22727273 L52.9396411,32.3181818 L57.6672104,32.3181818 L59.2430669,24.0909091 C59.8597064,20.9772727 61.4812398,19.0454545 62.9885808,19.0454545 C64.0619902,19.0454545 64.4730832,19.7727273 64.4730832,20.7954545 C64.4730832,21.4318182 64.4274062,22.25 64.2675367,22.8863636 L62.4861338,32.3181818 L67.2137031,32.3181818 L69.0636215,22.5909091 C69.269168,21.5681818 69.406199,20.3409091 69.406199,19.5 C69.3833605,16.7954545 67.9902121,15.2045455 65.5008157,15.2045455 L65.5008157,15.2045455 Z M80.0946166,15.2045455 C74.3849918,15.2045455 70.6166395,20.3181818 70.6166395,26.0227273 C70.6166395,29.6590909 72.8776509,32.6136364 77.1256117,32.6136364 C82.721044,32.6136364 86.4893964,27.6363636 86.4893964,21.7954545 C86.5122349,18.4090909 84.548124,15.2045455 80.0946166,15.2045455 Z M77.7650897,29.0227273 C76.1435563,29.0227273 75.4812398,27.6590909 75.4812398,25.9318182 C75.4812398,23.2272727 76.8743883,18.8409091 79.4551387,18.8409091 C81.1223491,18.8409091 81.6933116,20.2954545 81.6933116,21.6818182 C81.6933116,24.5681818 80.2544861,29.0227273 77.7650897,29.0227273 Z M98.6166395,15.2045455 C95.4192496,15.2045455 93.6150082,18.0227273 93.6150082,18.0227273 L93.5693312,18.0227273 L93.8433931,15.5 L89.6411093,15.5 C89.4355628,17.2045455 89.0473083,19.8181818 88.6818923,21.75 L85.4159869,39 L90.1435563,39 L91.4681892,32.0227273 L91.5823817,32.0227273 C91.5823817,32.0227273 92.5644372,32.6363636 94.3458401,32.6363636 C99.9184339,32.6363636 103.549755,26.9545455 103.549755,21.2272727 C103.526917,18.0454545 102.088091,15.2045455 98.6166395,15.2045455 L98.6166395,15.2045455 Z M94.0946166,29.0681818 C92.8613377,29.0681818 92.1305057,28.3636364 92.1305057,28.3636364 L92.9070147,23.9772727 C93.4551387,21.0227273 95.0081566,19.0909091 96.6525285,19.0909091 C98.1141925,19.0909091 98.548124,20.4318182 98.548124,21.6818182 C98.5709625,24.7272727 96.7438825,29.0681818 94.0946166,29.0681818 L94.0946166,29.0681818 Z M110.287113,8.45454545 C108.779772,8.45454545 107.569331,9.65909091 107.569331,11.1818182 C107.569331,12.5681818 108.460033,13.5454545 109.807504,13.5454545 L109.853181,13.5454545 C111.337684,13.5454545 112.593801,12.5454545 112.616639,10.8181818 C112.639478,9.43181818 111.7031,8.45454545 110.287113,8.45454545 L110.287113,8.45454545 Z M103.663948,32.2954545 L108.391517,32.2954545 L111.588907,15.5681818 L106.838499,15.5681818 L103.663948,32.2954545 Z M123.647635,15.5454545 L120.358891,15.5454545 L120.51876,14.7727273 C120.792822,13.1590909 121.752039,11.75 123.350734,11.75 C124.195759,11.75 124.858075,12 124.858075,12 L125.771615,8.29545455 C125.771615,8.29545455 124.972268,7.88636364 123.190865,7.88636364 C121.523654,7.88636364 119.833605,8.36363636 118.554649,9.45454545 C116.933116,10.8181818 116.179445,12.7954545 115.814029,14.7954545 L115.676998,15.5681818 L113.461664,15.5681818 L112.75367,19.1363636 L114.969005,19.1363636 L112.45677,32.3181818 L117.184339,32.3181818 L119.696574,19.1363636 L122.96248,19.1363636 L123.647635,15.5454545 L123.647635,15.5454545 Z M135.044046,15.5681818 C135.044046,15.5681818 132.075041,23 130.773246,27.0681818 L130.727569,27.0681818 C130.636215,25.75 129.562806,15.5681818 129.562806,15.5681818 L124.584013,15.5681818 L127.438825,30.8863636 C127.484502,31.2272727 127.461664,31.4318182 127.324633,31.6590909 C126.776509,32.7272727 125.840131,33.75 124.743883,34.5 C123.853181,35.1363636 122.848287,35.5681818 122.04894,35.8409091 L123.373573,39.8409091 C124.33279,39.6363636 126.342577,38.8409091 128.009788,37.2727273 C130.156607,35.2727273 132.166395,32.1590909 134.22186,27.9318182 L140,15.5454545 L135.044046,15.5454545 L135.044046,15.5681818 Z" id="Shape" fill="#474747" fill-rule="nonzero"></path>
                    </g>
                </g>
            </g>
        </g>
    </g>
</svg>