<?xml version="1.0" encoding="UTF-8"?>
<svg width="194px" height="44px" viewBox="0 0 194 44" version="1.1" xmlns="http://www.w3.org/2000/svg" xmlns:xlink="http://www.w3.org/1999/xlink">
    <!-- Generator: Sketch 59.1 (86144) - https://sketch.com -->
    <title>WordPress_logo</title>
    <desc>Created with Sketch.</desc>
    <g id="Pages" stroke="none" stroke-width="1" fill="none" fill-rule="evenodd">
        <g id="01-Home--Clients-Tech" transform="translate(-427.000000, -2561.000000)" fill="#474747" fill-rule="nonzero">
            <g id="Assurance-Block" transform="translate(427.000000, 2558.000000)">
                <g id="WordPress_logo" transform="translate(0.000000, 3.000000)">
                    <g id="brand/wordpress">
                        <path d="M112.516407,17.251935 L104.879633,17.251935 L104.879633,18.0586016 C107.268348,18.0586016 107.652396,18.5683577 107.652396,21.5846829 L107.652396,27.022439 C107.652396,30.0384065 107.268707,30.5907317 104.879633,30.5907317 C103.045615,30.3360325 101.807967,29.3587317 100.101485,27.489626 L98.1392111,25.3658211 C100.784078,24.8979187 102.191656,23.2416585 102.191656,21.3721951 C102.191656,19.0362602 100.186989,17.251935 96.4323704,17.251935 L88.9238519,17.251935 L88.9238519,18.0586016 C91.3125667,18.0586016 91.6966148,18.5683577 91.6966148,21.5846829 L91.6966148,27.022439 C91.6966148,30.0384065 91.3125667,30.5907317 88.9238519,30.5907317 L88.9238519,31.3977561 L97.4135074,31.3977561 L97.4135074,30.5907317 C95.0247926,30.5907317 94.6407444,30.0384065 94.6407444,27.022439 L94.6407444,25.4935285 L95.3657296,25.4935285 L100.101485,31.3977561 L112.516407,31.3977561 C118.616989,31.3977561 121.262215,28.1696585 121.262215,24.3033821 C121.262215,20.4378211 118.617348,17.251935 112.516407,17.251935 Z M94.6411037,24.1756748 L94.6411037,18.5265041 L96.3899778,18.5265041 C98.3095,18.5265041 99.1631,19.8432846 99.1631,21.3725528 C99.1631,22.8596098 98.3095,24.1760325 96.3899778,24.1760325 L94.6411037,24.1760325 L94.6411037,24.1756748 Z M112.644663,30.0809756 L112.345759,30.0809756 C110.810285,30.0809756 110.596885,29.6989268 110.596885,27.7446829 L110.596885,18.5265041 C110.596885,18.5265041 112.474015,18.5265041 112.644663,18.5265041 C117.081515,18.5265041 117.891644,21.7546016 117.891644,24.2611707 C117.891644,26.8521626 117.081156,30.0809756 112.644663,30.0809756 Z" id="Shape"></path>
                        <path d="M65.1617259,25.7482276 L68.1054963,17.0816585 C68.9590963,14.5754472 68.5750481,13.853561 65.8446778,13.853561 L65.8446778,13.0036098 L73.8651407,13.0036098 L73.8651407,13.853561 C71.1775222,13.853561 70.5376815,14.4906667 69.4710407,17.5917724 L64.6070296,32.12 L64.0526926,32.12 L59.7006259,18.8234146 L55.2641333,32.12 L54.709437,32.12 L49.9740407,17.5917724 C48.9501519,14.4906667 48.2675593,13.853561 45.7929815,13.853561 L45.7929815,13.0036098 L55.2641333,13.0036098 L55.2641333,13.853561 C52.7468037,13.853561 52.0638519,14.4480976 52.9602037,17.0816585 L55.8184704,25.7482276 L60.1274259,13.0036098 L60.9382741,13.0036098 L65.1617259,25.7482276 Z" id="Path"></path>
                        <path d="M79.6664593,31.9497236 C74.9738148,31.9497236 71.1340519,28.5091382 71.1340519,24.3030244 C71.1340519,20.1401951 74.9741741,16.6988943 79.6664593,16.6988943 C84.359463,16.6988943 88.1988667,20.1401951 88.1988667,24.3030244 C88.1988667,28.5091382 84.359463,31.9497236 79.6664593,31.9497236 Z M79.6664593,18.016748 C75.7419111,18.016748 74.3763667,21.5421138 74.3763667,24.3033821 C74.3763667,27.1075772 75.7419111,30.5907317 79.6664593,30.5907317 C83.6344778,30.5907317 84.999663,27.1075772 84.999663,24.3033821 C84.999663,21.5421138 83.6344778,18.016748 79.6664593,18.016748 Z" id="Shape"></path>
                        <path d="M131.799289,30.5481626 L131.799289,31.3977561 L122.029593,31.3977561 L122.029593,30.5481626 C124.888219,30.5481626 125.400163,29.8262764 125.400163,25.5775935 L125.400163,18.7812033 C125.400163,14.5325203 124.888219,13.8532033 122.029593,13.8532033 L122.029593,13.003252 L130.860544,13.003252 C135.254644,13.003252 137.687189,15.2547642 137.687189,18.2714472 C137.687189,21.2026341 135.254644,23.4963577 130.860544,23.4963577 L128.428719,23.4963577 L128.428719,25.5772358 C128.428719,29.8262764 128.940663,30.5481626 131.799289,30.5481626 Z M130.860544,14.5325203 L128.428719,14.5325203 L128.428719,21.9245203 L130.860544,21.9245203 C133.249978,21.9245203 134.359011,20.2679024 134.359011,18.2714472 C134.359011,16.2324228 133.249978,14.5325203 130.860544,14.5325203 Z" id="Shape"></path>
                        <path d="M166.995559,27.4048455 L166.782159,28.1693008 C166.39847,29.5712195 165.928559,30.0809756 162.899644,30.0809756 L162.302196,30.0809756 C160.08413,30.0809756 159.700081,29.5712195 159.700081,26.555252 L159.700081,24.6013659 C163.0279,24.6013659 163.284052,24.8982764 163.284052,27.1075772 L164.094541,27.1075772 L164.094541,20.7776585 L163.284052,20.7776585 C163.284052,22.9866016 163.0279,23.2838699 159.700081,23.2838699 L159.700081,18.5265041 L162.046044,18.5265041 C165.075678,18.5265041 165.544511,19.0362602 165.928559,20.4381789 L166.142319,21.2448455 L166.824552,21.2448455 L166.526367,17.251935 L153.983189,17.251935 L153.983189,18.0586016 C156.371904,18.0586016 156.756311,18.5683577 156.756311,21.5846829 L156.756311,27.022439 C156.756311,29.781561 156.430104,30.4766179 154.546507,30.5757073 C152.756319,30.3034797 151.527293,29.331187 149.8456,27.489626 L147.882967,25.3658211 C150.528193,24.8979187 151.93613,23.2416585 151.93613,21.3721951 C151.93613,19.0362602 149.931104,17.251935 146.176844,17.251935 L138.668326,17.251935 L138.668326,18.0586016 C141.057041,18.0586016 141.441089,18.5683577 141.441089,21.5846829 L141.441089,27.022439 C141.441089,30.0384065 141.0574,30.5907317 138.668326,30.5907317 L138.668326,31.3977561 L147.158341,31.3977561 L147.158341,30.5907317 C144.769626,30.5907317 144.385219,30.0384065 144.385219,27.022439 L144.385219,25.4935285 L145.110563,25.4935285 L149.845959,31.3977561 L167.379967,31.3977561 L167.636119,27.4052033 L166.995559,27.4052033 L166.995559,27.4048455 Z M144.384859,24.1756748 L144.384859,18.5265041 L146.133733,18.5265041 C148.053615,18.5265041 148.907215,19.8432846 148.907215,21.3725528 C148.907215,22.8596098 148.053615,24.1760325 146.133733,24.1760325 L144.384859,24.1760325 L144.384859,24.1756748 Z" id="Shape"></path>
                        <path d="M175.655863,31.9497236 C173.949381,31.9497236 172.455941,31.0579187 171.8161,30.5052358 C171.6027,30.7180813 171.219011,31.355187 171.133867,31.9497236 L170.323019,31.9497236 L170.323019,26.088065 L171.176259,26.088065 C171.517915,28.8915447 173.47983,30.5481626 175.997159,30.5481626 C177.362344,30.5481626 178.471737,29.7837073 178.471737,28.5094959 C178.471737,27.4052033 177.4906,26.555252 175.741367,25.7482276 L173.309541,24.6013659 C171.6027,23.793626 170.323019,22.3917073 170.323019,20.5229593 C170.323019,18.483935 172.2429,16.7425366 174.888126,16.7425366 C176.296063,16.7425366 177.490241,17.2522927 178.215944,17.8468293 C178.428985,17.6769106 178.642385,17.2093659 178.770641,16.699252 L179.58113,16.699252 L179.58113,21.7123902 L178.685137,21.7123902 C178.386233,19.7155772 177.2772,18.0589593 175.016381,18.0589593 C173.821844,18.0589593 172.712093,18.7386341 172.712093,19.8010732 C172.712093,20.9053659 173.608085,21.4999024 175.656222,22.4346341 L178.002185,23.5814959 C180.050322,24.558439 180.860452,26.1309919 180.860452,27.4052033 C180.860452,30.0809756 178.51413,31.9497236 175.655863,31.9497236 Z" id="Path"></path>
                        <path d="M188.79577,31.9497236 C187.08893,31.9497236 185.595489,31.0579187 184.956007,30.5052358 C184.742607,30.7180813 184.358919,31.355187 184.273774,31.9497236 L183.462926,31.9497236 L183.462926,26.088065 L184.316167,26.088065 C184.657463,28.8915447 186.619737,30.5481626 189.137067,30.5481626 C190.502252,30.5481626 191.611644,29.7837073 191.611644,28.5094959 C191.611644,27.4052033 190.630507,26.555252 188.880915,25.7482276 L186.449089,24.6013659 C184.742607,23.793626 183.462567,22.3917073 183.462567,20.5229593 C183.462567,18.483935 185.382448,16.7425366 188.027674,16.7425366 C189.435611,16.7425366 190.629789,17.2522927 191.355493,17.8468293 C191.568533,17.6769106 191.781933,17.2093659 191.90947,16.699252 L192.720319,16.699252 L192.720319,21.7123902 L191.824685,21.7123902 C191.525781,19.7155772 190.416748,18.0589593 188.15593,18.0589593 C186.961393,18.0589593 185.851641,18.7386341 185.851641,19.8010732 C185.851641,20.9053659 186.747633,21.4999024 188.79577,22.4346341 L191.141733,23.5814959 C193.18987,24.558439 194,26.1309919 194,27.4052033 C194,30.0809756 191.653678,31.9497236 188.79577,31.9497236 Z" id="Path"></path>
                        <path d="M3.12842963,21.9141463 C3.12842963,29.3555122 7.47151481,35.7863089 13.7693296,38.8337561 L4.76305926,14.2631545 C3.71545926,16.6012358 3.12842963,19.1886504 3.12842963,21.9141463 Z" id="Path"></path>
                        <path d="M34.7547407,20.9654634 C34.7547407,18.6420488 33.9165889,17.0330081 33.1977111,15.7806179 C32.2406444,14.2320325 31.3435741,12.9206179 31.3435741,11.3720325 C31.3435741,9.64386992 32.6599,8.03518699 34.514037,8.03518699 C34.5977444,8.03518699 34.6771407,8.04556098 34.7586926,8.05021138 C31.3996185,4.98595122 26.9243259,3.11505691 22.0089407,3.11505691 C15.4129407,3.11505691 9.60982593,6.48481301 6.23386667,11.588813 C6.67683333,11.6020488 7.09429259,11.6113496 7.44888148,11.6113496 C9.42372963,11.6113496 12.4806667,11.372748 12.4806667,11.372748 C13.4984481,11.3130081 13.6184407,12.8014959 12.601737,12.9213333 C12.601737,12.9213333 11.5789259,13.0411707 10.4407926,13.1005528 L17.3162963,33.4639675 L21.448137,21.1250081 L18.5065222,13.0998374 C17.4898185,13.0404553 16.5266444,12.9206179 16.5266444,12.9206179 C15.5092222,12.8612358 15.6284963,11.3122927 16.6459185,11.3720325 C16.6459185,11.3720325 19.7639296,11.6106341 21.6191444,11.6106341 C23.5936333,11.6106341 26.6509296,11.3720325 26.6509296,11.3720325 C27.6694296,11.3122927 27.789063,12.8007805 26.772,12.9206179 C26.772,12.9206179 25.7470333,13.0404553 24.6110556,13.0998374 L31.4341074,33.3090732 L33.3173444,27.0428293 C34.1335815,24.4425366 34.7547407,22.5748618 34.7547407,20.9654634 Z" id="Path"></path>
                        <path d="M22.3401778,23.5586016 L16.6753778,39.9491382 C18.3667704,40.4442276 20.1555222,40.7150244 22.0089407,40.7150244 C24.2076074,40.7150244 26.3161,40.3365528 28.2787333,39.6493659 C28.2280778,39.568878 28.1820926,39.4833821 28.1443704,39.390374 L22.3401778,23.5586016 Z" id="Path"></path>
                        <path d="M38.5758222,12.8945041 C38.6570148,13.4933333 38.703,14.1361626 38.703,14.8276423 C38.703,16.7353821 38.3451778,18.879935 37.2674,21.5614309 L31.5002111,38.1644553 C37.1132778,34.9052358 40.8887334,28.8500488 40.8887334,21.9145041 C40.8890926,18.6459837 40.0505815,15.5724228 38.5758222,12.8945041 Z" id="Path"></path>
                        <path d="M22.0089407,-4.26325641e-14 C9.87352222,-4.26325641e-14 -8.8817842e-13,9.83060163 -8.8817842e-13,21.9141463 C-8.8817842e-13,33.999122 9.87352222,43.8293659 22.0089407,43.8293659 C34.144,43.8293659 44.0189593,33.999122 44.0189593,21.9141463 C44.0189593,9.83060163 34.144,-4.26325641e-14 22.0089407,-4.26325641e-14 Z M22.0089407,42.824878 C10.4300148,42.824878 1.00915926,33.4442927 1.00915926,21.9141463 C1.00915926,10.3847154 10.4296556,1.00484553 22.0089407,1.00484553 C33.5875074,1.00484553 43.0076444,10.3847154 43.0076444,21.9141463 C43.0076444,33.4442927 33.5875074,42.824878 22.0089407,42.824878 Z" id="Shape"></path>
                    </g>
                </g>
            </g>
        </g>
    </g>
</svg>