<?xml version="1.0" encoding="UTF-8"?>
<svg width="181px" height="43px" viewBox="0 0 181 43" version="1.1" xmlns="http://www.w3.org/2000/svg" xmlns:xlink="http://www.w3.org/1999/xlink">
    <!-- Generator: Sketch 56.2 (81672) - https://sketch.com -->
    <title>Door4-Slate</title>
    <desc>Created with Sketch.</desc>
    <g id="Kit" stroke="none" stroke-width="1" fill="none" fill-rule="evenodd">
        <g id="Colours" transform="translate(-120.000000, -191.000000)" fill="#474747">
            <path d="M263.805233,204.911765 C263.805233,196.269608 257.56686,192.47549 249.392442,192.47549 L233.258721,192.47549 L233.258721,204.384804 C229.924419,196.269608 221.319767,191.105392 211.962209,191.105392 C205.293605,191.105392 198.947674,193.740196 194.645349,198.272059 L194.645349,198.272059 C191.203488,201.855392 189.052326,206.492647 189.052326,211.867647 L189.052326,211.867647 C189.052326,211.867647 189.052326,211.973039 189.052326,211.973039 C189.052326,218.928922 183.781977,224.093137 177.328488,224.093137 C170.875,224.093137 165.604651,219.034314 165.604651,211.973039 C165.604651,206.387255 170.875,201.223039 177.328488,201.223039 C183.351744,201.223039 188.406977,205.754902 188.944767,210.919118 C189.159884,206.071078 190.988372,201.433824 194.215116,197.745098 C189.912791,193.529412 183.781977,191 177.328488,191 C167.325581,191.105392 157.968023,197.218137 155.27907,206.492647 C152.590116,198.272059 144.523256,192.47549 135.273256,192.47549 L120,192.47549 L120,233.051471 L135.273256,233.051471 C144.738372,233.051471 152.805233,227.044118 155.386628,218.612745 C155.494186,218.928922 155.494186,219.139706 155.601744,219.455882 C155.601744,219.455882 155.601744,219.455882 155.601744,219.561275 C156.031977,220.931373 156.677326,222.301471 157.322674,223.566176 C157.322674,223.566176 157.322674,223.566176 157.322674,223.671569 C157.430233,223.882353 157.537791,224.093137 157.752907,224.303922 C157.752907,224.303922 157.752907,224.409314 157.860465,224.409314 C157.968023,224.620098 158.18314,224.830882 158.290698,225.041667 L158.290698,225.041667 C158.72093,225.779412 159.258721,226.411765 159.90407,227.044118 C159.90407,227.044118 160.011628,227.14951 160.011628,227.14951 C160.226744,227.360294 160.334302,227.465686 160.549419,227.676471 C160.656977,227.781863 160.656977,227.781863 160.764535,227.887255 C160.872093,228.098039 161.087209,228.203431 161.302326,228.308824 C161.409884,228.414216 161.409884,228.414216 161.517442,228.519608 C161.625,228.625 161.840116,228.835784 162.055233,228.941176 C162.055233,228.941176 162.162791,229.046569 162.162791,229.046569 C162.485465,229.362745 162.915698,229.678922 163.238372,229.889706 C163.34593,229.889706 163.34593,229.995098 163.453488,229.995098 C163.561047,230.10049 163.776163,230.205882 163.883721,230.311275 C163.991279,230.416667 164.098837,230.522059 164.206395,230.522059 C164.313953,230.627451 164.52907,230.732843 164.636628,230.838235 C164.744186,230.943627 164.851744,230.943627 165.06686,231.04902 C165.174419,231.154412 165.389535,231.259804 165.497093,231.365196 C165.604651,231.470588 165.819767,231.470588 165.927326,231.57598 C166.034884,231.681373 166.25,231.786765 166.357558,231.786765 C166.572674,231.892157 166.895349,231.997549 167.110465,232.102941 C167.218023,232.208333 167.43314,232.208333 167.540698,232.313725 C167.755814,232.419118 167.97093,232.52451 168.078488,232.52451 C168.186047,232.629902 168.401163,232.629902 168.508721,232.629902 C168.723837,232.735294 168.831395,232.735294 169.046512,232.840686 C169.15407,232.840686 169.369186,232.946078 169.476744,232.946078 C169.69186,233.051471 169.906977,233.051471 170.014535,233.156863 C170.122093,233.156863 170.337209,233.262255 170.444767,233.262255 C170.659884,233.367647 170.982558,233.367647 171.197674,233.473039 C171.305233,233.473039 171.412791,233.473039 171.520349,233.578431 C171.843023,233.683824 172.165698,233.683824 172.59593,233.789216 C172.703488,233.789216 172.811047,233.789216 172.918605,233.789216 C173.133721,233.789216 173.456395,233.894608 173.671512,233.894608 C173.77907,233.894608 173.886628,233.894608 174.101744,233.894608 C174.31686,233.894608 174.531977,233.894608 174.854651,234 C174.962209,234 175.177326,234 175.284884,234 C175.5,234 175.822674,234 176.037791,234 C176.145349,234 176.252907,234 176.360465,234 C176.790698,234 177.113372,234 177.543605,234 C184.642442,234 190.773256,231.365196 194.860465,226.833333 C198.947674,231.365196 204.97093,234 212.177326,234 C222.287791,234 230.354651,228.625 233.581395,220.193627 L233.581395,232.629902 L244.337209,232.629902 L244.337209,217.453431 L244.444767,217.453431 L254.555233,233.051471 L268,233.051471 L254.770349,216.39951 C260.686047,215.345588 263.805233,210.497549 263.805233,204.911765 L263.805233,204.911765 Z M133.298507,224 L131,224 L131,201 L133.507463,201 C140.19403,201 145,205.152778 145,212.5 C144.895522,220.486111 139.567164,224 133.298507,224 Z M212.5,224 C206.169725,224 201,218.912442 201,211.81106 C201,206.193548 206.169725,201 212.5,201 C218.830275,201 224,206.087558 224,211.81106 C224,218.912442 218.830275,224 212.5,224 Z M246.012658,210 L245,210 L245,200 L246.012658,200 C249.35443,200 253,200.625 253,205 C253,209.375 249.35443,210 246.012658,210 Z M296.06135,216.280519 L296.06135,192 L281.996933,192 L266,217.664935 L266,224.480519 L286.076687,224.480519 L286.076687,233 L296.06135,233 L296.06135,224.480519 L301,224.480519 L301,216.280519 L296.06135,216.280519 Z M285,216 L276,216 L284.901099,201 L285,201 L285,216 Z" id="Door4-Slate"></path>
        </g>
    </g>
</svg>