<?xml version="1.0" encoding="UTF-8"?>
<svg width="181px" height="43px" viewBox="0 0 181 43" version="1.1" xmlns="http://www.w3.org/2000/svg" xmlns:xlink="http://www.w3.org/1999/xlink">
    <!-- Generator: Sketch 56.2 (81672) - https://sketch.com -->
    <title>Door4-Grey 9</title>
    <desc>Created with Sketch.</desc>
    <g id="Kit" stroke="none" stroke-width="1" fill="none" fill-rule="evenodd">
        <g id="Colours" transform="translate(-804.000000, -191.000000)" fill="#FAFAFA">
            <path d="M947.805233,204.911765 C947.805233,196.269608 941.56686,192.47549 933.392442,192.47549 L917.258721,192.47549 L917.258721,204.384804 C913.924419,196.269608 905.319767,191.105392 895.962209,191.105392 C889.293605,191.105392 882.947674,193.740196 878.645349,198.272059 L878.645349,198.272059 C875.203488,201.855392 873.052326,206.492647 873.052326,211.867647 L873.052326,211.867647 C873.052326,211.867647 873.052326,211.973039 873.052326,211.973039 C873.052326,218.928922 867.781977,224.093137 861.328488,224.093137 C854.875,224.093137 849.604651,219.034314 849.604651,211.973039 C849.604651,206.387255 854.875,201.223039 861.328488,201.223039 C867.351744,201.223039 872.406977,205.754902 872.944767,210.919118 C873.159884,206.071078 874.988372,201.433824 878.215116,197.745098 C873.912791,193.529412 867.781977,191 861.328488,191 C851.325581,191.105392 841.968023,197.218137 839.27907,206.492647 C836.590116,198.272059 828.523256,192.47549 819.273256,192.47549 L804,192.47549 L804,233.051471 L819.273256,233.051471 C828.738372,233.051471 836.805233,227.044118 839.386628,218.612745 C839.494186,218.928922 839.494186,219.139706 839.601744,219.455882 C839.601744,219.455882 839.601744,219.455882 839.601744,219.561275 C840.031977,220.931373 840.677326,222.301471 841.322674,223.566176 C841.322674,223.566176 841.322674,223.566176 841.322674,223.671569 C841.430233,223.882353 841.537791,224.093137 841.752907,224.303922 C841.752907,224.303922 841.752907,224.409314 841.860465,224.409314 C841.968023,224.620098 842.18314,224.830882 842.290698,225.041667 L842.290698,225.041667 C842.72093,225.779412 843.258721,226.411765 843.90407,227.044118 C843.90407,227.044118 844.011628,227.14951 844.011628,227.14951 C844.226744,227.360294 844.334302,227.465686 844.549419,227.676471 C844.656977,227.781863 844.656977,227.781863 844.764535,227.887255 C844.872093,228.098039 845.087209,228.203431 845.302326,228.308824 C845.409884,228.414216 845.409884,228.414216 845.517442,228.519608 C845.625,228.625 845.840116,228.835784 846.055233,228.941176 C846.055233,228.941176 846.162791,229.046569 846.162791,229.046569 C846.485465,229.362745 846.915698,229.678922 847.238372,229.889706 C847.34593,229.889706 847.34593,229.995098 847.453488,229.995098 C847.561047,230.10049 847.776163,230.205882 847.883721,230.311275 C847.991279,230.416667 848.098837,230.522059 848.206395,230.522059 C848.313953,230.627451 848.52907,230.732843 848.636628,230.838235 C848.744186,230.943627 848.851744,230.943627 849.06686,231.04902 C849.174419,231.154412 849.389535,231.259804 849.497093,231.365196 C849.604651,231.470588 849.819767,231.470588 849.927326,231.57598 C850.034884,231.681373 850.25,231.786765 850.357558,231.786765 C850.572674,231.892157 850.895349,231.997549 851.110465,232.102941 C851.218023,232.208333 851.43314,232.208333 851.540698,232.313725 C851.755814,232.419118 851.97093,232.52451 852.078488,232.52451 C852.186047,232.629902 852.401163,232.629902 852.508721,232.629902 C852.723837,232.735294 852.831395,232.735294 853.046512,232.840686 C853.15407,232.840686 853.369186,232.946078 853.476744,232.946078 C853.69186,233.051471 853.906977,233.051471 854.014535,233.156863 C854.122093,233.156863 854.337209,233.262255 854.444767,233.262255 C854.659884,233.367647 854.982558,233.367647 855.197674,233.473039 C855.305233,233.473039 855.412791,233.473039 855.520349,233.578431 C855.843023,233.683824 856.165698,233.683824 856.59593,233.789216 C856.703488,233.789216 856.811047,233.789216 856.918605,233.789216 C857.133721,233.789216 857.456395,233.894608 857.671512,233.894608 C857.77907,233.894608 857.886628,233.894608 858.101744,233.894608 C858.31686,233.894608 858.531977,233.894608 858.854651,234 C858.962209,234 859.177326,234 859.284884,234 C859.5,234 859.822674,234 860.037791,234 C860.145349,234 860.252907,234 860.360465,234 C860.790698,234 861.113372,234 861.543605,234 C868.642442,234 874.773256,231.365196 878.860465,226.833333 C882.947674,231.365196 888.97093,234 896.177326,234 C906.287791,234 914.354651,228.625 917.581395,220.193627 L917.581395,232.629902 L928.337209,232.629902 L928.337209,217.453431 L928.444767,217.453431 L938.555233,233.051471 L952,233.051471 L938.770349,216.39951 C944.686047,215.345588 947.805233,210.497549 947.805233,204.911765 L947.805233,204.911765 Z M817.298507,224 L815,224 L815,201 L817.507463,201 C824.19403,201 829,205.152778 829,212.5 C828.895522,220.486111 823.567164,224 817.298507,224 Z M896.5,224 C890.169725,224 885,218.912442 885,211.81106 C885,206.193548 890.169725,201 896.5,201 C902.830275,201 908,206.087558 908,211.81106 C908,218.912442 902.830275,224 896.5,224 Z M930.012658,210 L929,210 L929,200 L930.012658,200 C933.35443,200 937,200.625 937,205 C937,209.375 933.35443,210 930.012658,210 Z M980.06135,216.280519 L980.06135,192 L965.996933,192 L950,217.664935 L950,224.480519 L970.076687,224.480519 L970.076687,233 L980.06135,233 L980.06135,224.480519 L985,224.480519 L985,216.280519 L980.06135,216.280519 Z M969,216 L960,216 L968.901099,201 L969,201 L969,216 Z" id="Door4-Grey-9"></path>
        </g>
    </g>
</svg>