<svg id="Layer_1" data-name="Layer 1" xmlns="http://www.w3.org/2000/svg" viewBox="0 0 124 124"><defs><style>.cls-1{fill:#1d1d1b;}</style></defs><title>orgainic-search</title><path class="cls-1" d="M41.06,12.64A27.91,27.91,0,0,1,61,20.87,28.37,28.37,0,0,1,40.76,69.18,27.91,27.91,0,0,1,20.87,61,28.37,28.37,0,0,1,41.06,12.64v-2h0a30.16,30.16,0,1,0,21.31,8.81,30.34,30.34,0,0,0-21.31-8.81Z"/><path class="cls-1" d="M120.83,104.43,85.61,69.21,83.12,71.7l-8.59-8.59A40.21,40.21,0,0,0,41.11.53v4A36.14,36.14,0,0,1,77.29,40.8,36.64,36.64,0,0,1,40.71,77.29,36,36,0,0,1,15.11,66.7a36.53,36.53,0,0,1,26-62.17v-4h0a40.52,40.52,0,0,0-28.82,69,40.33,40.33,0,0,0,52,4.18l8.41,8.41-3.49,3.49,35.22,35.22a9,9,0,0,0,12.73,0l3.67-3.67A9,9,0,0,0,120.83,104.43ZM72.53,66.77l7.58,7.58-4.77,4.76-7.57-7.58ZM118,114.34,114.34,118a5,5,0,0,1-7.09,0L74.86,85.61,85.61,74.86,118,107.25a5,5,0,0,1,0,7.09Z"/><path class="cls-1" d="M26.63,40.57l0,.1,0,.11a5.42,5.42,0,0,1-.39,1.33,10.23,10.23,0,0,1-3.4.38l-1.43,0-1.23-.05-.6,1.08c-.71,1.27-1,3.07.18,4.29l.64.64.91-.06A30,30,0,0,0,27.57,47c.07.11.14.24.23.41,1.27,2.42,5,4,9.24,4A22.43,22.43,0,0,0,46.81,49C59.33,43,62,34.57,62.11,34.21l.44-1.43L61.29,32a30.8,30.8,0,0,0-15.48-4.33,26,26,0,0,0-3.75.26C32.87,29.21,28.68,32.64,26.63,40.57Zm15.71-10.7a24.5,24.5,0,0,1,3.47-.24,29.16,29.16,0,0,1,13.9,3.71,185.07,185.07,0,0,1-28.61,9.5.5.5,0,0,0,.11,1h.12a186.87,186.87,0,0,0,28.6-9.49c-.88,2-4.22,8.19-14,12.91A20.5,20.5,0,0,1,37,49.48c-4,0-6.72-1.55-7.46-3s-1.38-1.67-1.66-1.67a.39.39,0,0,0-.16,0,29.67,29.67,0,0,1-6.63,1.51c-.59-.59.15-1.91.15-1.91l1.51,0a10.1,10.1,0,0,0,4.53-.7c.91-.5,1.24-2.72,1.24-2.72C30.37,34.13,33.77,31.1,42.34,29.87Z"/></svg>