<svg id="Layer_1" data-name="Layer 1" xmlns="http://www.w3.org/2000/svg" viewBox="0 0 124 124"><title>paid-search</title><path d="M41.06,12.64A27.91,27.91,0,0,1,61,20.87,28.37,28.37,0,0,1,40.76,69.18,28.1,28.1,0,0,1,12.64,41,28.44,28.44,0,0,1,41.06,12.64v-2h0a30.16,30.16,0,1,0,21.31,8.81,30.34,30.34,0,0,0-21.31-8.81Z"/><path d="M120.83,104.43,85.61,69.21,83.12,71.7l-8.59-8.59A40.21,40.21,0,0,0,41.11.53v4A36,36,0,0,1,66.7,15.11a36.53,36.53,0,0,1-26,62.18A36.16,36.16,0,0,1,4.53,41,36.64,36.64,0,0,1,41.11,4.53v-4h0a40.52,40.52,0,0,0-28.82,69,40.33,40.33,0,0,0,52,4.18l8.41,8.41-3.49,3.49,35.22,35.22a9,9,0,0,0,12.73,0l3.67-3.67A9,9,0,0,0,120.83,104.43ZM72.53,66.77l7.58,7.58-4.77,4.76-7.57-7.58ZM118,114.34,114.34,118a5,5,0,0,1-7.08,0L74.86,85.61,85.61,74.86,118,107.25a5,5,0,0,1,0,7.09Z"/><path d="M35.26,35.13c0,1.13,0,2,.07,2.84H32.19v2.78h3.27c0,.29,0,.58,0,.89,0,3.64-.65,6.13-2.81,7.25v2.9H49.47l.47-3.19H37.15c1.36-1.61,1.9-4,1.9-7.19,0-.24,0-.44,0-.66h5.42V38H39c0-1-.07-1.92-.07-3.15,0-2.95.74-4.74,3.32-4.74,2.1,0,3.06,1.34,3.39,3.13h3.5C48.88,30.53,47.29,27,42.3,27S35.26,30.42,35.26,35.13Z"/></svg>