<svg id="Layer_1" data-name="Layer 1" xmlns="http://www.w3.org/2000/svg" viewBox="0 0 124 124"><defs><style>.cls-1{fill:#1d1d1b;}</style></defs><title>site-speed-audit</title><polygon class="cls-1" points="112.93 102.49 110.11 105.32 114.61 109.83 14.51 109.83 14.51 13.22 19.02 17.73 21.85 14.9 12.51 5.56 3.17 14.9 6 17.73 10.51 13.22 10.51 113.83 114.61 113.83 110.11 118.34 112.93 121.17 122.27 111.83 112.93 102.49"/><path class="cls-1" d="M26,102.8H42.12a3,3,0,0,0,3-3V61.4a3,3,0,0,0-3-3H26a3,3,0,0,0-3,3V99.8A3,3,0,0,0,26,102.8ZM25,61.4a1,1,0,0,1,1-1H42.12a1,1,0,0,1,1,1V99.8a1,1,0,0,1-1,1H26a1,1,0,0,1-1-1Z"/><path class="cls-1" d="M53.49,102.8H69.66a3,3,0,0,0,3-3V38.24a3,3,0,0,0-3-3H53.49a3,3,0,0,0-3,3V99.8A3,3,0,0,0,53.49,102.8ZM70.66,48.16v6.71L52.49,46.06V39.35Zm0,8.93V63.8L52.49,55V48.28Zm0,8.94v6.7L52.49,63.92V57.21Zm0,8.93v6.71L52.49,72.86V66.15Zm0,8.93V90.6L52.49,81.79V75.08Zm0,8.93v6.71L52.49,90.72V84Zm-18.17,7V92.94l16.2,7.86H53.49A1,1,0,0,1,52.49,99.8ZM69.66,37.24a1,1,0,0,1,1,1v7.7L53,37.38a1,1,0,0,1,.48-.14Z"/><path class="cls-1" d="M81.66,102.8H97.83a3,3,0,0,0,3-3v-83a3,3,0,0,0-3-3H81.66a3,3,0,0,0-3,3v83A3,3,0,0,0,81.66,102.8Zm-1-86a1,1,0,0,1,1-1H97.83a1,1,0,0,1,1,1v83a1,1,0,0,1-1,1H81.66a1,1,0,0,1-1-1Z"/></svg>