<svg id="Layer_1" data-name="Layer 1" xmlns="http://www.w3.org/2000/svg" viewBox="0 0 124 124"><title>user-research</title><path d="M122.54,61.81c-.29-4.51-4-8.23-7.36-8.86l-.13,0a16.59,16.59,0,1,0-29.3-.36l-1.68.28c-.89-4.42-4.1-7.68-7-8.33l-.13,0a17.8,17.8,0,0,0,2.42-9,18,18,0,1,0-35.94,0,17.8,17.8,0,0,0,2.42,9l-.12,0c-2.87.62-6.06,4-7,8.28L37,52.48A16.57,16.57,0,1,0,7.7,53,10.07,10.07,0,0,0,.57,61.82c-.36,5.7,1.14,18.81,1.88,23.91a11.08,11.08,0,0,0,9.7,9.58,95.72,95.72,0,0,0,10,.41c5,0,10.22-.21,13.27-.56a11.33,11.33,0,0,0,4.9-1.76s0,.09,0,.14c.83,6.77,5.39,10.38,9.54,10.95a79.71,79.71,0,0,0,9.91.49,109.56,109.56,0,0,0,13.11-.67c4.25-.58,8.84-4.15,9.52-10.81l0-.26a11.43,11.43,0,0,0,5.21,2.07,95.51,95.51,0,0,0,10,.41c5,0,10.23-.21,13.28-.56a10.81,10.81,0,0,0,9.68-9.47C121.28,80.71,122.9,67.48,122.54,61.81ZM100.49,32.4A12.59,12.59,0,1,1,87.91,45,12.6,12.6,0,0,1,100.49,32.4ZM61.41,21.55a14,14,0,1,1-14,14A14,14,0,0,1,61.41,21.55ZM22.24,32.45A12.59,12.59,0,1,1,9.66,45,12.59,12.59,0,0,1,22.24,32.45ZM35,91.19a140.37,140.37,0,0,1-22.38.15,7.15,7.15,0,0,1-6.2-6.18c-.8-5.54-2.17-18-1.84-23.09a6,6,0,0,1,4.09-5.19l.23,0,1.47-.26a16.51,16.51,0,0,0,24.17-.45c1.17.18,2.76.45,3.95.67,0,7.11.77,22.83,1.43,31.61A7.31,7.31,0,0,1,35,91.19Zm43.89-3c-.18,2.31-.31,3.91-.41,4.88-.49,4.81-3.58,6.92-6.08,7.26-5,.69-16.72.9-21.94.18-2-.27-5.46-2.15-6.11-7.49-.11-.85-.24-2.23-.38-4.22-.71-9-1.65-27.39-1.46-33.48,0-.2,0-.4,0-.56.2-3.59,2.79-6.09,4.07-6.36.66-.15,1.3-.27,1.95-.39A17.9,17.9,0,0,0,74.3,48l1.91.4c1.33.3,3.9,2.75,4.09,6.35l0,.77C80.49,61.38,79.57,78.57,78.88,88.21Zm37.82-3c-.64,5.2-5.6,5.92-6.17,6a140.38,140.38,0,0,1-22.38.15,7.19,7.19,0,0,1-5.24-3.44c.66-9.33,1.45-24.19,1.44-31.05,1.46-.26,2.76-.47,4-.64v0a16.51,16.51,0,0,0,24.09.32l2,.37a6.08,6.08,0,0,1,4.12,5.19C118.88,67.37,117.29,80.32,116.7,85.2Z"/></svg>