<svg id="Layer_1" data-name="Layer 1" xmlns="http://www.w3.org/2000/svg" viewBox="0 0 124 124"><defs><style>.cls-1{fill:#1d1d1b;}</style></defs><title>ux-audit</title><path class="cls-1" d="M92.66,6.93H48l-4.55,0L22.33,30.32l0,5.88h0v74.26a6.61,6.61,0,0,0,6.6,6.6H92.66a6.61,6.61,0,0,0,6.6-6.6V13.53A6.61,6.61,0,0,0,92.66,6.93ZM41.47,15.69v9.12a2.21,2.21,0,0,1-2.2,2.2h-8Zm53.39,94.77a2.2,2.2,0,0,1-2.2,2.2H28.92a2.19,2.19,0,0,1-2.2-2.2V33.61a2.2,2.2,0,0,1,2.2-2.2H39.27a6.61,6.61,0,0,0,6.6-6.6V13.53a2.2,2.2,0,0,1,2.18-2.2H92.66a2.21,2.21,0,0,1,2.2,2.2Z"/><path class="cls-1" d="M83.42,48.87H52.91a.88.88,0,0,0,0,1.76H83.42a.88.88,0,0,0,0-1.76Z"/><path class="cls-1" d="M83.42,62.92H52.91a.88.88,0,1,0,0,1.76H83.42a.88.88,0,1,0,0-1.76Z"/><path class="cls-1" d="M83.42,77H52.91a.88.88,0,0,0,0,1.76H83.42a.88.88,0,0,0,0-1.76Z"/><path class="cls-1" d="M83.42,91.12H52.91a.88.88,0,0,0,0,1.76H83.42a.88.88,0,1,0,0-1.76Z"/><path class="cls-1" d="M39.73,44.81a4.94,4.94,0,1,0,4.94,4.94A4.94,4.94,0,0,0,39.73,44.81Zm0,8.12a3.18,3.18,0,1,1,3.18-3.18A3.18,3.18,0,0,1,39.73,52.93Z"/><path class="cls-1" d="M39.73,58.86a4.94,4.94,0,1,0,4.94,4.94A4.94,4.94,0,0,0,39.73,58.86Zm0,8.12a3.18,3.18,0,1,1,3.18-3.18A3.18,3.18,0,0,1,39.73,67Z"/><path class="cls-1" d="M39.73,72.91a4.94,4.94,0,1,0,4.94,4.94A4.94,4.94,0,0,0,39.73,72.91Zm0,8.12a3.18,3.18,0,1,1,3.18-3.18A3.18,3.18,0,0,1,39.73,81Z"/><path class="cls-1" d="M39.73,87a4.94,4.94,0,1,0,4.94,4.94A4.94,4.94,0,0,0,39.73,87Zm0,8.12a3.18,3.18,0,1,1,3.18-3.18A3.18,3.18,0,0,1,39.73,95.08Z"/></svg>