<?xml version="1.0" encoding="UTF-8"?>
<svg width="429px" height="102px" viewBox="0 0 429 102" version="1.1" xmlns="http://www.w3.org/2000/svg" xmlns:xlink="http://www.w3.org/1999/xlink">
    <!-- Generator: Sketch 58 (84663) - https://sketch.com -->
    <title>i/Door4-FFEA00</title>
    <desc>Created with Sketch.</desc>
    <g id="i/Door4-FFEA00" stroke="none" stroke-width="1" fill="none" fill-rule="evenodd">
        <path d="M340.842236,33 C340.842236,12.5 326.05626,3.5 306.681533,3.5 L268.441941,3.5 L268.441941,31.75 C260.539092,12.5 240.144642,0.25 217.965678,0.25 C202.15998,0.25 187.119074,6.5 176.921849,17.25 L176.921849,17.25 C168.764069,25.75 163.665457,36.75 163.665457,49.5 L163.665457,49.5 C163.665457,49.5 163.665457,49.75 163.665457,49.75 C163.665457,66.25 151.173856,78.5 135.878019,78.5 C120.582182,78.5 108.090582,66.5 108.090582,49.75 C108.090582,36.5 120.582182,24.25 135.878019,24.25 C150.154134,24.25 162.135873,35 163.410526,47.25 C163.920387,35.75 168.254208,24.75 175.902126,16 C165.704902,6 151.173856,0 135.878019,0 C112.169472,0.25 89.9905082,14.75 83.6172427,36.75 C77.2439773,17.25 58.1241809,3.5 36.2001478,3.5 L0,3.5 L0,99.75 L36.2001478,99.75 C58.6340421,99.75 77.7538385,85.5 83.8721733,65.5 C84.1271039,66.25 84.1271039,66.75 84.3820346,67.5 C84.3820346,67.5 84.3820346,67.5 84.3820346,67.75 C85.401757,71 86.9313407,74.25 88.4609245,77.25 C88.4609245,77.25 88.4609245,77.25 88.4609245,77.5 C88.7158551,78 88.9707857,78.5 89.4806469,79 C89.4806469,79 89.4806469,79.25 89.7355775,79.25 C89.9905082,79.75 90.5003694,80.25 90.7553,80.75 L90.7553,80.75 C91.7750225,82.5 93.0496756,84 94.5792593,85.5 C94.5792593,85.5 94.8341899,85.75 94.8341899,85.75 C95.3440511,86.25 95.5989818,86.5 96.108843,87 C96.3637736,87.25 96.3637736,87.25 96.6187042,87.5 C96.8736348,88 97.3834961,88.25 97.8933573,88.5 C98.1482879,88.75 98.1482879,88.75 98.4032186,89 C98.6581492,89.25 99.1680104,89.75 99.6778716,90 C99.6778716,90 99.9328023,90.25 99.9328023,90.25 C100.697594,91 101.717317,91.75 102.482108,92.25 C102.737039,92.25 102.737039,92.5 102.99197,92.5 C103.2469,92.75 103.756762,93 104.011692,93.25 C104.266623,93.5 104.521553,93.75 104.776484,93.75 C105.031415,94 105.541276,94.25 105.796206,94.5 C106.051137,94.75 106.306068,94.75 106.815929,95 C107.07086,95.25 107.580721,95.5 107.835651,95.75 C108.090582,96 108.600443,96 108.855374,96.25 C109.110305,96.5 109.620166,96.75 109.875096,96.75 C110.384958,97 111.149749,97.25 111.659611,97.5 C111.914541,97.75 112.424403,97.75 112.679333,98 C113.189194,98.25 113.699056,98.5 113.953986,98.5 C114.208917,98.75 114.718778,98.75 114.973709,98.75 C115.48357,99 115.738501,99 116.248362,99.25 C116.503292,99.25 117.013154,99.5 117.268084,99.5 C117.777946,99.75 118.287807,99.75 118.542737,100 C118.797668,100 119.307529,100.25 119.56246,100.25 C120.072321,100.5 120.837113,100.5 121.346974,100.75 C121.601905,100.75 121.856835,100.75 122.111766,101 C122.876558,101.25 123.64135,101.25 124.661072,101.5 C124.916003,101.5 125.170933,101.5 125.425864,101.5 C125.935725,101.5 126.700517,101.75 127.210378,101.75 C127.465309,101.75 127.72024,101.75 128.230101,101.75 C128.739962,101.75 129.249823,101.75 130.014615,102 C130.269546,102 130.779407,102 131.034338,102 C131.544199,102 132.308991,102 132.818852,102 C133.073783,102 133.328713,102 133.583644,102 C134.603366,102 135.368158,102 136.387881,102 C153.213301,102 167.744347,95.75 177.43171,85 C187.119074,95.75 201.395188,102 218.47554,102 C242.439018,102 261.558814,89.25 269.206733,69.25 L269.206733,98.75 L294.699794,98.75 L294.699794,62.75 L294.954725,62.75 L318.918203,99.75 L350.78453,99.75 L319.428064,60.25 C333.449248,57.75 340.842236,46.25 340.842236,33 L340.842236,33 Z M31.5196669,78.2790698 L26.0718232,78.2790698 L26.0718232,23.7209302 L32.0149254,23.7209302 C47.8631978,23.7209302 59.2541436,33.5717054 59.2541436,51 C59.0065144,69.9437984 46.3774223,78.2790698 31.5196669,78.2790698 Z M219.240331,78.2790698 C204.23653,78.2790698 191.983425,66.2109099 191.983425,49.36577 C191.983425,36.0405101 204.23653,23.7209302 219.240331,23.7209302 C234.244133,23.7209302 246.497238,35.7890901 246.497238,49.36577 C246.497238,66.2109099 234.244133,78.2790698 219.240331,78.2790698 Z M298.670886,45.0697674 L296.270718,45.0697674 L296.270718,21.3488372 L298.670886,21.3488372 C306.59144,21.3488372 315.232044,22.8313953 315.232044,33.2093023 C315.232044,43.5872093 306.59144,45.0697674 298.670886,45.0697674 Z M417.29458,59.9677439 L417.29458,2.37209302 L383.95958,2.37209302 L346.044199,63.2517064 L346.044199,79.4189067 L393.629275,79.4189067 L393.629275,99.627907 L417.29458,99.627907 L417.29458,79.4189067 L429,79.4189067 L429,59.9677439 L417.29458,59.9677439 Z M391.077348,59.3023256 L369.745856,59.3023256 L390.842936,23.7209302 L391.077348,23.7209302 L391.077348,59.3023256 Z" id="Door4-white" fill="#FFEA00"></path>
    </g>
</svg>