<?xml version="1.0" encoding="UTF-8"?>
<svg width="250px" height="26px" viewBox="0 0 250 26" version="1.1" xmlns="http://www.w3.org/2000/svg" xmlns:xlink="http://www.w3.org/1999/xlink">
    <!-- Generator: Sketch 59.1 (86144) - https://sketch.com -->
    <title>ChelsomBrand</title>
    <desc>Created with Sketch.</desc>
    <g id="Pages" stroke="none" stroke-width="1" fill="none" fill-rule="evenodd">
        <g id="01-Home--Clients-Tech" transform="translate(-1333.000000, -2014.000000)">
            <g id="Client-Block" transform="translate(401.000000, 1970.000000)">
                <g id="ChelsomBrand" transform="translate(912.000000, 0.000000)">
                    <rect id="Mask" x="0" y="0" width="289" height="112"></rect>
                    <g transform="translate(19.325000, 44.000000)" fill="#474747" fill-rule="nonzero">
                        <path d="M53.1017806,26 C50.4513977,26 48.0282601,25.0665269 46.210785,23.3422773 C43.675,20.9362554 43.675,18.4227156 43.675,12.9997523 C43.675,7.5777799 43.675,5.06424011 46.210785,2.65772273 C48.0282601,0.933968556 50.4513977,0 53.1017806,0 C56.3958629,0 58.5922428,1.2213435 60.675,3.12445927 L58.7443899,4.9557313 C57.0780865,3.41183421 55.6765777,2.44219152 53.1022683,2.44219152 C51.3233176,2.44219152 49.6194652,3.08828966 48.4452017,4.23778942 C46.7418369,5.88969986 46.5526283,7.64962363 46.5526283,12.9997523 C46.5526283,18.3508718 46.7418369,20.1112911 48.4452017,21.7627061 C49.6199528,22.9122058 51.3233176,23.5578085 53.1022683,23.5578085 C55.6770653,23.5578085 57.0785742,22.5886613 58.7443899,21.0447642 L60.675,22.8755407 C58.5927304,24.7786565 56.3963505,26 53.1017806,26" id="Path"></path>
                        <polygon id="Path" points="81.7288338 25 81.7288338 13.5885784 68.6216656 13.5885784 68.6216656 25 65.675 25 65.675 0 68.6216656 0 68.6216656 11.2011666 81.7288338 11.2011666 81.7288338 0 84.675 0 84.675 25"></polygon>
                        <polygon id="Path" points="92.675 25 92.675 0 109.675 0 107.994122 2.38741183 95.5978348 2.38741183 95.5978348 11.2011666 107.597806 11.2011666 107.597806 13.5885784 95.5978348 13.5885784 95.5978348 22.6121037 107.994122 22.6121037 109.675 25"></polygon>
                        <polygon id="Path" points="116.675 25 116.675 0 119.608366 0 119.608366 22.6121037 131.986785 22.6121037 133.675 25"></polygon>
                        <path d="M144.135044,26 C139.986629,26 137.272629,25.0298434 134.675,22.6242711 L136.690273,20.7562984 C138.978244,22.8749857 141.110387,23.5572665 144.213457,23.5572665 C148.246,23.5572665 150.729256,21.7978046 150.729256,18.817967 C150.729256,17.4890803 150.302228,16.3390632 149.410713,15.6211076 C148.518199,14.903152 147.819472,14.6876167 145.802701,14.4012273 L142.584258,13.9339864 C140.451116,13.6104356 138.706544,12.9648207 137.504872,11.994664 C136.108915,10.8451424 135.411186,9.26603651 135.411186,7.2182033 C135.411186,2.8728132 138.784458,0 144.253413,0 C147.781014,0 150.108442,0.825970957 152.474327,2.80146358 L150.572429,4.56092541 C148.867813,3.12451881 147.044329,2.37039296 144.134545,2.37039296 C140.451116,2.37039296 138.317974,4.27404048 138.317974,7.11068339 C138.317974,8.36822045 138.706045,9.37306094 139.558602,10.0548462 C140.413657,10.7376224 141.846074,11.2405382 143.281487,11.4560735 L146.305645,11.8871441 C148.904273,12.2468651 150.184857,12.7482944 151.348571,13.6827762 C152.859901,14.8674772 153.675,16.6264436 153.675,18.7461219 C153.675999,23.2342112 149.874201,26 144.135044,26" id="Path"></path>
                        <path d="M172.868612,4.27404048 C171.686302,3.12451881 169.969349,2.44223806 168.175737,2.44223806 C166.382125,2.44223806 164.664681,3.12451881 163.481388,4.27404048 C161.764926,5.92548691 161.573771,7.64976941 161.573771,12.999009 C161.573771,18.3507261 161.764926,20.0740176 163.481388,21.726455 C164.664681,22.8749857 166.381634,23.5572665 168.175737,23.5572665 C169.968857,23.5572665 171.686302,22.8749857 172.868612,21.726455 C174.585565,20.0740176 174.776229,18.3507261 174.776229,12.999009 C174.775737,7.64976941 174.585565,5.92548691 172.868612,4.27404048 M175.119717,23.3427221 C173.287285,25.0665091 170.883354,26 168.175737,26 C165.465663,26 163.063698,25.0665091 161.230283,23.3427221 C158.675,20.9361589 158.675,18.4230667 158.675,12.9995045 C158.675,7.57792431 158.675,5.06433662 161.230283,2.65777337 C163.063206,0.933986355 165.465663,0 168.175737,0 C170.883354,0 173.286794,0.933986355 175.119717,2.65777337 C177.675,5.06384114 177.675,7.57792431 177.675,12.9995045 C177.675,18.4230667 177.675,20.9356634 175.119717,23.3427221" id="Shape"></path>
                        <polygon id="Path" points="196.23376 19.3208022 187.540166 5.39046604 187.540166 25 184.675 25 184.675 0 187.540166 0 196.287179 14.0480574 204.809348 0 207.675 0 207.675 25 204.809348 25 204.809348 5.39046604"></polygon>
                        <polygon id="Path" points="0.675 11.9353234 33.675 11 33.675 13"></polygon>
                        <polygon id="Path" points="250.675 11.9353234 217.675 11 217.675 13"></polygon>
                    </g>
                </g>
            </g>
        </g>
    </g>
</svg>