<svg id="Layer_1" data-name="Layer 1" xmlns="http://www.w3.org/2000/svg" viewBox="0 0 124 124"><defs><style>.cls-1{fill:#1d1d1b;}</style></defs><title>cross-territory-capability</title><path class="cls-1" d="M62.29,3.09a59.53,59.53,0,1,0,59.53,59.53A59.59,59.59,0,0,0,62.29,3.09ZM7.79,63.62H27.33A63.57,63.57,0,0,0,32.46,88H14.07A54.14,54.14,0,0,1,7.79,63.62Zm55.5-28.41V8.11l1.35,0A69.65,69.65,0,0,1,89,35.21Zm26.66,2a61.53,61.53,0,0,1,5.31,24.41h-32V37.21ZM61.29,8.11v27.1H35.58A69.88,69.88,0,0,1,60,8.15Zm0,29.1V61.62h-32a61.35,61.35,0,0,1,5.32-24.41Zm-34,24.41H7.79a54.18,54.18,0,0,1,6.28-24.41H32.46A63.62,63.62,0,0,0,27.33,61.62Zm2,2h32V88H34.64A61.34,61.34,0,0,1,29.33,63.62Zm32,26.4v27.1l-1.35,0A69.78,69.78,0,0,1,35.57,90Zm2,27.1V90H89a69.93,69.93,0,0,1-24.37,27.07Zm0-29.1V63.62h32A61.34,61.34,0,0,1,89.94,88Zm34-24.4H116.8A54.14,54.14,0,0,1,110.52,88H92.12A63.38,63.38,0,0,0,97.26,63.62Zm0-2a63.43,63.43,0,0,0-5.14-24.41h18.4a54.18,54.18,0,0,1,6.28,24.41Zm12.15-26.41H91.21A71.49,71.49,0,0,0,68.65,8.47,54.62,54.62,0,0,1,109.41,35.21ZM55.94,8.47A71.49,71.49,0,0,0,33.38,35.21H15.18A54.62,54.62,0,0,1,55.94,8.47ZM15.18,90h18.2a71.49,71.49,0,0,0,22.56,26.74A54.62,54.62,0,0,1,15.18,90Zm53.47,26.74A71.49,71.49,0,0,0,91.21,90h18.2A54.62,54.62,0,0,1,68.65,116.76Z"/></svg>