<svg id="Layer_1" data-name="Layer 1" xmlns="http://www.w3.org/2000/svg" viewBox="0 0 124 124"><title>multi-channel-integrations</title><path d="M5,41.38H76.08a11.26,11.26,0,0,0,22,0H118a2.38,2.38,0,1,0,0-4.75H98.1a11.26,11.26,0,0,0-22,0H5a2.38,2.38,0,0,0,0,4.75Zm82.12-8.9A6.53,6.53,0,0,1,93.61,39h0a6.52,6.52,0,1,1-6.52-6.53Z"/><path d="M118,60.38H72.23a11.26,11.26,0,0,0-22,0H5a2.38,2.38,0,0,0,0,4.75H50.21a11.26,11.26,0,0,0,22,0H118a2.38,2.38,0,1,0,0-4.75ZM61.22,69.27a6.52,6.52,0,1,1,6.52-6.54v0A6.52,6.52,0,0,1,61.22,69.27Z"/><path d="M118,84.13H39.12a11.26,11.26,0,0,0-22,0H5a2.38,2.38,0,0,0,0,4.75H17.1a11.26,11.26,0,0,0,22,0H118a2.38,2.38,0,1,0,0-4.75ZM28.11,93a6.53,6.53,0,0,1-6.52-6.49s0,0,0,0,0,0,0,0A6.52,6.52,0,1,1,28.11,93Z"/></svg>