<svg id="Layer_1" data-name="Layer 1" xmlns="http://www.w3.org/2000/svg" viewBox="0 0 124 124"><defs><style>.cls-1{fill:#020202;}</style></defs><title>on-page-observations</title><path class="cls-1" d="M91.26,37a3.9,3.9,0,1,0-3.9-3.89A3.89,3.89,0,0,0,91.26,37Zm0-5.79a1.9,1.9,0,1,1-1.9,1.9A1.9,1.9,0,0,1,91.26,31.21Z"/><path class="cls-1" d="M112.92,37a3.9,3.9,0,1,0-3.9-3.89A3.9,3.9,0,0,0,112.92,37Zm0-5.79a1.9,1.9,0,1,1-1.9,1.9A1.9,1.9,0,0,1,112.92,31.21Z"/><path class="cls-1" d="M114.79,22.68H9.92a9,9,0,0,0-9,9V96.53a9,9,0,0,0,9,9H114.79a9,9,0,0,0,9-9V31.67A9,9,0,0,0,114.79,22.68Zm-104.87,4H114.79a5,5,0,0,1,5,5v7.79H4.93V31.67A5,5,0,0,1,9.92,26.68Zm104.87,74.85H9.92a5,5,0,0,1-5-5V41.46H119.79V96.53A5,5,0,0,1,114.79,101.53Z"/><path class="cls-1" d="M102.19,37a3.9,3.9,0,1,0-3.9-3.89A3.9,3.9,0,0,0,102.19,37Zm0-5.79a1.9,1.9,0,1,1-1.9,1.9A1.91,1.91,0,0,1,102.19,31.21Z"/><path class="cls-1" d="M89.44,53a2,2,0,0,0-2.76.6L69.65,80,62.47,68.18A3.23,3.23,0,0,0,60,66.63a3.28,3.28,0,0,0-2.73,1.15L50,76.57,46,70.1a2,2,0,0,0-3.43,2.07L47,79.46a3.22,3.22,0,0,0,5.3.52l7.29-8.79,7.26,12a3.2,3.2,0,0,0,2.75,1.56h.28a3.23,3.23,0,0,0,2.63-1.81L90,55.76A2,2,0,0,0,89.44,53Z"/></svg>