<svg id="Layer_1" data-name="Layer 1" xmlns="http://www.w3.org/2000/svg" viewBox="0 0 124 124"><title>platform-integrations</title><path d="M106.05,94.07a11.62,11.62,0,1,0,11.62,11.62A11.63,11.63,0,0,0,106.05,94.07Zm0,18.24a6.62,6.62,0,1,1,6.62-6.62A6.63,6.63,0,0,1,106.05,112.31Z"/><path d="M41.52,94.07a11.62,11.62,0,1,0,11.62,11.62A11.63,11.63,0,0,0,41.52,94.07Zm0,18.24a6.62,6.62,0,1,1,6.62-6.62A6.63,6.63,0,0,1,41.52,112.31Z"/><path d="M115.17,84.08H45.08a7.7,7.7,0,0,1-7.14-5.84l-2.4-11.81h77.72a2.5,2.5,0,0,0,2.49-2.3l3.36-41.81a2.5,2.5,0,0,0-2.49-2.7H26.05l0-.18A12.63,12.63,0,0,0,14,9.59H4.14a2.5,2.5,0,0,0,0,5H14a7.71,7.71,0,0,1,7.13,5.84l8.8,43.4s0,.07,0,.1A2.59,2.59,0,0,0,30.15,65L33,79.24a12.63,12.63,0,0,0,12,9.84h70.09a2.5,2.5,0,0,0,0-5Zm-1.26-59.46-3,36.81H34.53L27.07,24.62Z"/></svg>