<svg id="Layer_1" data-name="Layer 1" xmlns="http://www.w3.org/2000/svg" viewBox="0 0 124 124"><title>organic-social</title><path d="M112.21,64.64A12.35,12.35,0,0,0,98.09,74.91,12.22,12.22,0,0,0,99.58,83L82.74,93.58a20.54,20.54,0,0,0-9.52-10l14.39-43.7a12.07,12.07,0,0,0,3,.38,12.35,12.35,0,1,0-11-6.67,12.22,12.22,0,0,0,6.1,5.66L71.38,82.75A20.31,20.31,0,0,0,64,81.35a20.53,20.53,0,0,0-4.46.51L46.07,25.68a12.25,12.25,0,0,0,7-6.1h0a12.34,12.34,0,1,0-11,6.77,12.89,12.89,0,0,0,2.05-.17L57.61,82.39A20.59,20.59,0,0,0,46,92.13L23.67,74.88A12.34,12.34,0,1,0,1.4,68.52,12.37,12.37,0,0,0,13.7,79.94c.31,0,.63,0,1,0a12.27,12.27,0,0,0,7.71-3.5L45.08,94a20.51,20.51,0,1,0,38.07.61l.49.79,17.07-10.77A12.33,12.33,0,0,0,108.35,89a12.77,12.77,0,0,0,1.94.15,12.35,12.35,0,0,0,1.92-24.55ZM84.06,31.28A7.35,7.35,0,1,1,94,34.43,7.36,7.36,0,0,1,84.06,31.28ZM38.77,20.55A7.35,7.35,0,0,1,39.81,7a7.5,7.5,0,0,1,2.29-.36,7.27,7.27,0,0,1,3.31.79,7.36,7.36,0,0,1,3.24,9.88h0a7.35,7.35,0,0,1-9.88,3.23ZM14.27,74.92a7.35,7.35,0,0,1-1.11-14.66l.57,0a7.35,7.35,0,0,1,.54,14.68ZM64,117.35a15.5,15.5,0,1,1,15.5-15.5A15.52,15.52,0,0,1,64,117.35ZM117.54,78a7.35,7.35,0,1,1-6.11-8.41A7.36,7.36,0,0,1,117.54,78Z"/></svg>