<?xml version="1.0" encoding="UTF-8"?>
<svg width="85px" height="50px" viewBox="0 0 85 50" version="1.1" xmlns="http://www.w3.org/2000/svg" xmlns:xlink="http://www.w3.org/1999/xlink">
    <!-- Generator: Sketch 59.1 (86144) - https://sketch.com -->
    <title>Woo</title>
    <desc>Created with Sketch.</desc>
    <g id="Pages" stroke="none" stroke-width="1" fill="none" fill-rule="evenodd">
        <g id="01-Home--Clients-Tech" transform="translate(-664.000000, -2558.000000)" fill="#474747" fill-rule="nonzero">
            <g id="Assurance-Block" transform="translate(427.000000, 2558.000000)">
                <path d="M314.076755,0 C318.455574,0 322,3.50264134 322,7.82983889 L322,33.9285363 C322,38.2557338 318.455574,41.7583752 314.076755,41.7583752 L289.265106,41.7583752 L292.670744,50 L277.693177,41.7583752 L244.92342,41.7583752 C240.544933,41.7583752 237.000251,38.2557338 237.000251,33.9285363 L237.000251,7.82983889 C236.965643,3.53709355 240.509737,0 244.888889,0 L314.076755,0 Z M273.844188,4.63255919 L273.629123,4.64350166 C272.627054,4.71207796 271.866704,5.19014339 271.348737,6.14627424 C269.206475,10.0045936 267.686107,16.2532401 266.787633,24.9260098 C265.474784,21.6481281 264.369122,17.7894806 263.505179,13.2483512 C263.125004,11.2337172 262.19233,10.2779145 260.671962,10.3802868 C259.635362,10.448535 258.771419,11.1313449 258.080131,12.4290449 L258.080131,12.4290449 L250.513154,26.667651 C249.269368,21.7167044 248.094644,15.6728024 247.023513,8.53627326 C246.781795,6.76050792 245.779727,5.94120156 244.017308,6.07802605 C243.049771,6.14627424 242.324284,6.48751518 241.840516,7.13652919 C241.356747,7.75076287 241.14956,8.53627326 241.288017,9.42415592 C243.326353,22.2285658 245.226896,30.8675395 246.988982,35.3407488 C247.679938,36.9793615 248.474487,37.7648719 249.407493,37.6966237 C250.858798,37.5942514 252.586353,35.6137415 254.625021,31.755094 C255.696152,29.5698396 257.354644,26.2919579 259.600831,21.921449 C261.466511,28.37484 264.023478,33.2234144 267.23687,36.4675001 C268.135345,37.3895068 269.068019,37.798996 269.966493,37.7307478 C270.761375,37.6624996 271.382936,37.2526824 271.797974,36.5016242 C272.143286,35.8526102 272.281743,35.1012239 272.212348,34.2481215 C272.005161,31.1408603 272.316274,26.8041474 273.179885,21.2383109 C274.078028,15.502182 275.184022,11.3705417 276.531734,8.9119664 C276.807983,8.39977688 276.911577,7.88758736 276.877046,7.27302556 C276.807983,6.48751518 276.462339,5.83882928 275.805915,5.32663976 C275.149491,4.81445024 274.424004,4.57558159 273.629123,4.64350166 Z M308.700184,8.33152869 C305.383198,8.33152869 302.688106,10.0387177 300.580376,13.4534239 C298.783427,16.3556124 297.885284,19.5652459 297.885284,23.0823244 C297.885284,25.7115202 298.438115,27.9650228 299.543777,29.8431604 C300.787563,31.9942908 302.619044,33.2916626 305.072085,33.8038521 C305.72851,33.9406766 306.350403,34.0089248 306.938097,34.0089248 C310.289614,34.0089248 312.984706,32.3017357 315.057905,28.8870296 C316.854522,25.9503888 317.752997,22.7407553 317.752997,19.224005 C317.787528,16.5606851 317.200166,14.3409784 316.094504,12.497293 C314.850718,10.3461627 313.019237,9.04879089 310.566195,8.53627326 C309.909439,8.39977688 309.287878,8.33152869 308.700184,8.33152869 Z M287.070052,8.33152869 C283.753067,8.33152869 281.057975,10.0387177 278.950245,13.4534239 C277.153627,16.3556124 276.255152,19.5652459 276.255152,23.0823244 C276.255152,25.7115202 276.807983,27.9650228 277.913645,29.8431604 C279.157432,31.9942908 280.988912,33.2916626 283.441954,33.8038521 C284.098711,33.9406766 284.720272,34.0089248 285.307966,34.0089248 C288.659482,34.0089248 291.354575,32.3017357 293.427773,28.8870296 C295.224723,25.9503888 296.122866,22.7407553 296.122866,19.224005 C296.122866,16.5606851 295.570035,14.3409784 294.464373,12.497293 C293.220586,10.3461627 291.354575,9.04879089 288.936064,8.53627326 C288.279639,8.39977688 287.657746,8.33152869 287.070052,8.33152869 Z M309.322077,14.1021098 C310.151489,14.2727303 310.842777,14.9899925 311.360744,16.3214883 C311.775451,17.3799915 311.982638,18.4384946 311.982638,19.4287495 C311.982638,20.3166322 311.913575,21.1700627 311.740919,21.9552449 C311.257151,24.2090757 310.393207,25.8821406 309.114558,27.008892 C308.112821,27.8967746 307.179816,28.2721396 306.316204,28.1015192 C305.486792,27.9308987 304.795504,27.2139646 304.277536,25.8821406 C303.862498,24.8236375 303.655643,23.7651344 303.655643,22.7748794 C303.655643,21.921449 303.724705,21.0676904 303.897361,20.2825081 C304.208474,18.8824359 304.795836,17.5164878 305.72851,16.2191161 C306.869035,14.545723 308.07829,13.8632411 309.322077,14.1021098 Z M287.657414,14.1021098 C288.486827,14.2727303 289.178114,14.9899925 289.696082,16.3214883 C290.11112,17.3799915 290.317975,18.4384946 290.317975,19.4287495 C290.352838,20.3166322 290.248913,21.1700627 290.076257,21.9552449 C289.592488,24.2090757 288.728545,25.8821406 287.450227,27.008892 C286.448159,27.8967746 285.515153,28.2721396 284.651209,28.1015192 C283.822129,27.9308987 283.131173,27.2139646 282.612542,25.8821406 C282.198168,24.8236375 281.99098,23.7651344 281.99098,22.7748794 C281.99098,21.921449 282.060043,21.0676904 282.232699,20.2825081 C282.543811,18.8824359 283.131173,17.5164878 284.064179,16.2191161 C285.204372,14.545723 286.413628,13.8632411 287.657414,14.1021098 Z" id="Woo"></path>
            </g>
        </g>
    </g>
</svg>